<svg width="626" height="626" viewBox="0 0 626 626" fill="none" xmlns="http://www.w3.org/2000/svg">
<path d="M570.311 238.331C579.862 249.841 585.783 263.926 587.325 278.802C588.867 293.679 585.96 308.679 578.973 321.903C571.986 335.127 561.233 345.981 548.075 353.091C534.916 360.201 519.944 363.247 505.054 361.844C490.163 360.441 476.024 354.652 464.425 345.209C452.826 335.766 444.29 323.095 439.896 308.798C435.502 294.502 435.449 279.223 439.743 264.896C444.036 250.569 452.484 237.838 464.017 228.315C479.442 215.551 499.305 209.435 519.238 211.314C539.171 213.192 557.542 222.91 570.311 238.331Z" fill="#F5F5F5"/>
<path d="M556.439 249.786C563.711 258.56 568.217 269.294 569.386 280.629C570.555 291.964 568.335 303.392 563.007 313.465C557.68 323.538 549.483 331.805 539.455 337.218C529.428 342.631 518.019 344.948 506.674 343.875C495.33 342.801 484.558 338.387 475.723 331.189C466.888 323.992 460.387 314.336 457.042 303.442C453.698 292.548 453.66 280.907 456.934 269.992C460.208 259.077 466.646 249.379 475.434 242.124C487.198 232.413 502.335 227.766 517.521 229.202C532.708 230.639 546.704 238.042 556.439 249.786Z" fill="#EBEBEB"/>
<path d="M555.275 248.397C555.012 248.634 553.221 246.832 549.691 244.027C544.756 240.068 539.236 236.9 533.327 234.637C529.285 233.107 525.086 232.028 520.807 231.419C515.9 230.747 510.926 230.709 506.009 231.307C503.352 231.614 500.724 232.124 498.146 232.834C495.459 233.546 492.83 234.462 490.283 235.576C487.644 236.73 485.095 238.082 482.659 239.62C477.626 242.787 473.133 246.739 469.35 251.326C467.5 253.542 465.825 255.899 464.342 258.375C462.896 260.756 461.641 263.247 460.586 265.824C459.559 268.29 458.722 270.831 458.082 273.424C456.866 278.223 456.273 283.159 456.317 288.11C456.377 292.441 456.91 296.753 457.907 300.968C459.4 307.112 461.837 312.987 465.131 318.383C467.472 322.24 469.024 324.243 468.749 324.481C468.474 324.719 466.571 323.016 463.741 319.347C459.756 314.1 456.784 308.156 454.977 301.819C452.211 292.281 451.953 282.19 454.226 272.523C454.843 269.723 455.68 266.977 456.73 264.31C457.819 261.518 459.13 258.817 460.649 256.234C462.212 253.544 463.992 250.986 465.97 248.584C470.033 243.624 474.879 239.361 480.318 235.964C482.955 234.315 485.718 232.875 488.581 231.657C493.995 229.369 499.722 227.904 505.57 227.313C510.838 226.783 516.153 226.968 521.371 227.864C525.898 228.649 530.316 229.973 534.529 231.808C540.586 234.431 546.105 238.154 550.805 242.788C554.11 246.043 555.475 248.234 555.275 248.397Z" fill="#E0E0E0"/>
<path d="M538.911 308.793L545.409 316.443L538.586 322.24L532.263 314.803C525.152 320.136 516.876 323.567 510.629 323.78L507.298 312.261C513.545 311.667 519.529 309.458 524.663 305.851L514.973 294.458C505.833 299.053 495.216 303.722 486.928 293.957C480.768 286.733 480.756 276.053 490.484 265.662L484.049 258.075L490.872 252.278L497.195 259.715C502.666 255.783 508.813 252.904 514.597 252.103L518.353 263.371C513.558 264.24 508.984 266.053 504.894 268.704L514.76 280.31C523.837 275.64 534.316 271.095 542.492 280.711C548.489 287.835 548.527 298.389 538.911 308.793ZM506.447 284.429L498.209 274.739C495.279 278.632 495.529 281.825 497.445 284.079C499.361 286.332 502.628 286.019 506.447 284.429ZM532.163 290.902C530.135 288.511 527.055 288.899 523.249 290.364L531.249 299.779C534.028 296.135 534.016 293.081 532.163 290.902Z" fill="#E0E0E0"/>
<path d="M590.068 135.216C589.208 143.914 585.787 152.162 580.237 158.915C574.688 165.669 567.259 170.623 558.892 173.153C550.525 175.682 541.596 175.672 533.235 173.124C524.874 170.575 517.457 165.604 511.922 158.838C506.388 152.072 502.985 143.817 502.145 135.116C501.305 126.416 503.066 117.662 507.203 109.962C511.341 102.263 517.67 95.9641 525.389 91.8634C533.109 87.7627 541.871 86.0445 550.567 86.9263C562.208 88.0933 572.909 93.8361 580.317 102.892C587.724 111.948 591.232 123.575 590.068 135.216Z" fill="#F5F5F5"/>
<path d="M579.676 134.164C579.024 140.792 576.421 147.078 572.196 152.227C567.971 157.375 562.314 161.154 555.94 163.087C549.567 165.019 542.763 165.018 536.39 163.083C530.017 161.148 524.362 157.366 520.139 152.216C515.916 147.066 513.315 140.779 512.666 134.151C512.016 127.522 513.348 120.85 516.491 114.979C519.635 109.107 524.449 104.3 530.325 101.165C536.202 98.0303 542.876 96.7088 549.503 97.3679C553.901 97.8003 558.171 99.0954 562.069 101.179C565.966 103.263 569.414 106.094 572.217 109.512C575.019 112.929 577.12 116.866 578.4 121.096C579.68 125.326 580.114 129.766 579.676 134.164Z" fill="#EBEBEB"/>
<path d="M579.676 133.113C579.476 133.113 579.476 131.61 579.2 128.993C578.81 125.318 577.856 121.724 576.371 118.339C575.342 116.026 574.062 113.835 572.552 111.803C570.818 109.466 568.79 107.362 566.517 105.543C564.015 103.566 561.24 101.959 558.279 100.773C556.719 100.145 555.112 99.643 553.472 99.2709C550.089 98.4793 546.602 98.2342 543.143 98.5448C541.454 98.6895 539.78 98.9657 538.135 99.3711C536.553 99.7531 535.004 100.26 533.502 100.886C532.057 101.47 530.659 102.165 529.321 102.964C526.823 104.428 524.526 106.208 522.485 108.26C520.713 110.067 519.143 112.061 517.802 114.207C515.867 117.353 514.427 120.778 513.533 124.361C512.894 126.928 512.694 128.392 512.494 128.38C512.293 128.367 512.206 126.865 512.494 124.173C513.035 120.346 514.283 116.652 516.175 113.281C517.489 110.942 519.074 108.766 520.895 106.795C522.999 104.525 525.404 102.554 528.043 100.936C530.965 99.1314 534.144 97.7805 537.471 96.9297C539.229 96.474 541.021 96.16 542.83 95.9907C544.697 95.8527 546.571 95.8527 548.439 95.9907C550.305 96.1349 552.159 96.4153 553.985 96.8295C555.749 97.25 557.478 97.8067 559.156 98.4947C560.78 99.1596 562.35 99.9508 563.851 100.861C565.287 101.723 566.656 102.694 567.945 103.766C570.327 105.741 572.433 108.027 574.205 110.564C575.732 112.77 576.993 115.148 577.961 117.65C579.358 121.243 580.084 125.063 580.102 128.918C580.214 131.66 579.864 133.125 579.676 133.113Z" fill="#E0E0E0"/>
<path d="M547.888 151.129L547.387 156.976L542.116 156.5L542.617 150.816C537.484 150.052 532.664 148.011 529.984 145.52L533.402 139.398C536.216 141.752 539.595 143.331 543.205 143.98L543.957 135.216C538.298 133.313 531.988 130.822 532.689 123.36C533.164 117.838 537.597 113.431 545.91 113.218L546.423 107.422L551.631 107.872L551.143 113.556C554.858 114.094 558.39 115.51 561.447 117.688L558.292 123.948C555.96 122.31 553.326 121.153 550.542 120.543L549.778 129.407C555.45 131.272 561.647 133.751 561.046 141.1C560.533 146.484 556.164 150.854 547.888 151.129ZM544.62 127.629L545.259 120.23C542.442 120.605 541.227 122.032 541.077 123.748C540.927 125.463 542.442 126.702 544.62 127.629ZM552.508 140.975C552.671 139.147 551.256 138.033 549.065 137.056L548.439 144.243C551.143 143.905 552.408 142.64 552.558 140.975H552.508Z" fill="#E0E0E0"/>
<path d="M50.9944 465.281C45.6868 461.96 39.6925 459.892 33.4664 459.233C30.5868 458.933 27.4442 459.021 25.1406 460.761C24.8734 460.912 24.652 461.133 24.5 461.399C24.3479 461.666 24.2707 461.969 24.2767 462.276C24.4123 462.71 24.7017 463.079 25.0905 463.315C32.2519 468.786 43.0817 469.475 51.057 465.281" fill="#E0E0E0"/>
<path d="M50.5434 464.792C46.4711 461.789 42.6675 458.438 39.1752 454.776C35.6821 451.085 33.2248 446.538 32.0513 441.593C31.8221 440.861 31.7538 440.088 31.8511 439.328C31.9483 438.567 32.2088 437.836 32.6147 437.186C41.6792 444.26 48.7906 453.462 50.5434 464.73" fill="#E0E0E0"/>
<path d="M50.9063 465.218C50.0622 460.272 50.1344 455.214 51.1192 450.294C52.1245 445.337 54.958 440.939 59.0568 437.975C60.6344 441.643 59.9583 445.85 58.8565 449.681C57.1477 455.603 54.4834 461.206 50.9689 466.27" fill="#E0E0E0"/>
<path d="M59.7831 481.131C54.3869 481.795 49.6919 484.637 45.673 488.28C41.6082 491.956 38.7752 496.796 37.5601 502.14C42.8435 501.814 47.3382 498.083 50.5934 493.901C53.8486 489.72 56.1022 485.137 59.6704 481.219" fill="#E0E0E0"/>
<path d="M61.7111 483.685C59.5826 478.29 58.8353 472.449 59.5372 466.693C60.239 460.936 62.3677 455.445 65.73 450.72C68.81 461.637 67.6832 473.982 61.7111 483.648" fill="#E0E0E0"/>
<path d="M73.4549 497.657C68.5261 497.35 63.6157 498.499 59.3348 500.961C55.054 503.423 51.5917 507.09 49.3789 511.505C49.0784 512.106 48.8155 512.857 49.2161 513.395C49.4262 513.596 49.6816 513.743 49.9606 513.823C50.2396 513.904 50.534 513.916 50.8187 513.858C55.5638 513.558 59.758 510.703 63.226 507.448C66.6941 504.193 69.7239 500.449 73.555 497.645" fill="#E0E0E0"/>
<path d="M73.0795 496.894C70.5538 488.759 70.3974 480.074 72.6288 471.854C73.5052 468.636 74.9951 465.243 77.9748 463.728C78.0936 463.65 78.2268 463.596 78.3665 463.571C78.5063 463.545 78.6498 463.547 78.7886 463.578C79.0274 463.709 79.21 463.923 79.3019 464.179C80.3033 466.435 80.7333 468.903 80.5539 471.365C80.3784 473.817 80.0015 476.25 79.4271 478.639C78.4881 483.084 77.9873 487.854 75.5459 491.685C74.9837 492.607 74.4737 493.56 74.0185 494.54C73.5553 495.516 73.5553 495.867 73.1296 496.643" fill="#E0E0E0"/>
<path d="M104.142 501.526C101.838 492.762 104.279 482.158 109.801 474.971C110.201 474.445 110.74 473.882 111.403 473.944C112.417 474.032 112.655 475.384 112.655 476.448C112.236 485.452 109.29 494.156 104.154 501.564" fill="#E0E0E0"/>
<path d="M106.946 503.442C112.378 504.721 118.023 504.808 123.491 503.694C128.96 502.581 134.122 500.295 138.622 496.994C133.313 494.322 127.241 493.579 121.444 494.89C115.722 496.142 110.477 498.759 106.921 503.442" fill="#E0E0E0"/>
<path d="M109.3 497.607C115.259 487.892 126.678 481.557 138.096 480.981C136.844 485.601 132.988 489.206 128.693 491.372C124.399 493.538 119.616 494.502 114.921 495.416C113.093 495.767 110.564 496.167 109.375 497.607" fill="#E0E0E0"/>
<path d="M104.73 469.325C106.536 463.854 107.77 458.211 108.411 452.485C108.849 446.738 108.035 440.741 105.056 435.821C99.4968 446.588 98.9334 459.171 104.567 469.901" fill="#E0E0E0"/>
<path d="M123.473 459.847C129.971 448.028 143.254 438.563 156.688 437.311C151.505 450.207 137.37 460.185 123.473 459.847Z" fill="#E0E0E0"/>
<path d="M119.378 462.176C129.081 463.653 137.345 469.851 146.409 473.607C148.314 474.521 150.424 474.923 152.531 474.771C153.51 474.758 154.461 474.446 155.257 473.876C156.052 473.306 156.653 472.506 156.98 471.583C157.306 470.66 157.341 469.66 157.081 468.716C156.82 467.773 156.277 466.932 155.524 466.307C154.239 465.12 152.727 464.204 151.079 463.616C141.201 459.496 130.609 459.396 120.205 461.888" fill="#E0E0E0"/>
<path d="M113.757 468.974C115.948 469.6 116.699 470.739 118.439 472.229C124.382 477.272 131.409 480.876 138.972 482.759C139.761 482.959 140.788 483.034 141.176 482.32C141.564 481.607 141.088 480.956 140.65 480.405C137.356 476.539 133.077 473.636 128.268 472.004C123.535 470.239 119.428 468.11 113.782 468.573" fill="#E0E0E0"/>
<path d="M107.422 427.871C111.401 431.538 116.103 434.332 121.226 436.074C126.349 437.816 131.78 438.468 137.169 437.987C137.664 437.994 138.145 437.82 138.522 437.499C139.273 436.685 138.371 435.433 137.507 434.757C128.743 427.934 118.164 425.104 107.459 427.871" fill="#E0E0E0"/>
<path d="M114.934 425.117C120.199 421.24 126.308 418.664 132.76 417.6C139.212 416.536 145.824 417.014 152.055 418.994C147.2 423.499 140.967 426.234 134.365 426.757C127.842 427.352 121.265 426.797 114.934 425.117Z" fill="#E0E0E0"/>
<path d="M111.941 406.224C111.09 397.46 111.641 390.599 111.04 381.835C111.04 381.134 110.84 380.282 110.188 380.032C109.275 379.682 108.511 380.808 108.21 381.735C106.944 385.804 106.624 390.109 107.275 394.32C107.925 398.532 109.53 402.539 111.966 406.036" fill="#E0E0E0"/>
<path d="M111.315 407.188C117.021 403.507 121.937 398.728 125.776 393.128C128.643 389.209 131.047 384.527 130.396 379.731C128.384 379.781 126.408 380.271 124.606 381.166C122.805 382.062 121.221 383.341 119.967 384.915C117.469 388.079 115.657 391.729 114.646 395.632C113.494 399.463 112.68 403.419 111.315 407.188Z" fill="#E0E0E0"/>
<path d="M125.526 403.244C138.544 398.423 150.598 391.317 161.12 382.261C156.876 380.545 152.005 381.572 147.749 383.287C138.103 386.945 130.13 394.009 125.338 403.144" fill="#E0E0E0"/>
<path d="M115.309 411.971C121.882 412.684 128.556 413.16 135.078 412.058C141.601 410.957 147.598 408.453 153.533 405.936C154.051 405.779 154.495 405.442 154.785 404.984C154.881 404.707 154.89 404.407 154.809 404.124C154.728 403.842 154.562 403.592 154.334 403.407C153.875 403.038 153.334 402.784 152.757 402.668C146.246 400.84 139.223 401.692 132.825 403.858C126.713 405.938 120.838 408.658 115.297 411.971" fill="#E0E0E0"/>
<path d="M77.7992 428.184C73.3171 419.132 73.605 408.565 77.4737 399.238C80.2031 403.394 80.5411 408.69 79.9777 413.636C79.4143 418.581 77.9745 423.652 77.8743 428.66" fill="#E0E0E0"/>
<path d="M59.8834 419.132C54.2695 419.065 48.7033 420.169 43.5403 422.374C38.3773 424.58 33.7309 427.838 29.8979 431.94C35.5593 432.611 41.2906 431.537 46.3242 428.86C51.3226 426.198 56.0377 423.035 60.3967 419.42" fill="#E0E0E0"/>
<path d="M47.8516 415.101C42.3678 414.662 37.1094 413.986 31.8385 415.601C29.182 416.347 26.7175 417.657 24.6131 419.442C22.5087 421.226 20.8138 423.444 19.644 425.943C24.8152 426.366 30.0049 425.388 34.668 423.113C39.303 420.845 43.7238 418.163 47.8766 415.101" fill="#E0E0E0"/>
<path d="M65.6799 415.288C60.747 412.058 55.6639 408.778 49.9548 407.438C44.2457 406.099 37.5725 407.088 33.5786 411.42C38.211 414.136 43.845 414.462 49.2286 414.449C54.6122 414.437 61.2103 414.449 66.2934 416.19" fill="#E0E0E0"/>
<path d="M65.7053 415.551C57.2793 407.288 54.0867 392.427 57.4797 381.121C64.1279 391.298 67.0354 403.468 65.7053 415.551Z" fill="#E0E0E0"/>
<path d="M88.8921 392.126C90.4821 388.433 91.5964 384.552 93.0237 380.796C94.3251 376.982 96.3201 373.442 98.9081 370.354C101.545 367.259 105.288 365.318 109.337 364.945C108.046 370.642 105.579 376.007 102.095 380.696C98.6113 385.385 94.1868 389.295 89.1049 392.176" fill="#E0E0E0"/>
<path d="M84.673 397.009C82.0438 393.391 79.0015 388.471 75.4458 385.741C71.8901 383.012 67.2327 381.409 62.9258 382.436C65.1782 386.385 68.3197 389.754 72.1011 392.277C75.8825 394.8 80.1998 396.408 84.7106 396.972" fill="#E0E0E0"/>
<path d="M85.5116 392.427C83.6259 388.113 82.2397 383.597 81.3799 378.968C80.5126 374.304 81.2542 369.483 83.4833 365.296C88.1032 374.06 89.5931 383.412 85.7619 392.527" fill="#E0E0E0"/>
<path d="M88.8921 365.296C91.5088 356.632 99.4339 350.272 107.998 347.33C109.082 346.879 110.259 346.698 111.428 346.804C112.003 346.862 112.548 347.089 112.994 347.456C113.44 347.824 113.766 348.316 113.932 348.87C114.245 350.347 113.031 351.662 111.891 352.626C105.163 358.365 97.3382 362.676 88.8921 365.296Z" fill="#E0E0E0"/>
<path d="M88.9922 358.21C89.3303 352.626 89.6808 346.942 91.4962 341.658C93.3116 336.375 96.8172 331.404 101.9 329.138C102.777 334.785 100.285 340.406 97.2804 345.251C94.2756 350.097 90.6574 354.679 88.8545 360.1" fill="#E0E0E0"/>
<path d="M88.8921 362.053C86.7261 355.793 86.5133 347.718 82.7323 342.222C80.0905 338.378 75.8588 335.761 73.5801 331.68C72.2053 335.588 72.3937 339.876 74.106 343.649C75.8263 347.376 78.1961 350.768 81.1047 353.665C83.8966 356.657 86.3005 358.898 88.8921 362.066" fill="#E0E0E0"/>
<path d="M88.8923 547.963C88.717 547.963 88.5793 505.846 88.5668 453.913C88.5543 401.98 88.6795 359.85 88.8422 359.85C89.005 359.85 89.1552 401.955 89.1677 453.913C89.1803 505.871 89.0676 547.963 88.8923 547.963Z" fill="#E0E0E0"/>
<path d="M125.701 421.811C125.195 422.057 124.667 422.254 124.123 422.4L119.766 423.877C116.086 425.129 111.002 426.944 105.556 429.186C100.11 431.427 95.0269 433.405 92.1097 435.921C90.9532 436.879 90.0286 438.086 89.4054 439.452C88.9922 440.441 88.9171 441.042 88.8545 441.029C88.8323 440.884 88.8323 440.736 88.8545 440.591C88.913 440.165 89.0136 439.746 89.155 439.339C89.7193 437.892 90.6257 436.604 91.7967 435.583C93.5604 434.088 95.5347 432.86 97.6561 431.94C99.9973 430.851 102.589 429.711 105.331 428.585C110.827 426.331 115.91 424.578 119.629 423.426C121.482 422.85 122.997 422.425 124.048 422.174C124.586 422.001 125.14 421.88 125.701 421.811Z" fill="#E0E0E0"/>
<path d="M137.72 392.176C137.72 392.176 137.57 392.364 137.269 392.652L135.917 393.904L130.909 398.486L114.132 413.46C107.585 419.295 101.913 424.866 97.9942 429.06C96.0286 431.164 94.4761 432.891 93.4244 434.068L92.1724 435.458C92.0453 435.633 91.8935 435.789 91.7217 435.921C91.8205 435.728 91.9425 435.547 92.0848 435.383C92.3352 435.045 92.7108 434.544 93.2116 433.918C94.2132 432.666 95.7156 430.876 97.6436 428.735C102.716 423.196 108.078 417.931 113.707 412.959C120.28 407.15 126.227 401.917 130.621 398.148L135.792 393.704L137.219 392.527C137.372 392.391 137.54 392.273 137.72 392.176Z" fill="#E0E0E0"/>
<path d="M107.059 419.42C106.883 419.332 108.311 416.177 109.563 412.183C110.815 408.189 111.578 404.809 111.754 404.834C111.613 407.407 111.068 409.943 110.139 412.346C109.55 414.051 108.868 415.723 108.098 417.354C107.849 418.088 107.499 418.783 107.059 419.42Z" fill="#E0E0E0"/>
<path d="M88.8923 444.873C88.5105 444.525 88.1702 444.135 87.8782 443.709L85.2865 440.391C83.1206 437.574 80.1158 433.705 76.7479 429.461C73.38 425.217 70.2876 421.411 67.9839 418.656L65.3422 415.376C64.9967 414.99 64.6905 414.571 64.4282 414.124C64.8308 414.454 65.1999 414.823 65.53 415.226C66.1935 415.952 67.1576 417.029 68.3219 418.381C70.6507 421.06 73.7932 424.829 77.1736 429.073C80.554 433.317 83.4336 437.248 85.587 440.128C86.6262 441.568 87.465 442.745 88.0159 443.571C88.3486 443.976 88.6421 444.412 88.8923 444.873Z" fill="#E0E0E0"/>
<path d="M80.8669 434.519C79.2359 432.723 78.0746 430.551 77.4865 428.197C76.8569 426.13 76.5983 423.968 76.7228 421.811H76.9982C76.873 422.3 76.7854 422.55 76.7353 422.55C76.6852 422.55 76.7353 422.262 76.7353 421.761H77.0107C77.1377 423.881 77.4988 425.981 78.0875 428.021C78.8513 430.253 79.7803 432.425 80.8669 434.519Z" fill="#E0E0E0"/>
<path d="M70.4503 421.411C69.7276 420.856 68.9365 420.398 68.0966 420.046C65.9714 419.409 63.7355 419.23 61.5361 419.52C59.3122 419.701 57.1061 420.057 54.938 420.584C54.0495 420.867 53.1414 421.085 52.2212 421.235C53.0357 420.761 53.9121 420.403 54.8254 420.171C56.9957 419.504 59.2342 419.084 61.4985 418.919C63.7778 418.617 66.0961 418.866 68.2593 419.645C69.1758 419.955 69.9523 420.581 70.4503 421.411Z" fill="#E0E0E0"/>
<path d="M67.9839 418.243C67.9839 418.331 66.6067 417.692 64.3657 416.928C58.5129 414.912 52.24 414.433 46.1491 415.539C43.8203 415.952 42.3931 416.39 42.3931 416.29C42.6927 416.106 43.0175 415.967 43.3571 415.877C44.2493 415.563 45.161 415.308 46.0865 415.113C49.1472 414.442 52.2896 414.223 55.4139 414.462C58.5392 414.703 61.6133 415.395 64.5409 416.515C65.4254 416.851 66.2869 417.244 67.1201 417.692C67.6835 418.005 68.009 418.168 67.9839 418.243Z" fill="#E0E0E0"/>
<path d="M88.892 404.809C87.8217 401.813 86.9436 398.752 86.2628 395.644C85.3787 392.591 84.6928 389.484 84.2095 386.342C85.2807 389.339 86.163 392.4 86.8512 395.507C87.7279 398.561 88.4096 401.668 88.892 404.809Z" fill="#E0E0E0"/>
<path d="M89.0297 404.809C88.1782 402.937 87.1994 401.126 86.1 399.388C84.855 397.737 83.4128 396.244 81.8057 394.943C82.4168 395.097 82.9831 395.393 83.4583 395.807C84.6812 396.698 85.7438 397.79 86.6008 399.037C87.8985 400.717 88.7357 402.707 89.0297 404.809Z" fill="#E0E0E0"/>
<path d="M88.892 525.502C88.8169 525.502 88.7042 524.5 88.2284 522.71C87.5291 520.191 86.5856 517.746 85.4114 515.411C81.3549 507.788 76.335 500.719 70.4751 494.377C67.1448 490.621 63.9146 486.978 61.1727 483.535C58.7018 480.515 56.4746 477.304 54.5121 473.932C53.1829 471.661 52.056 469.277 51.1442 466.808C50.8312 465.932 50.6058 465.243 50.4806 464.767C50.3962 464.533 50.3416 464.289 50.3179 464.041C50.3179 464.041 50.6684 465.005 51.3696 466.721C52.3583 469.139 53.5302 471.479 54.8752 473.719C56.8887 477.03 59.1355 480.193 61.5984 483.184C64.3653 486.59 67.5955 490.17 70.9383 493.977C77.6866 501.551 82.97 509.188 85.7996 515.261C86.9512 517.632 87.8412 520.121 88.4538 522.685C88.616 523.383 88.7414 524.089 88.8294 524.801C88.8703 525.032 88.8912 525.267 88.892 525.502Z" fill="#E0E0E0"/>
<path d="M122.158 487.942C121.603 488.31 121.021 488.637 120.418 488.918C118.844 489.81 117.333 490.81 115.898 491.911C113.775 493.557 111.786 495.37 109.951 497.332C107.873 499.535 105.719 502.089 103.528 504.844C99.1587 510.34 95.0521 515.21 92.6107 519.092C91.3587 521.02 90.4573 522.635 89.8563 523.774C89.5804 524.38 89.2625 524.966 88.9048 525.527C88.9048 525.527 88.9048 525.352 89.0675 525.039C89.2303 524.726 89.368 524.25 89.6435 523.674C90.4124 522.022 91.2778 520.417 92.2351 518.866C95.5644 513.862 99.1804 509.055 103.065 504.468C105.256 501.726 107.422 499.16 109.55 496.956C111.42 494.994 113.456 493.197 115.635 491.585C117.104 490.497 118.667 489.542 120.305 488.731C120.881 488.443 121.357 488.255 121.67 488.13C121.822 488.043 121.987 487.98 122.158 487.942Z" fill="#E0E0E0"/>
<path d="M122.809 500.136C121.595 500.396 120.365 500.571 119.128 500.662C116.16 500.969 113.226 501.547 110.364 502.39C107.541 503.305 104.895 504.694 102.539 506.496C100.736 507.886 99.8845 509 99.7969 509C99.9294 508.687 100.116 508.399 100.348 508.149C100.921 507.433 101.562 506.775 102.263 506.183C104.597 504.235 107.283 502.751 110.176 501.814C113.065 500.95 116.043 500.421 119.053 500.236C120.298 500.082 121.556 500.048 122.809 500.136Z" fill="#E0E0E0"/>
<path d="M100.899 507.636C100.711 507.523 102.364 504.994 103.653 501.576C104.943 498.158 105.143 495.116 105.369 495.153C105.479 495.808 105.479 496.477 105.369 497.132C105.022 500.321 103.919 503.381 102.151 506.058C101.83 506.654 101.406 507.188 100.899 507.636Z" fill="#E0E0E0"/>
<path d="M132.925 455.227C132.747 455.362 132.548 455.468 132.336 455.54L130.609 456.329C129.845 456.654 128.931 457.067 127.892 457.581C126.853 458.094 125.638 458.67 124.374 459.434L122.358 460.573C121.657 460.974 120.968 461.449 120.242 461.913C118.752 462.802 117.275 463.916 115.685 465.043C108.9 470.098 102.98 476.22 98.1569 483.172C97.0802 484.799 96.0285 486.314 95.1771 487.829C94.7389 488.58 94.2882 489.281 93.9251 489.995C93.562 490.709 93.199 491.385 92.8484 492.036C92.1348 493.288 91.5964 494.54 91.1206 495.617C90.6449 496.693 90.2317 497.607 89.8686 498.383C89.5056 499.16 89.3428 499.635 89.1425 500.136C89.0816 500.365 88.9977 500.588 88.8921 500.8C88.918 500.579 88.9771 500.364 89.0674 500.161L89.6934 498.358C89.9563 497.57 90.3069 496.618 90.7826 495.554C91.2584 494.49 91.7466 493.225 92.4478 491.911L93.4869 489.832C93.8625 489.119 94.3007 488.393 94.7389 487.641C95.5778 486.101 96.6169 484.561 97.6936 482.921C102.495 475.872 108.466 469.694 115.347 464.655C116.949 463.528 118.452 462.426 119.954 461.55C120.705 461.086 121.407 460.623 122.108 460.235L124.148 459.108C125.4 458.37 126.652 457.856 127.729 457.33C128.806 456.805 129.72 456.429 130.496 456.141L132.274 455.452C132.482 455.354 132.701 455.279 132.925 455.227Z" fill="#E0E0E0"/>
<path d="M106.608 472.868C106.859 472.031 107.362 471.293 108.048 470.752C109.676 469.318 111.762 468.51 113.932 468.473C116.039 468.483 118.124 468.909 120.067 469.725C120.896 469.98 121.682 470.36 122.396 470.852C121.54 470.69 120.701 470.446 119.892 470.126C117.968 469.475 115.951 469.141 113.92 469.137C111.901 469.174 109.948 469.859 108.348 471.09C107.727 471.641 107.146 472.235 106.608 472.868Z" fill="#E0E0E0"/>
<path d="M102.664 476.924C103.441 475.207 103.996 473.398 104.317 471.541C104.441 469.658 104.315 467.768 103.941 465.919C104.016 465.919 104.342 466.458 104.63 467.484C105.332 470.199 104.998 473.078 103.691 475.56C103.458 476.087 103.107 476.554 102.664 476.924Z" fill="#E0E0E0"/>
<path d="M59.8208 531.537C60.7222 547.637 65.5675 564.001 73.0294 580.552H105.469C112.58 564.164 117.1 547.825 117.901 531.537H59.8208Z" fill="#E0E0E0"/>
<path d="M112.68 557.578C112.68 557.753 102.001 557.891 88.8921 557.891C75.7837 557.891 65.0415 557.753 65.0415 557.578C65.0415 557.403 75.7211 557.278 88.8921 557.278C102.063 557.278 112.68 557.415 112.68 557.578Z" fill="#FAFAFA"/>
<path d="M111.916 563.4C111.916 563.575 101.9 563.7 89.5555 563.7C77.2108 563.7 67.1948 563.575 67.1948 563.4C67.1948 563.225 77.2108 563.099 89.5555 563.099C101.9 563.099 111.916 563.25 111.916 563.4Z" fill="#FAFAFA"/>
<path d="M73.5554 542.116C73.956 547.091 73.956 552.09 73.5554 557.065C73.1547 552.09 73.1547 547.091 73.5554 542.116Z" fill="#FAFAFA"/>
<path d="M90.9328 542.116C91.3501 547.266 91.3501 552.441 90.9328 557.591C90.5322 552.44 90.5322 547.266 90.9328 542.116Z" fill="#FAFAFA"/>
<path d="M107.246 541.978C107.664 547.233 107.664 552.512 107.246 557.766C106.846 552.511 106.846 547.233 107.246 541.978Z" fill="#FAFAFA"/>
<path d="M116.874 542.116C116.874 542.291 104.354 542.429 88.892 542.429C73.4298 542.429 60.9224 542.291 60.9224 542.116C60.9224 541.941 73.4424 541.815 88.892 541.815C104.342 541.815 116.874 541.941 116.874 542.116Z" fill="#FAFAFA"/>
<path d="M601.235 583.995C601.235 584.171 473.782 584.321 316.618 584.321C159.455 584.321 31.9761 584.171 31.9761 583.995C31.9761 583.82 159.392 583.67 316.618 583.67C473.844 583.67 601.235 583.808 601.235 583.995Z" fill="#263238"/>
<path d="M595.026 455.215H482.208V583.983H595.026V455.215Z" fill="#455A64"/>
<g opacity="0.3">
<path opacity="0.3" d="M595.013 455.215H577.748V583.983H595.013V455.215Z" fill="black"/>
</g>
<path d="M568.095 456.329C567.965 456.621 567.81 456.902 567.632 457.168C567.306 457.706 566.843 458.495 566.205 459.496C564.348 462.29 562.294 464.947 560.057 467.447C556.716 471.157 552.852 474.362 548.589 476.962C543.379 480.289 537.33 482.064 531.149 482.08C524.967 482.095 518.909 480.351 513.683 477.049C509.414 474.458 505.542 471.261 502.19 467.559C499.941 465.068 497.878 462.415 496.017 459.622C495.379 458.633 494.916 457.831 494.59 457.305C494.406 457.043 494.251 456.762 494.127 456.467C494.338 456.706 494.531 456.961 494.703 457.23L496.23 459.484C498.147 462.204 500.238 464.797 502.49 467.246C505.85 470.866 509.707 473.989 513.946 476.524C519.094 479.735 525.042 481.432 531.109 481.419C537.177 481.405 543.117 479.683 548.251 476.448C552.482 473.899 556.33 470.763 559.682 467.134C561.933 464.679 564.024 462.082 565.942 459.359L567.469 457.105C567.655 456.829 567.864 456.569 568.095 456.329Z" fill="#263238"/>
<path d="M528.682 583.482H412.384L426.769 473.444H514.046L528.682 583.482Z" fill="#263238"/>
<path d="M568.671 583.995L470.527 583.482L482.045 503.066H556.539L568.671 583.995Z" fill="black"/>
<path d="M556.539 503.066H566.442L585.135 583.995H566.442L556.539 503.066Z" fill="black"/>
<g opacity="0.3">
<path opacity="0.3" d="M556.539 503.066H566.442L585.135 583.995H566.442L556.539 503.066Z" fill="black"/>
</g>
<path d="M539.863 546.698H500.274V556.264H539.863V546.698Z" fill="white"/>
<path d="M546.11 503.517C546.124 503.616 546.124 503.718 546.11 503.817C546.11 504.043 546.11 504.318 546.11 504.669C546.11 505.407 545.96 506.509 545.809 507.924C545.419 511.926 544.749 515.896 543.806 519.805C543.148 522.512 542.311 525.172 541.302 527.768C540.739 529.158 540.138 530.585 539.424 532.012C538.709 533.506 537.871 534.938 536.92 536.294C534.894 539.234 532.348 541.78 529.408 543.806C527.861 544.865 526.176 545.708 524.4 546.31C522.529 546.884 520.57 547.121 518.616 547.011C514.77 546.768 511.06 545.497 507.874 543.33C504.941 541.302 502.428 538.726 500.474 535.743C497.265 530.684 494.878 525.148 493.401 519.342C492.383 515.451 491.642 511.494 491.185 507.498C491.009 506.083 490.909 504.994 490.834 504.243C490.834 503.892 490.834 503.617 490.834 503.392V503.091C490.873 503.183 490.899 503.28 490.909 503.379L491.034 504.218C491.147 505.019 491.297 506.096 491.498 507.461C492.052 511.427 492.859 515.354 493.914 519.217C495.432 524.951 497.835 530.413 501.038 535.405C502.96 538.312 505.42 540.823 508.287 542.804C511.384 544.899 514.985 546.126 518.716 546.36C520.594 546.47 522.476 546.245 524.275 545.697C526.009 545.107 527.656 544.286 529.17 543.255C533.385 540.342 536.779 536.393 539.023 531.787C539.737 530.372 540.351 528.957 540.914 527.593C541.922 525.026 542.759 522.395 543.418 519.718C544.39 515.834 545.126 511.896 545.621 507.924L546.035 504.681L546.16 503.83C546.137 503.726 546.121 503.622 546.11 503.517Z" fill="#263238"/>
<path d="M561.584 503.066C561.76 503.066 565.09 521.082 569.021 543.368C572.953 565.653 575.995 583.757 575.82 583.795C575.644 583.832 572.314 565.779 568.383 543.48C564.452 521.182 561.397 503.103 561.584 503.066Z" fill="#263238"/>
<path d="M111.741 139.974L104.705 127.579C109.037 120.51 110.569 112.077 109 103.936C107.431 95.795 102.875 88.5352 96.2255 83.5829C89.5764 78.6307 81.3156 76.344 73.0664 77.1724C64.8171 78.0007 57.1759 81.8841 51.6442 88.0595C46.1124 94.2349 43.0901 102.256 43.171 110.546C43.252 118.836 46.4304 126.797 52.0817 132.863C57.733 138.929 65.4486 142.663 73.7125 143.33C81.9763 143.997 90.1908 141.549 96.742 136.468L111.741 139.974Z" fill="white"/>
<path d="M111.741 139.974L96.717 136.543H96.5668L96.667 136.418L96.8172 136.568C92.2044 140.181 86.7112 142.498 80.9043 143.279C79.1628 143.524 77.4033 143.616 75.6459 143.554C74.7444 143.554 73.8305 143.479 72.904 143.404L70.112 142.916C61.762 141.273 54.3497 136.515 49.3789 129.607C46.6153 125.783 44.7028 121.412 43.7699 116.787C42.805 111.898 42.9375 106.857 44.1581 102.026C45.4111 96.9764 47.8488 92.2984 51.2694 88.3788L52.584 86.8889C53.0347 86.3881 53.5606 85.9749 54.0489 85.5117C54.5371 85.0485 55.0129 84.5852 55.5513 84.2597L57.1413 83.0077C57.6828 82.6054 58.2518 82.2415 58.844 81.9185L60.5217 80.9043L62.287 80.0405C62.8631 79.7418 63.4568 79.4784 64.0649 79.2517C68.7686 77.3911 73.8306 76.6124 78.876 76.9731C83.6666 77.294 88.3269 78.6707 92.5228 81.0045C100.075 85.1997 105.723 92.1393 108.298 100.385C109.328 103.888 109.814 107.528 109.738 111.178C109.648 114.345 109.1 117.482 108.11 120.493C107.286 122.992 106.172 125.387 104.792 127.629V127.529C109.225 135.467 111.378 139.348 111.741 139.974L104.617 127.629V127.566C107.635 122.634 109.301 116.995 109.45 111.215C109.505 107.598 109.011 103.993 107.985 100.523C105.424 92.3745 99.8306 85.5213 92.3601 81.3801C88.2156 79.0672 83.611 77.6991 78.876 77.3737C73.8727 77.0173 68.8533 77.7918 64.1901 79.6398C63.5861 79.8665 62.9966 80.1299 62.4247 80.4286L60.6845 81.2674L59.0318 82.2815C58.4605 82.595 57.9162 82.9551 57.4042 83.3583L55.8267 84.5351C55.2883 84.9107 54.8376 85.399 54.3368 85.7871C53.836 86.1753 53.3352 86.651 52.897 87.1518L51.5699 88.6167C48.1916 92.4872 45.7801 97.1042 44.5337 102.088C43.3319 106.862 43.1993 111.843 44.1455 116.674C45.0645 121.242 46.9468 125.561 49.6669 129.344C54.5619 136.186 61.8672 140.919 70.112 142.59L72.8789 143.016C73.8054 143.091 74.7069 143.116 75.6083 143.166C77.348 143.24 79.0908 143.16 80.8166 142.928C83.9288 142.524 86.9679 141.681 89.8436 140.424C92.2599 139.347 94.5415 137.989 96.6419 136.38L97.2804 135.892L96.7921 136.531V136.368L111.741 139.974Z" fill="#263238"/>
<path d="M78.4001 120.317V124.073H75.6958V120.355C72.7847 120.279 69.9649 119.323 67.6079 117.613L69.0853 114.283C71.008 115.725 73.3 116.593 75.6958 116.787V110.176C72.0275 109.287 68.0962 108.098 68.0962 103.503C68.0962 100.135 70.6002 97.2428 75.6958 96.7045V92.9485H78.4001V96.6544C80.7806 96.7406 83.0994 97.4345 85.1359 98.6701L83.7837 102C82.1384 101.016 80.3041 100.388 78.4001 100.16V106.833C82.0685 107.722 86.0624 108.886 86.0624 113.469C86.0624 116.887 83.5834 119.791 78.4001 120.317ZM75.6958 106.195V100.31C73.3546 100.673 72.3655 101.863 72.3655 103.315C72.3655 104.767 73.7803 105.631 75.6958 106.195ZM81.8306 113.819C81.8306 112.204 80.3783 111.441 78.4001 110.877V116.724C80.8165 116.361 81.8306 115.184 81.8306 113.819Z" fill="#263238"/>
<path d="M464.768 80.1155L444.711 63.1384L424.666 80.1155L404.621 63.1384L384.577 80.1155L364.545 63.1384L344.5 80.1155L324.456 63.1384L304.424 80.1155L284.367 63.1384L264.335 80.1155L244.29 63.1384L224.258 80.1155L204.214 63.1384V81.2298V90.382V556.239V558.267V583.482L224.271 566.505L244.328 583.482L264.372 566.505L284.417 583.482L304.461 566.505L324.493 583.482L344.538 566.505L364.583 583.482L384.627 566.505L404.672 583.482L424.704 566.505L444.748 583.482L464.78 566.505L484.825 583.482V565.403V558.267V556.239V90.382V81.2298V63.1384L464.768 80.1155Z" fill="#FAFAFA"/>
<path d="M464.767 80.1281L484.799 63.0884L484.925 62.9882V63.151C484.925 126.49 485.037 321.877 485.15 583.495V584.146L484.662 583.72L464.63 566.755H465.018L444.986 583.733L444.786 583.895L444.585 583.733L424.553 566.755H424.954L404.922 583.733L404.722 583.908L404.509 583.733L384.477 566.755H384.89L364.858 583.745L364.658 583.92L364.457 583.745L344.425 566.768H344.838L324.806 583.745L324.594 583.92L324.393 583.745L304.361 566.768H304.787L284.755 583.745L284.542 583.92L284.329 583.745L264.297 566.768H264.723L244.691 583.745L244.478 583.92L244.265 583.745L224.108 566.781H224.534L204.502 583.758L203.963 584.208V583.432C203.963 384.452 203.963 202.323 204.038 63.0884V62.6001L204.452 62.9507L224.484 79.9403H224.108L244.14 62.9632L244.29 62.838L244.453 62.9632C251.677 69.098 258.15 74.5943 264.485 79.9528H264.172L284.204 62.9757L284.342 62.8505L284.492 62.9757L304.524 79.9528H304.236L324.268 62.9882L324.393 62.8755L324.518 62.9882L344.55 79.9779H344.325L364.357 63.0133L364.47 62.9131L364.57 63.0133L384.602 80.0029H384.414L404.446 63.0383L404.534 62.9632L404.621 63.0383L424.653 80.0279H424.516L444.548 63.0759L464.58 80.1156L444.66 63.1885H444.761L424.729 80.1907H424.653H424.591L404.559 63.2386H404.734L384.702 80.2283L384.602 80.3159L384.514 80.2283L364.482 63.2637H364.695L344.663 80.2533L344.55 80.3535L344.438 80.2533L324.406 63.2887H324.656L304.624 80.2783L304.486 80.391L304.361 80.2783L284.204 63.3012H284.492L264.46 80.2909L264.31 80.4161L264.16 80.2909L244.14 63.3137H244.453L224.421 80.3034L224.271 80.4411L224.108 80.3034L204.076 63.3263L204.489 63.1385C204.489 202.373 204.489 384.502 204.564 583.482L204.026 583.232L224.058 566.255L224.271 566.079L224.484 566.255L244.516 583.207H244.14L264.172 566.23L264.385 566.054L264.598 566.23C271.471 572.064 278.37 577.873 284.63 583.207H284.204L304.236 566.23L304.449 566.054L304.662 566.23L324.694 583.219H324.268C331.167 577.36 338.04 571.538 344.3 566.242L344.5 566.067L344.713 566.242L364.745 583.219H364.332L384.364 566.242L384.577 566.067L384.777 566.242L404.809 583.219H404.409L424.441 566.242L424.641 566.079L424.841 566.242L444.873 583.219H444.473L464.505 566.255L464.692 566.079L464.893 566.255L484.925 583.232L484.424 583.457C484.537 321.789 484.624 126.477 484.649 63.1134H484.774L464.767 80.1281Z" fill="#263238"/>
<path d="M321.488 133.413L319.51 130.571H317.332V133.413H314.978V123.197H319.398C322.127 123.197 323.83 124.612 323.83 126.953C323.857 127.643 323.67 128.325 323.293 128.903C322.916 129.482 322.369 129.929 321.726 130.183L324.017 133.463L321.488 133.413ZM319.26 125.125H317.332V128.681H319.26C320.712 128.681 321.438 128.017 321.438 126.903C321.438 125.789 320.712 125.125 319.26 125.125Z" fill="#263238"/>
<path d="M333.621 131.46V133.363H325.708V123.197H333.42V125.1H328.024V127.316H332.769V129.157H328.024V131.46H333.621Z" fill="#263238"/>
<path d="M334.835 128.305C334.903 127.206 335.292 126.151 335.954 125.271C336.616 124.391 337.523 123.725 338.56 123.355C339.598 122.986 340.721 122.929 341.79 123.193C342.86 123.456 343.828 124.028 344.575 124.837L343.048 126.227C342.734 125.852 342.341 125.552 341.897 125.346C341.454 125.14 340.97 125.035 340.481 125.037C340.052 125.037 339.627 125.122 339.231 125.286C338.834 125.45 338.474 125.691 338.171 125.994C337.867 126.298 337.627 126.658 337.462 127.055C337.298 127.451 337.214 127.876 337.214 128.305C337.214 128.734 337.298 129.159 337.462 129.556C337.627 129.952 337.867 130.312 338.171 130.616C338.474 130.919 338.834 131.16 339.231 131.324C339.627 131.488 340.052 131.573 340.481 131.573C340.976 131.575 341.465 131.463 341.91 131.246C342.356 131.029 342.745 130.712 343.048 130.321L344.563 131.723C343.819 132.537 342.851 133.114 341.781 133.382C340.711 133.649 339.586 133.595 338.546 133.226C337.507 132.857 336.599 132.19 335.937 131.308C335.274 130.426 334.887 129.369 334.822 128.268L334.835 128.305Z" fill="#263238"/>
<path d="M354.078 131.46V133.363H346.178V123.197H353.891V125.1H348.519V127.316H353.265V129.157H348.519V131.46H354.078Z" fill="#263238"/>
<path d="M355.969 123.197H358.335V133.413H355.969V123.197Z" fill="#263238"/>
<path d="M369.616 126.903C369.616 129.182 367.913 130.659 365.183 130.659H363.08V133.476H360.714V123.197H365.146C367.913 123.197 369.616 124.612 369.616 126.903ZM367.224 126.903C367.224 125.776 366.498 125.125 365.046 125.125H363.08V128.668H365.008C366.498 128.668 367.224 128.017 367.224 126.903Z" fill="#263238"/>
<path d="M373.096 125.125H369.828V123.197H378.73V125.125H375.462V133.413H373.096V125.125Z" fill="#263238"/>
<path d="M484.825 110.176C484.825 110.351 421.999 110.502 344.525 110.502C267.052 110.502 204.214 110.376 204.214 110.176C204.214 109.976 267.027 109.851 344.525 109.851C422.024 109.851 484.825 110.013 484.825 110.176Z" fill="#263238"/>
<path d="M484.825 146.334C484.825 146.509 421.999 146.659 344.525 146.659C267.052 146.659 204.214 146.509 204.214 146.334C204.214 146.159 267.027 146.008 344.525 146.008C422.024 146.008 484.825 146.159 484.825 146.334Z" fill="#263238"/>
<path d="M305.889 164.626C305.889 164.801 288.787 164.951 267.69 164.951C246.594 164.951 229.467 164.801 229.467 164.626C229.467 164.45 246.582 164.3 267.69 164.3C288.799 164.3 305.889 164.45 305.889 164.626Z" fill="#263238"/>
<path d="M211.438 184.495C211.438 184.67 210.736 184.82 209.873 184.82C209.009 184.82 208.308 184.67 208.308 184.495C208.308 184.319 209.009 184.169 209.873 184.169C210.736 184.169 211.438 184.319 211.438 184.495Z" fill="#263238"/>
<path d="M224.008 184.495C221.944 184.925 219.813 184.925 217.748 184.495C219.813 184.065 221.944 184.065 224.008 184.495Z" fill="#263238"/>
<path d="M236.628 184.495C234.564 184.925 232.433 184.925 230.368 184.495C232.433 184.065 234.564 184.065 236.628 184.495Z" fill="#263238"/>
<path d="M249.148 184.495C247.084 184.925 244.953 184.925 242.888 184.495C244.953 184.065 247.084 184.065 249.148 184.495Z" fill="#263238"/>
<path d="M261.668 184.495C259.604 184.925 257.473 184.925 255.408 184.495C257.473 184.065 259.604 184.065 261.668 184.495Z" fill="#263238"/>
<path d="M274.288 184.495C272.224 184.925 270.093 184.925 268.028 184.495C270.093 184.065 272.224 184.065 274.288 184.495Z" fill="#263238"/>
<path d="M286.858 184.495C284.794 184.925 282.663 184.925 280.598 184.495C282.663 184.065 284.794 184.065 286.858 184.495Z" fill="#263238"/>
<path d="M299.428 184.495C297.364 184.925 295.233 184.925 293.168 184.495C295.233 184.065 297.364 184.065 299.428 184.495Z" fill="#263238"/>
<path d="M311.998 184.495C309.934 184.925 307.803 184.925 305.738 184.495C307.803 184.065 309.934 184.065 311.998 184.495Z" fill="#263238"/>
<path d="M324.569 184.495C322.504 184.925 320.373 184.925 318.309 184.495C320.373 184.065 322.504 184.065 324.569 184.495Z" fill="#263238"/>
<path d="M337.138 184.495C335.074 184.925 332.943 184.925 330.878 184.495C332.943 184.065 335.074 184.065 337.138 184.495Z" fill="#263238"/>
<path d="M349.709 184.495C347.644 184.925 345.513 184.925 343.449 184.495C345.513 184.065 347.644 184.065 349.709 184.495Z" fill="#263238"/>
<path d="M362.279 184.495C360.214 184.925 358.083 184.925 356.019 184.495C358.083 184.065 360.214 184.065 362.279 184.495Z" fill="#263238"/>
<path d="M374.849 184.495C372.784 184.925 370.653 184.925 368.589 184.495C370.653 184.065 372.784 184.065 374.849 184.495Z" fill="#263238"/>
<path d="M387.419 184.495C385.355 184.925 383.224 184.925 381.159 184.495C383.224 184.065 385.355 184.065 387.419 184.495Z" fill="#263238"/>
<path d="M399.989 184.495C397.925 184.925 395.793 184.925 393.729 184.495C395.793 184.065 397.925 184.065 399.989 184.495Z" fill="#263238"/>
<path d="M412.559 184.495C410.495 184.925 408.364 184.925 406.299 184.495C408.364 184.065 410.495 184.065 412.559 184.495Z" fill="#263238"/>
<path d="M425.129 184.495C423.065 184.925 420.934 184.925 418.869 184.495C420.934 184.065 423.065 184.065 425.129 184.495Z" fill="#263238"/>
<path d="M437.699 184.495C435.635 184.925 433.504 184.925 431.439 184.495C433.504 184.065 435.635 184.065 437.699 184.495Z" fill="#263238"/>
<path d="M450.269 184.495C448.205 184.925 446.074 184.925 444.009 184.495C446.074 184.065 448.205 184.065 450.269 184.495Z" fill="#263238"/>
<path d="M462.84 184.495C460.775 184.925 458.644 184.925 456.58 184.495C458.644 184.065 460.775 184.065 462.84 184.495Z" fill="#263238"/>
<path d="M475.409 184.495C473.345 184.925 471.214 184.925 469.149 184.495C471.214 184.065 473.345 184.065 475.409 184.495Z" fill="#263238"/>
<path d="M483.259 184.82C484.124 184.82 484.824 184.674 484.824 184.495C484.824 184.315 484.124 184.169 483.259 184.169C482.395 184.169 481.694 184.315 481.694 184.495C481.694 184.674 482.395 184.82 483.259 184.82Z" fill="#263238"/>
<path d="M229.517 213.153V225.035H227.301V215.019H224.797V213.166L229.517 213.153Z" fill="#263238"/>
<path d="M238.293 225.035L235.965 221.892L233.623 225.035H231.27L234.813 220.44L231.432 215.97H233.786L236.015 218.937L238.243 215.97H240.534L237.129 220.352L240.685 224.985L238.293 225.035Z" fill="#263238"/>
<path d="M234.512 249.536V251.402H225.748V249.924L230.468 245.442C231.62 244.34 231.821 243.639 231.821 242.938C231.821 241.861 231.082 241.223 229.617 241.223C229.088 241.199 228.561 241.3 228.078 241.518C227.595 241.735 227.17 242.063 226.838 242.475L225.285 241.285C225.833 240.628 226.527 240.108 227.312 239.766C228.097 239.425 228.95 239.272 229.805 239.32C232.384 239.32 234.049 240.572 234.049 242.738C234.049 243.89 233.724 244.941 232.084 246.494L228.903 249.524L234.512 249.536Z" fill="#263238"/>
<path d="M242.112 251.402L239.783 248.259L237.442 251.402H235.101L238.631 246.807L235.251 242.337H237.617L239.846 245.304L242.062 242.337H244.353L240.96 246.769L244.516 251.402H242.112Z" fill="#263238"/>
<path d="M230.005 264.886V276.767H227.864V266.751H225.36V264.898L230.005 264.886Z" fill="#263238"/>
<path d="M238.781 276.767L236.465 273.625L234.124 276.767H231.783L235.313 272.172L231.933 267.703H234.299L236.528 270.67L238.744 267.703H241.048L237.642 272.135L241.198 276.767H238.781Z" fill="#263238"/>
<path d="M230.005 293.231V305.125H227.864V295.109H225.36V293.256L230.005 293.231Z" fill="#263238"/>
<path d="M238.781 305.125L236.465 301.983L234.124 305.125H231.783L235.313 300.518L231.933 296.061H234.299L236.528 299.028L238.744 296.061H241.048L237.63 300.48L241.185 305.113L238.781 305.125Z" fill="#263238"/>
<path d="M228.39 334.773H224.722V333.032H234.124V334.773H230.456V344.112H228.39V334.773Z" fill="#263238"/>
<path d="M234.725 338.566C234.673 337.375 234.978 336.196 235.601 335.18C236.225 334.164 237.138 333.357 238.224 332.865C239.309 332.372 240.517 332.216 241.693 332.416C242.868 332.615 243.956 333.162 244.818 333.986C245.68 334.81 246.275 335.873 246.528 337.038C246.78 338.203 246.678 339.417 246.235 340.524C245.792 341.63 245.028 342.579 244.041 343.247C243.054 343.916 241.889 344.274 240.697 344.275C239.924 344.316 239.151 344.199 238.425 343.93C237.7 343.661 237.037 343.246 236.477 342.711C235.918 342.176 235.474 341.533 235.172 340.82C234.871 340.107 234.719 339.34 234.725 338.566ZM244.591 338.566C244.591 337.796 244.362 337.043 243.935 336.403C243.507 335.762 242.899 335.263 242.187 334.969C241.476 334.674 240.693 334.597 239.937 334.747C239.182 334.897 238.488 335.268 237.944 335.813C237.399 336.357 237.028 337.051 236.878 337.806C236.728 338.562 236.805 339.345 237.1 340.056C237.394 340.768 237.894 341.376 238.534 341.803C239.174 342.231 239.927 342.46 240.697 342.46C241.214 342.479 241.729 342.392 242.21 342.203C242.691 342.014 243.128 341.728 243.493 341.362C243.859 340.997 244.145 340.56 244.334 340.079C244.523 339.597 244.61 339.083 244.591 338.566Z" fill="#263238"/>
<path d="M250.938 334.773H247.27V333.032H256.66V334.773H252.992V344.112H250.926L250.938 334.773Z" fill="#263238"/>
<path d="M264.861 341.546H259.314L258.225 344.112H256.097L261.105 333.032H263.133L268.141 344.112H265.987L264.861 341.546ZM264.185 339.931L262.094 335.086L260.015 339.931H264.185Z" fill="#263238"/>
<path d="M269.531 333.032H271.584V342.372H277.381V344.112H269.531V333.032Z" fill="#263238"/>
<path d="M225.36 361.039C225.418 359.868 225.818 358.739 226.511 357.793C227.204 356.846 228.159 356.124 229.258 355.715C230.358 355.306 231.553 355.228 232.696 355.491C233.839 355.754 234.88 356.347 235.689 357.196L234.362 358.448C233.986 358.039 233.526 357.715 233.014 357.499C232.502 357.283 231.95 357.18 231.395 357.196C230.362 357.196 229.372 357.606 228.642 358.336C227.911 359.066 227.501 360.057 227.501 361.089C227.501 362.122 227.911 363.112 228.642 363.843C229.372 364.573 230.362 364.983 231.395 364.983C231.955 364.993 232.511 364.88 233.023 364.653C233.536 364.426 233.993 364.09 234.362 363.668L235.689 364.92C235.138 365.538 234.457 366.025 233.695 366.348C232.933 366.671 232.109 366.82 231.282 366.786C230.51 366.822 229.738 366.699 229.015 366.426C228.292 366.152 227.632 365.733 227.077 365.194C226.523 364.656 226.084 364.009 225.788 363.295C225.493 362.58 225.347 361.812 225.36 361.039Z" fill="#263238"/>
<path d="M244.603 364.019H239.132L238.03 366.586H235.915L240.923 355.493H242.888L247.896 366.586H245.743L244.603 364.019ZM243.927 362.404L241.837 357.559L239.758 362.404H243.927Z" fill="#263238"/>
<path d="M248.347 365.409L249.06 363.806C250.112 364.607 251.395 365.046 252.716 365.058C254.444 365.058 255.22 364.432 255.22 363.619C255.22 361.227 248.635 362.792 248.635 358.611C248.635 356.82 250.062 355.305 253.092 355.305C254.389 355.285 255.667 355.623 256.785 356.282L256.134 357.884C255.211 357.328 254.157 357.026 253.079 357.008C251.377 357.008 250.675 357.672 250.675 358.523C250.675 360.877 257.248 359.337 257.248 363.406C257.248 365.184 255.809 366.711 252.766 366.711C251.19 366.777 249.636 366.319 248.347 365.409Z" fill="#263238"/>
<path d="M269.092 355.493V366.586H267.027V361.828H261.293V366.586H259.239V355.493H261.293V360.075H267.027V355.493H269.092Z" fill="#263238"/>
<path d="M225.36 383.225C225.415 382.052 225.814 380.922 226.506 379.974C227.198 379.025 228.153 378.301 229.253 377.89C230.352 377.48 231.548 377.401 232.693 377.664C233.837 377.927 234.878 378.519 235.689 379.369L234.362 380.621C233.984 380.214 233.524 379.892 233.013 379.676C232.501 379.46 231.95 379.355 231.395 379.369C230.362 379.369 229.371 379.779 228.641 380.509C227.911 381.239 227.501 382.23 227.501 383.262C227.501 384.295 227.911 385.285 228.641 386.016C229.371 386.746 230.362 387.156 231.395 387.156C231.955 387.166 232.511 387.053 233.023 386.826C233.536 386.599 233.992 386.263 234.362 385.841L235.689 387.093C234.879 387.942 233.838 388.535 232.695 388.798C231.552 389.061 230.357 388.984 229.258 388.574C228.159 388.165 227.204 387.443 226.511 386.497C225.818 385.55 225.418 384.421 225.36 383.25V383.225Z" fill="#263238"/>
<path d="M247.508 377.678V388.771H245.392V384.014H239.658V388.771H237.604V377.678H239.658V382.261H245.392V377.678H247.508Z" fill="#263238"/>
<path d="M257.674 386.204H252.128L251.039 388.708H248.91L253.918 377.616H255.946L260.954 388.708H258.801L257.674 386.204ZM256.986 384.589L254.895 379.744L252.829 384.589H256.986Z" fill="#263238"/>
<path d="M272.197 377.678V388.771H270.495L264.385 381.259V388.771H262.344V377.678H264.034L270.144 385.19V377.678H272.197Z" fill="#263238"/>
<path d="M282.739 383.112H284.68V387.532C283.431 388.466 281.907 388.96 280.348 388.934C279.577 388.97 278.806 388.849 278.083 388.579C277.359 388.309 276.698 387.895 276.139 387.361C275.581 386.828 275.136 386.187 274.832 385.477C274.528 384.768 274.372 384.003 274.372 383.231C274.372 382.459 274.528 381.695 274.832 380.985C275.136 380.275 275.581 379.634 276.139 379.101C276.698 378.568 277.359 378.153 278.083 377.883C278.806 377.613 279.577 377.492 280.348 377.528C281.183 377.489 282.017 377.631 282.791 377.947C283.565 378.263 284.261 378.744 284.83 379.356L283.578 380.608C283.185 380.198 282.71 379.874 282.183 379.658C281.657 379.443 281.092 379.34 280.523 379.356C279.491 379.356 278.5 379.766 277.77 380.497C277.04 381.227 276.63 382.217 276.63 383.25C276.63 384.283 277.04 385.273 277.77 386.003C278.5 386.733 279.491 387.144 280.523 387.144C281.319 387.156 282.104 386.962 282.802 386.58L282.739 383.112Z" fill="#263238"/>
<path d="M295.71 387.043V388.771H287.396V377.678H295.472V379.356H289.437V382.236H294.796V383.938H289.437V386.993L295.71 387.043Z" fill="#263238"/>
<path d="M481.532 430.037C481.532 430.225 420.359 430.362 344.926 430.362C269.493 430.362 208.308 430.225 208.308 430.037C208.308 429.849 269.468 429.711 344.926 429.711C420.384 429.711 481.532 429.862 481.532 430.037Z" fill="#263238"/>
<path d="M481.532 473.444C481.532 473.619 421.135 473.769 346.641 473.769C272.147 473.769 211.738 473.619 211.738 473.444C211.738 473.269 272.122 473.118 346.641 473.118C421.16 473.118 481.532 473.256 481.532 473.444Z" fill="#263238"/>
<path d="M292.968 448.504H289.212V446.313H299.328V448.504H295.572V457.932H292.968V448.504Z" fill="#263238"/>
<path d="M311.435 446.313V457.932H308.743V453.224H303.46V457.982H300.781V446.363H303.46V450.945H308.743V446.363L311.435 446.313Z" fill="#263238"/>
<path d="M321.839 455.44H316.443L315.417 457.944H312.662L317.833 446.326H320.512L325.708 457.944H322.891L321.839 455.44ZM320.988 453.4L319.147 448.955L317.307 453.4H320.988Z" fill="#263238"/>
<path d="M337.552 446.313V457.932H335.348L329.552 450.883V457.932H326.897V446.313H329.126L334.898 453.374V446.313H337.552Z" fill="#263238"/>
<path d="M344.538 453.374L342.973 455.002V457.932H340.306V446.313H342.973V451.747L348.131 446.313H351.111L346.303 451.496L351.399 457.932H348.256L344.538 453.374Z" fill="#263238"/>
<path d="M362.867 453.825V457.931H360.175V453.787L355.668 446.275H358.523L361.628 451.446L364.732 446.275H367.374L362.867 453.825Z" fill="#263238"/>
<path d="M367.274 452.122C367.201 450.848 367.513 449.582 368.168 448.487C368.823 447.392 369.792 446.519 370.949 445.981C372.106 445.443 373.397 445.264 374.657 445.469C375.916 445.673 377.086 446.251 378.013 447.127C378.94 448.003 379.583 449.138 379.859 450.384C380.134 451.63 380.029 452.93 379.557 454.115C379.086 455.301 378.269 456.318 377.213 457.034C376.157 457.75 374.91 458.132 373.634 458.132C372.816 458.18 371.997 458.06 371.227 457.779C370.457 457.499 369.752 457.064 369.156 456.501C368.561 455.938 368.086 455.259 367.763 454.506C367.439 453.753 367.273 452.942 367.274 452.122ZM377.29 452.122C377.265 451.41 377.032 450.721 376.618 450.14C376.205 449.56 375.629 449.114 374.964 448.858C374.299 448.603 373.573 448.548 372.877 448.702C372.181 448.856 371.546 449.212 371.051 449.724C370.556 450.236 370.222 450.883 370.092 451.584C369.961 452.285 370.04 453.008 370.318 453.664C370.597 454.32 371.062 454.88 371.656 455.274C372.25 455.668 372.947 455.878 373.659 455.878C374.148 455.888 374.634 455.796 375.086 455.609C375.537 455.421 375.946 455.142 376.284 454.79C376.623 454.437 376.885 454.018 377.054 453.559C377.223 453.1 377.294 452.61 377.265 452.122H377.29Z" fill="#263238"/>
<path d="M381.86 452.823V446.313H384.552V452.723C384.552 454.927 385.516 455.841 387.143 455.841C388.771 455.841 389.735 454.927 389.735 452.723V446.313H392.389V452.823C392.389 456.241 390.424 458.132 387.118 458.132C383.813 458.132 381.86 456.241 381.86 452.823Z" fill="#263238"/>
<path d="M394.53 456.554C394.53 456.133 394.698 455.728 394.996 455.43C395.294 455.132 395.699 454.964 396.12 454.964C396.542 454.964 396.946 455.132 397.245 455.43C397.543 455.728 397.71 456.133 397.71 456.554C397.71 456.976 397.543 457.38 397.245 457.679C396.946 457.977 396.542 458.144 396.12 458.144C395.699 458.144 395.294 457.977 394.996 457.679C394.698 457.38 394.53 456.976 394.53 456.554ZM394.53 446.313H397.61L397.097 453.9H395.044L394.53 446.313Z" fill="#263238"/>
<path d="M262.695 490.521H260.153V542.241H262.695V490.521Z" fill="#263238"/>
<path d="M269.869 490.521H264.598V542.241H269.869V490.521Z" fill="#263238"/>
<path d="M273.775 490.521H272.36V542.241H273.775V490.521Z" fill="#263238"/>
<path d="M315.178 490.521H313.764V542.241H315.178V490.521Z" fill="#263238"/>
<path d="M283.803 490.521H282.389V542.241H283.803V490.521Z" fill="#263238"/>
<path d="M294.545 490.521H293.844V542.241H294.545V490.521Z" fill="#263238"/>
<path d="M301.106 490.521H300.405V542.241H301.106V490.521Z" fill="#263238"/>
<path d="M336.638 490.521H335.937V542.241H336.638V490.521Z" fill="#263238"/>
<path d="M333.958 490.521H333.257V542.241H333.958V490.521Z" fill="#263238"/>
<path d="M319.122 490.521H318.421V542.241H319.122V490.521Z" fill="#263238"/>
<path d="M278.382 490.521H276.028V542.241H278.382V490.521Z" fill="#263238"/>
<path d="M299.128 490.521H296.774V542.241H299.128V490.521Z" fill="#263238"/>
<path d="M349.133 490.521H346.779V542.241H349.133V490.521Z" fill="#263238"/>
<path d="M305.163 490.521H303.322V542.241H305.163V490.521Z" fill="#263238"/>
<path d="M342.885 490.521H341.045V542.241H342.885V490.521Z" fill="#263238"/>
<path d="M325.282 490.521H323.442V542.241H325.282V490.521Z" fill="#263238"/>
<path d="M309.357 490.521H307.516V542.241H309.357V490.521Z" fill="#263238"/>
<path d="M291.428 490.521H286.846V542.241H291.428V490.521Z" fill="#263238"/>
<path d="M356.419 490.521H351.837V542.241H356.419V490.521Z" fill="#263238"/>
<path d="M424.578 542.241H427.12V490.521H424.578V542.241Z" fill="#263238"/>
<path d="M417.392 542.241H422.663V490.521H417.392V542.241Z" fill="#263238"/>
<path d="M413.486 542.241H414.9V490.521H413.486V542.241Z" fill="#263238"/>
<path d="M372.082 542.241H373.497V490.521H372.082V542.241Z" fill="#263238"/>
<path d="M403.457 542.241H404.872V490.521H403.457V542.241Z" fill="#263238"/>
<path d="M392.728 542.241H393.429V490.521H392.728V542.241Z" fill="#263238"/>
<path d="M386.167 542.241H386.868V490.521H386.167V542.241Z" fill="#263238"/>
<path d="M368.138 542.241H368.839V490.521H368.138V542.241Z" fill="#263238"/>
<path d="M408.878 542.241H411.232V490.521H408.878V542.241Z" fill="#263238"/>
<path d="M388.145 542.241H390.499V490.521H388.145V542.241Z" fill="#263238"/>
<path d="M382.11 542.241H383.951V490.521H382.11V542.241Z" fill="#263238"/>
<path d="M361.978 542.241H363.819V490.521H361.978V542.241Z" fill="#263238"/>
<path d="M377.904 542.241H379.744V490.521H377.904V542.241Z" fill="#263238"/>
<path d="M395.845 542.241H400.427V490.521H395.845V542.241Z" fill="#263238"/>
<path d="M311.585 221.98C311.585 222.167 297.676 222.305 280.523 222.305C263.371 222.305 249.449 222.167 249.449 221.98C249.449 221.792 263.358 221.654 280.523 221.654C297.688 221.654 311.585 221.804 311.585 221.98Z" fill="#263238"/>
<path d="M350.66 248.034C350.66 248.209 328.412 248.359 300.993 248.359C273.575 248.359 251.314 248.209 251.314 248.034C251.314 247.858 273.549 247.708 300.993 247.708C328.437 247.708 350.66 247.896 350.66 248.034Z" fill="#263238"/>
<path d="M314.941 274.076C314.941 274.251 300.693 274.401 283.127 274.401C265.562 274.401 251.314 274.251 251.314 274.076C251.314 273.9 265.549 273.75 283.127 273.75C300.705 273.75 314.941 273.9 314.941 274.076Z" fill="#263238"/>
<path d="M308.242 301.607C308.242 301.782 297.412 301.932 284.054 301.932C270.695 301.932 259.877 301.782 259.877 301.607C259.877 301.431 270.695 301.281 284.054 301.281C297.412 301.281 308.242 301.431 308.242 301.607Z" fill="#263238"/>
<path d="M458 301.5C458 301.769 453.074 302 446.998 302C440.921 302 436 301.769 436 301.5C436 301.231 440.921 301 446.998 301C453.074 301 458 301.231 458 301.5Z" fill="#263238"/>
<path d="M458 274.5C458 274.769 453.074 275 446.998 275C440.921 275 436 274.769 436 274.5C436 274.231 440.921 274 446.998 274C453.074 274 458 274.231 458 274.5Z" fill="#263238"/>
<path d="M458 247.5C458 247.769 453.074 248 446.998 248C440.921 248 436 247.769 436 247.5C436 247.231 440.921 247 446.998 247C453.074 247 458 247.231 458 247.5Z" fill="#263238"/>
<path d="M458 220.5C458 220.769 453.074 221 446.998 221C440.921 221 436 220.769 436 220.5C436 220.231 440.921 220 446.998 220C453.074 220 458 220.231 458 220.5Z" fill="#263238"/>
<path d="M458 383.5C458 383.769 453.074 384 446.998 384C440.921 384 436 383.769 436 383.5C436 383.231 440.921 383 446.998 383C453.074 383 458 383.231 458 383.5Z" fill="#263238"/>
<path d="M458 360.5C458 360.769 453.074 361 446.998 361C440.921 361 436 360.769 436 360.5C436 360.231 440.921 360 446.998 360C453.074 360 458 360.231 458 360.5Z" fill="#263238"/>
<path d="M458 337.5C458 337.769 453.074 338 446.998 338C440.921 338 436 337.769 436 337.5C436 337.231 440.921 337 446.998 337C453.074 337 458 337.231 458 337.5Z" fill="#263238"/>
<path d="M185.521 137.207C187.959 139.687 189.761 142.719 190.775 146.045C191.789 149.372 191.984 152.894 191.343 156.312C190.692 159.617 189.327 163.311 191.193 166.115C193.058 168.92 197.265 169.308 199.018 172.15C201.084 175.48 198.517 179.787 198.943 183.693C199.197 185.519 200.093 187.195 201.469 188.422C202.845 189.649 204.612 190.347 206.455 190.392C201.75 193.369 196.321 195.001 190.755 195.112C189.578 193.158 188.397 191.205 187.211 189.252C188.576 191.318 187.8 194.26 186.047 196C184.158 197.625 181.833 198.657 179.361 198.968C173.535 200.035 167.541 199.745 161.845 198.118C156.149 196.492 150.906 193.574 146.521 189.59" fill="#263238"/>
<path d="M119.365 159.292C120.505 156.788 122.182 154.634 123.121 152.068C124.987 146.559 122.984 139.873 126.326 135.103C128.705 131.71 133.075 130.433 137.144 129.682C141.213 128.931 145.557 128.43 148.837 125.926C151.229 124.061 152.794 121.294 155.185 119.416C158.603 116.749 163.235 116.261 167.555 116.499C172.022 116.598 176.39 117.844 180.237 120.117C182.142 121.274 183.749 122.863 184.927 124.755C186.106 126.647 186.824 128.789 187.023 131.009C187.123 133.175 186.598 135.379 187.023 137.495C187.499 139.836 189.052 141.789 189.903 144.03C190.736 146.415 190.753 149.009 189.95 151.405C189.148 153.8 187.572 155.861 185.471 157.264L150.615 192.783C143.98 194.436 128.918 189.716 124.561 184.445C120.204 179.174 116.498 165.502 119.365 159.292Z" fill="#263238"/>
<path d="M185.195 152.143C184.995 143.129 179.474 131.848 170.472 132.424L142.189 138.371C140.871 138.458 139.633 139.036 138.72 139.991C137.807 140.946 137.285 142.208 137.256 143.529L137.519 211.137H137.319C137.319 211.137 142.89 230.443 161.633 225.423C165.389 224.421 167.192 220.415 168.106 216.383H168.293C168.293 215.895 168.293 215.432 168.369 214.968C168.862 211.906 169.029 208.801 168.869 205.704C169.157 200.257 169.245 198.016 169.245 198.066C169.245 198.116 180.826 196.627 183.806 181.728C185.296 174.404 185.421 162.159 185.195 152.143Z" fill="#FFBE9D"/>
<path d="M162.221 163.173C162.202 163.675 161.989 164.149 161.627 164.497C161.265 164.845 160.783 165.039 160.281 165.039C160.035 165.049 159.79 165.009 159.559 164.923C159.329 164.837 159.118 164.705 158.94 164.536C158.761 164.366 158.618 164.163 158.519 163.938C158.421 163.712 158.368 163.469 158.365 163.223C158.385 162.722 158.598 162.247 158.96 161.899C159.321 161.551 159.804 161.357 160.306 161.358C160.551 161.349 160.796 161.39 161.026 161.477C161.255 161.564 161.465 161.696 161.643 161.865C161.822 162.034 161.965 162.236 162.064 162.461C162.163 162.686 162.217 162.928 162.221 163.173Z" fill="#263238"/>
<path d="M181.828 163.173C181.809 163.675 181.596 164.149 181.234 164.497C180.872 164.845 180.389 165.039 179.887 165.039C179.642 165.049 179.397 165.009 179.168 164.923C178.938 164.836 178.728 164.704 178.551 164.535C178.373 164.365 178.231 164.162 178.134 163.937C178.037 163.711 177.986 163.469 177.984 163.223C177.997 162.722 178.207 162.245 178.567 161.897C178.928 161.548 179.411 161.354 179.912 161.358C180.158 161.349 180.403 161.39 180.632 161.477C180.862 161.564 181.072 161.696 181.25 161.865C181.428 162.034 181.571 162.236 181.67 162.461C181.77 162.686 181.823 162.928 181.828 163.173Z" fill="#263238"/>
<path d="M183.055 158.678C182.804 159.004 181.164 157.677 178.911 157.739C176.657 157.802 175.042 159.154 174.792 158.841C174.541 158.528 174.904 158.115 175.605 157.489C176.521 156.705 177.68 156.263 178.886 156.237C180.093 156.218 181.268 156.626 182.203 157.389C182.917 157.965 183.18 158.541 183.055 158.678Z" fill="#263238"/>
<path d="M162.172 158.641C161.871 158.929 160.281 157.452 157.877 157.276C155.473 157.101 153.62 158.253 153.383 157.915C153.27 157.765 153.583 157.226 154.397 156.663C155.475 155.972 156.751 155.655 158.027 155.761C159.288 155.86 160.479 156.381 161.408 157.239C162.109 157.927 162.322 158.503 162.172 158.641Z" fill="#263238"/>
<path d="M168.807 173.615C169.913 173.313 171.053 173.153 172.2 173.139C172.726 173.139 173.239 173.026 173.339 172.663C173.402 172.12 173.302 171.571 173.051 171.086C172.601 169.834 172.137 168.419 171.649 166.992C169.709 161.182 168.331 156.4 168.569 156.325C168.807 156.25 170.56 160.907 172.5 166.729C172.964 168.156 173.414 169.521 173.828 170.835C174.136 171.483 174.207 172.219 174.028 172.914C173.942 173.096 173.817 173.257 173.661 173.385C173.505 173.513 173.322 173.604 173.126 173.652C172.831 173.721 172.528 173.75 172.225 173.74C171.085 173.841 169.937 173.799 168.807 173.615Z" fill="#263238"/>
<path d="M169.245 198.154C162.183 197.982 155.308 195.849 149.389 191.994C149.389 191.994 153.833 202.486 168.907 201.697L169.245 198.154Z" fill="#EB996E"/>
<path d="M167.768 178.56C167.393 178.052 166.895 177.647 166.322 177.382C165.749 177.118 165.118 177.002 164.488 177.045C164.029 177.067 163.58 177.182 163.167 177.382C162.754 177.582 162.385 177.864 162.084 178.21C161.783 178.547 161.596 178.97 161.548 179.419C161.501 179.869 161.597 180.322 161.821 180.714C162.137 181.099 162.561 181.381 163.038 181.523C163.516 181.666 164.025 181.663 164.5 181.515C165.494 181.211 166.417 180.713 167.217 180.05C167.454 179.89 167.661 179.691 167.831 179.462C167.907 179.347 167.948 179.212 167.948 179.074C167.948 178.935 167.907 178.8 167.831 178.685" fill="black"/>
<path d="M162.659 174.792C162.997 174.792 162.91 177.033 164.775 178.711C166.641 180.388 169.032 180.225 169.032 180.551C169.032 180.689 168.481 180.964 167.48 180.952C166.161 180.913 164.898 180.412 163.911 179.537C162.963 178.702 162.378 177.529 162.284 176.269C162.234 175.28 162.509 174.779 162.659 174.792Z" fill="#263238"/>
<path d="M162.76 151.63C162.535 152.181 160.481 151.83 158.04 152.018C155.599 152.206 153.608 152.794 153.307 152.281C153.17 152.03 153.533 151.517 154.347 151.029C155.425 150.392 156.64 150.023 157.89 149.952C159.141 149.855 160.397 150.052 161.558 150.528C162.472 150.904 162.898 151.354 162.76 151.63Z" fill="#263238"/>
<path d="M181.753 152.381C181.314 152.831 179.712 152.281 177.759 152.168C175.806 152.055 174.115 152.343 173.765 151.83C173.602 151.592 173.878 151.129 174.629 150.716C175.642 150.204 176.778 149.983 177.909 150.077C179.042 150.129 180.136 150.502 181.064 151.154C181.74 151.655 181.953 152.155 181.753 152.381Z" fill="#263238"/>
<path d="M135.929 139.798C137.544 137.845 140.136 137.056 142.602 136.418C153.21 133.697 164.104 132.251 175.054 132.111C176.131 134.477 174.541 137.344 172.325 138.709C170.109 140.074 167.43 140.412 164.901 141.025C162.372 141.639 159.73 142.753 158.453 145.019C157.176 147.285 157.626 150.553 156.4 153.019C154.271 157.289 147.886 158.027 145.783 162.272C144.193 165.502 145.783 169.321 145.783 172.926C145.822 174.758 145.47 176.578 144.75 178.263C144.03 179.948 142.959 181.461 141.608 182.699C140.257 183.937 138.657 184.873 136.916 185.444C135.175 186.015 133.332 186.208 131.51 186.01L133.801 147.423C133.964 144.744 134.214 141.864 135.929 139.798Z" fill="#263238"/>
<path d="M106.42 169.02C108.648 167.442 111.428 166.178 112.467 163.686C114.082 160.056 111.578 155.273 113.932 152.068C116.073 149.151 121.294 149.927 123.322 146.922C124.912 144.581 123.685 142.189 124.436 140.061C125.187 137.933 128.518 136.305 130.696 136.894L145.232 164.25C145.858 172.926 146.947 177.634 144.543 182.379C143.043 184.885 141.817 187.547 140.887 190.316C140.149 193.133 140.499 196.476 142.653 198.454C132.123 198.041 122.996 191.431 114.583 185.096L105.681 178.385C104.694 177.758 103.877 176.898 103.302 175.881C102.113 173.402 104.154 170.61 106.42 169.02Z" fill="#263238"/>
<path d="M114.558 182.504C114.905 182.665 115.271 182.783 115.647 182.855C116.723 183.094 117.833 183.145 118.927 183.005C120.671 182.796 122.331 182.141 123.747 181.102C125.637 179.689 126.967 177.653 127.503 175.355C127.82 174.03 127.867 172.655 127.641 171.311C127.328 169.883 126.827 168.502 126.151 167.205C125.445 165.864 124.931 164.431 124.624 162.948C124.468 162.186 124.485 161.4 124.673 160.646C124.862 159.892 125.217 159.189 125.713 158.591C126.802 157.427 128.605 157.339 130.32 156.863C131.243 156.644 132.083 156.161 132.737 155.473C133.353 154.719 133.716 153.791 133.776 152.819C133.77 150.949 133.586 149.083 133.225 147.248C133.127 146.348 133.23 145.437 133.525 144.581C133.864 143.749 134.484 143.062 135.278 142.64C136.994 141.906 138.871 141.634 140.724 141.852C142.627 142.009 144.538 141.686 146.283 140.913C147.963 140.121 149.398 138.893 150.44 137.357C151.335 135.853 151.99 134.218 152.381 132.512C152.751 130.939 153.279 129.408 153.958 127.942C154.663 126.61 155.65 125.448 156.85 124.537C158.835 123.019 161.25 122.171 163.748 122.115C166.245 122.059 168.696 122.797 170.747 124.224C172.169 125.17 173.408 126.366 174.403 127.754C175.246 128.951 175.94 130.246 176.469 131.61C176.463 131.512 176.442 131.415 176.406 131.322C176.329 131.05 176.237 130.783 176.131 130.521C175.082 127.853 173.254 125.562 170.885 123.948C168.979 122.601 166.731 121.819 164.4 121.694C161.551 121.612 158.759 122.495 156.475 124.198C155.215 125.158 154.173 126.374 153.42 127.767C152.712 129.262 152.162 130.827 151.78 132.437C151.393 134.081 150.756 135.657 149.889 137.107C148.907 138.55 147.553 139.701 145.97 140.437C144.307 141.171 142.486 141.477 140.674 141.326C138.716 141.092 136.731 141.391 134.928 142.19C134.001 142.664 133.28 143.461 132.899 144.431C132.567 145.374 132.451 146.379 132.561 147.373C132.916 149.175 133.101 151.007 133.112 152.844C133.065 153.69 132.754 154.5 132.223 155.16C131.657 155.783 130.915 156.22 130.095 156.412C129.281 156.65 128.417 156.776 127.591 157.026C126.717 157.227 125.912 157.66 125.262 158.278C124.705 158.936 124.304 159.711 124.087 160.545C123.87 161.38 123.844 162.252 124.01 163.098C124.316 164.636 124.856 166.119 125.613 167.493C126.275 168.749 126.768 170.088 127.078 171.474C127.303 172.752 127.277 174.062 127.002 175.33C126.523 177.538 125.288 179.508 123.509 180.902C122.168 181.904 120.597 182.554 118.94 182.792C117.474 182.984 115.985 182.887 114.558 182.504Z" fill="#455A64"/>
<path d="M102.764 162.898C102.554 163.126 102.4 163.401 102.313 163.699C102.041 164.569 102.095 165.507 102.464 166.341C102.711 166.953 103.112 167.492 103.628 167.906C104.25 168.388 104.997 168.684 105.781 168.757C106.74 168.854 107.706 168.684 108.575 168.266C109.443 167.849 110.179 167.2 110.702 166.391C111.312 165.462 111.694 164.402 111.816 163.298C111.925 162.111 111.814 160.915 111.491 159.768C110.927 157.414 109.675 155.035 109.963 152.393C109.986 151.739 110.143 151.096 110.422 150.504C110.702 149.912 111.1 149.384 111.591 148.95C112.757 148.206 114.165 147.941 115.522 148.212C117.029 148.509 118.577 148.53 120.092 148.274C120.897 148.056 121.612 147.586 122.133 146.935C122.635 146.28 122.989 145.524 123.172 144.719C123.424 143.171 123.479 141.598 123.334 140.036C123.282 138.576 123.538 137.121 124.086 135.767C125.142 133.187 127.151 131.111 129.695 129.97C132.066 129.096 134.616 128.821 137.119 129.169C139.36 129.433 141.629 129.344 143.842 128.906C147.048 128.099 149.87 126.194 151.817 123.522C152.544 122.576 153.095 121.507 153.445 120.367C152.922 121.423 152.311 122.432 151.617 123.385C149.654 125.936 146.874 127.735 143.742 128.48C141.57 128.887 139.348 128.951 137.157 128.668C134.568 128.286 131.926 128.557 129.469 129.457C126.78 130.644 124.654 132.824 123.535 135.541C122.948 136.969 122.675 138.506 122.733 140.049C122.868 141.56 122.813 143.083 122.571 144.581C122.466 145.3 122.164 145.976 121.697 146.533C121.231 147.09 120.619 147.507 119.929 147.736C118.487 147.961 117.018 147.935 115.585 147.661C114.073 147.367 112.507 147.682 111.228 148.537C110.678 149.02 110.233 149.61 109.919 150.271C109.604 150.932 109.428 151.65 109.4 152.381C109.298 153.731 109.464 155.089 109.888 156.375C110.264 157.627 110.689 158.791 110.99 159.93C111.312 161.018 111.431 162.155 111.34 163.286C111.24 164.319 110.897 165.315 110.339 166.19C109.863 166.944 109.19 167.553 108.394 167.952C107.598 168.351 106.707 168.526 105.819 168.457C105.09 168.398 104.392 168.138 103.803 167.705C103.318 167.333 102.931 166.847 102.676 166.291C102.317 165.507 102.229 164.626 102.426 163.787C102.517 163.483 102.63 163.185 102.764 162.898Z" fill="#263238"/>
<path d="M211.964 182.066C212.166 182.985 212.042 183.945 211.613 184.783C211.379 185.269 211.04 185.696 210.62 186.034C210.199 186.372 209.709 186.612 209.184 186.736C208.48 186.87 207.752 186.8 207.087 186.533C206.421 186.267 205.846 185.816 205.428 185.233C204.951 184.569 204.725 183.757 204.79 182.942C204.858 182.04 205.1 181.16 205.503 180.351C206.267 178.648 207.619 176.857 207.719 174.541C207.773 173.357 207.578 172.175 207.147 171.071C206.716 169.966 206.058 168.965 205.215 168.131C204.333 167.253 203.298 166.545 202.16 166.04C200.994 165.559 199.769 165.235 198.517 165.076C197.305 164.916 196.111 164.643 194.949 164.262C193.864 163.902 192.942 163.171 192.345 162.197C191.832 161.21 191.607 160.1 191.694 158.991C191.763 157.902 191.982 156.828 192.345 155.799C193.152 153.884 193.708 151.872 193.997 149.814C194.114 147.964 193.678 146.121 192.745 144.518C191.939 143.245 190.898 142.136 189.678 141.251C188.793 140.575 187.956 139.839 187.174 139.047C186.534 138.356 186.04 137.542 185.722 136.656C185.722 136.656 185.722 136.656 185.722 136.844C185.751 137.028 185.801 137.209 185.872 137.382C186.118 138.056 186.492 138.677 186.974 139.21C187.74 140.049 188.578 140.82 189.478 141.514C190.634 142.4 191.618 143.491 192.382 144.731C193.24 146.255 193.636 147.995 193.522 149.739C193.202 151.75 192.634 153.714 191.831 155.586C191.447 156.658 191.215 157.779 191.143 158.916C191.039 160.137 191.287 161.362 191.856 162.447C192.514 163.552 193.544 164.386 194.761 164.801C195.954 165.197 197.183 165.478 198.429 165.64C199.639 165.788 200.822 166.1 201.948 166.566C203.015 167.035 203.987 167.697 204.815 168.519C205.595 169.294 206.205 170.223 206.606 171.247C207.007 172.271 207.19 173.367 207.143 174.466C207.081 176.595 205.816 178.322 205.028 180.1C204.611 180.977 204.365 181.924 204.301 182.892C204.265 183.789 204.535 184.672 205.065 185.396C205.536 186.02 206.174 186.498 206.905 186.775C207.636 187.052 208.431 187.117 209.197 186.961C209.763 186.824 210.29 186.557 210.736 186.181C211.181 185.805 211.533 185.331 211.763 184.795C212.078 184.137 212.199 183.404 212.114 182.679C212.095 182.468 212.044 182.262 211.964 182.066Z" fill="#263238"/>
<path d="M207.832 536.332L207.406 565.353C207.406 565.353 238.856 576.559 238.706 583.282L180.626 583.445L182.617 565.992L179.537 536.945L207.832 536.332Z" fill="black"/>
<path d="M180.513 583.995L181.114 578.724L236.891 580.077C237.878 580.871 238.512 582.023 238.656 583.282L180.513 583.995Z" fill="#263238"/>
<path d="M208.883 566.217C208.883 566.505 207.444 566.643 206.029 567.569C204.614 568.496 203.875 569.697 203.613 569.585C203.35 569.472 203.775 567.819 205.491 566.73C207.206 565.641 208.946 565.904 208.883 566.217Z" fill="#263238"/>
<path d="M215.031 568.746C215.106 569.021 213.866 569.51 212.89 570.724C211.913 571.939 211.638 573.228 211.362 573.228C211.087 573.228 210.887 571.588 212.126 570.111C213.366 568.633 215.031 568.471 215.031 568.746Z" fill="#263238"/>
<path d="M218.549 576.095C218.286 576.158 217.885 574.731 218.624 573.153C219.363 571.576 220.69 570.962 220.803 571.2C220.915 571.438 220.102 572.277 219.551 573.579C219 574.881 218.837 576.07 218.549 576.095Z" fill="#263238"/>
<path d="M208.345 559.306C208.22 559.569 206.905 559.181 205.29 559.306C203.675 559.431 202.411 559.932 202.261 559.694C202.11 559.456 203.325 558.442 205.228 558.317C207.131 558.192 208.483 559.081 208.345 559.306Z" fill="#263238"/>
<path d="M206.066 559.268C206.264 558.917 206.363 558.519 206.354 558.116C206.435 557.009 206.187 555.903 205.641 554.936C205.449 554.619 205.231 554.317 204.99 554.035C204.716 553.689 204.345 553.432 203.925 553.296C203.653 553.218 203.361 553.251 203.113 553.387C202.864 553.523 202.68 553.751 202.598 554.022C202.538 554.536 202.682 555.053 202.999 555.462L204.439 557.866L204.814 558.492L205.002 558.805C205.055 558.904 205.129 558.99 205.217 559.059C205.305 559.128 205.407 559.178 205.515 559.206C205.621 559.215 205.727 559.203 205.828 559.171C205.929 559.139 206.023 559.087 206.104 559.018L206.429 558.793L207.043 558.317C207.838 557.683 208.583 556.988 209.271 556.238C209.609 555.875 209.922 555.512 210.21 555.137C210.552 554.781 210.808 554.353 210.962 553.885C211.006 553.738 211.017 553.584 210.996 553.433C210.974 553.281 210.92 553.136 210.836 553.008C210.752 552.88 210.639 552.773 210.506 552.695C210.374 552.617 210.226 552.57 210.073 552.558C209.592 552.548 209.121 552.698 208.733 552.983C208.097 553.413 207.545 553.956 207.105 554.586C206.47 555.487 206.09 556.542 206.004 557.641C205.945 558.04 205.983 558.449 206.116 558.83C206.187 558.449 206.237 558.065 206.267 557.678C206.454 556.657 206.883 555.695 207.519 554.874C207.938 554.28 208.47 553.774 209.084 553.384C209.362 553.178 209.702 553.072 210.048 553.083C210.112 553.088 210.174 553.108 210.229 553.141C210.284 553.175 210.33 553.222 210.364 553.277C210.397 553.332 210.416 553.395 210.42 553.459C210.424 553.524 210.412 553.588 210.386 553.647C210.242 554.03 210.02 554.38 209.735 554.673C209.447 555.037 209.146 555.387 208.821 555.738C208.147 556.452 207.423 557.117 206.655 557.728L206.054 558.179L205.753 558.404C205.722 558.434 205.683 558.456 205.641 558.467C205.641 558.467 205.641 558.605 205.641 558.58C205.641 558.555 205.703 558.454 205.641 558.48C205.636 558.45 205.636 558.421 205.641 558.392L205.44 558.079L205.065 557.465L203.6 555.087C203.368 554.814 203.24 554.468 203.237 554.11C203.237 553.885 203.575 553.747 203.85 553.81C204.439 553.96 204.927 554.636 205.265 555.137C205.809 556.015 206.112 557.021 206.141 558.054C206.092 558.457 206.067 558.862 206.066 559.268Z" fill="#263238"/>
<path d="M103.04 537.609L99.0332 566.405C99.0332 566.405 128.856 581.429 127.829 588.052L70.1621 581.041L74.3062 563.963L74.8321 534.754L103.04 537.609Z" fill="black"/>
<path d="M70.1118 581.541L71.3638 576.383L126.452 584.684C127.336 585.591 127.826 586.81 127.816 588.077L70.1118 581.541Z" fill="#263238"/>
<path d="M100.398 567.406C100.398 567.694 98.9204 567.644 97.4054 568.383C95.8905 569.122 95.0016 570.236 94.7637 570.098C94.5258 569.961 95.1393 568.358 96.9797 567.494C98.8202 566.63 100.485 567.156 100.398 567.406Z" fill="#263238"/>
<path d="M106.194 570.674C106.194 570.962 104.942 571.288 103.828 572.377C102.714 573.466 102.276 574.668 102 574.668C101.725 574.668 101.737 572.99 103.14 571.663C104.542 570.336 106.22 570.399 106.194 570.674Z" fill="#263238"/>
<path d="M108.774 578.424C108.511 578.424 108.285 576.984 109.199 575.519C110.113 574.055 111.528 573.591 111.616 573.842C111.703 574.092 110.789 574.831 110.051 576.045C109.312 577.26 109.062 578.424 108.774 578.424Z" fill="#263238"/>
<path d="M100.723 560.483C100.573 560.733 99.3082 560.182 97.6932 560.095C96.0781 560.007 94.7635 560.358 94.6383 560.095C94.5131 559.832 95.8903 558.968 97.7558 559.093C99.6212 559.218 100.886 560.283 100.723 560.483Z" fill="#263238"/>
<path d="M98.4697 560.157C98.6974 559.829 98.8433 559.451 98.8953 559.055C99.1086 557.966 98.9954 556.838 98.5698 555.813C98.429 555.47 98.2528 555.143 98.044 554.836C97.8208 554.455 97.4836 554.153 97.0799 553.972C96.8188 553.862 96.5249 553.858 96.2608 553.961C95.9966 554.064 95.7829 554.265 95.6652 554.523C95.5442 555.026 95.6251 555.557 95.8905 556.001L97.0173 558.567L97.3178 559.231L97.4681 559.569C97.5062 559.673 97.5661 559.769 97.6438 559.849C97.7215 559.929 97.8152 559.991 97.9188 560.032C98.0262 560.054 98.1369 560.054 98.2444 560.032C98.3518 560.011 98.4539 559.968 98.5448 559.907L98.8828 559.732L99.5464 559.331C100.429 558.809 101.267 558.214 102.05 557.553C102.426 557.24 102.777 556.915 103.115 556.576C103.5 556.252 103.808 555.846 104.016 555.387C104.078 555.247 104.11 555.096 104.11 554.943C104.11 554.79 104.078 554.638 104.016 554.498C103.945 554.36 103.844 554.241 103.721 554.147C103.597 554.054 103.454 553.99 103.302 553.96C102.831 553.89 102.35 553.983 101.938 554.223C101.249 554.56 100.633 555.028 100.122 555.6C99.376 556.417 98.8653 557.42 98.6449 558.505C98.5389 558.915 98.5389 559.346 98.6449 559.757C98.7689 559.388 98.8693 559.011 98.9454 558.63C99.249 557.641 99.7857 556.739 100.51 556.001C100.996 555.482 101.573 555.058 102.213 554.749C102.518 554.578 102.871 554.517 103.215 554.573C103.478 554.636 103.603 554.861 103.478 555.174C103.293 555.538 103.033 555.859 102.714 556.113C102.376 556.439 102.025 556.739 101.662 557.052C100.903 557.671 100.104 558.24 99.2709 558.755L98.6199 559.143L98.2944 559.318H98.1692C98.1692 559.318 98.1692 559.456 98.1692 559.419C98.1692 559.381 98.2568 559.306 98.1692 559.331C98.1621 559.298 98.1621 559.264 98.1692 559.231L98.0189 558.905L97.7059 558.229C97.3053 557.365 96.9172 556.514 96.5541 555.725C96.353 555.427 96.2643 555.068 96.3037 554.711C96.3037 554.486 96.6918 554.398 96.9673 554.486C97.5373 554.836 97.977 555.364 98.2193 555.988C98.6514 556.923 98.8285 557.955 98.7326 558.98C98.6205 559.367 98.5327 559.76 98.4697 560.157Z" fill="#263238"/>
<path d="M174.378 371.531C174.378 371.531 205.152 431.79 209.434 450.006C213.716 468.223 209.009 558.217 209.009 558.217L179.461 560.483C179.461 560.483 177.358 526.741 174.328 506.359C171.298 485.976 168.945 470.815 171.198 464.742C173.452 458.67 142.239 414.662 142.239 414.662L127.153 390.874L139.41 355.944L174.378 371.531Z" fill="#263238"/>
<path d="M179.512 442.469C177.808 446.004 176.295 449.627 174.979 453.324C173.466 456.943 172.137 460.637 170.998 464.392C172.689 460.851 174.202 457.229 175.53 453.537C177.884 447.477 179.662 442.519 179.512 442.469Z" fill="#455A64"/>
<path d="M155.786 375.6C155.786 375.6 124.574 467.121 121.531 470.602C118.489 474.082 100.723 560.483 100.723 560.483L74.431 559.819C74.431 559.819 73.6297 494.928 77.9616 478.014C82.2936 461.099 89.0543 434.194 91.6585 412.071C94.2627 389.948 90.7946 377.653 91.6585 363.243C92.5224 348.832 96.4036 341.683 96.4036 341.683L155.798 366.974L155.786 375.6Z" fill="#263238"/>
<path d="M152.268 386.029C152.119 386.306 151.993 386.595 151.893 386.893C151.659 387.519 151.333 388.354 150.916 389.397L147.448 398.699C144.568 406.562 140.662 417.479 136.368 429.511C132.073 441.543 128.13 452.448 125.2 460.298L121.732 469.588C121.331 470.652 121.018 471.491 120.793 472.092C120.665 472.381 120.568 472.683 120.505 472.993C120.656 472.718 120.79 472.434 120.906 472.142C121.156 471.516 121.506 470.689 121.945 469.638C122.834 467.472 124.086 464.317 125.601 460.41C128.63 452.585 132.624 441.718 136.869 429.674L147.798 398.799C149.176 394.893 150.302 391.701 151.091 389.434L151.955 386.93C152.085 386.639 152.19 386.338 152.268 386.029Z" fill="#455A64"/>
<path d="M99.7593 358.247C99.9272 358.543 100.143 358.81 100.398 359.036C101.026 359.699 101.718 360.299 102.464 360.826C104.924 362.631 107.806 363.777 110.834 364.156C113.862 364.535 116.936 364.135 119.766 362.992C120.637 362.651 121.475 362.232 122.27 361.74C122.809 361.402 123.097 361.177 123.072 361.139C123.046 361.102 121.82 361.828 119.666 362.592C116.866 363.6 113.868 363.936 110.914 363.57C107.96 363.205 105.134 362.149 102.664 360.488C100.811 359.224 99.8344 358.172 99.7593 358.247Z" fill="#455A64"/>
<path d="M203.112 242.375L186.172 261.944L188 267.302L196.639 277.23C196.639 277.23 199.819 278.896 205.09 269.38C210.361 259.865 215.519 242.412 215.519 242.412L203.112 242.375Z" fill="#FFBE9D"/>
<path d="M234.124 198.58C233.907 198.309 233.623 198.099 233.3 197.972C232.977 197.844 232.627 197.804 232.283 197.853L220.452 199.481C219.944 199.561 219.458 199.747 219.026 200.027C218.595 200.308 218.227 200.676 217.948 201.109L193.284 238.881L195.174 239.933L208.258 239.52L234.437 199.068L234.124 198.58Z" fill="#263238"/>
<path d="M225.685 203.487C225.781 203.638 225.922 203.755 226.088 203.822C226.255 203.888 226.438 203.9 226.611 203.857C226.785 203.813 226.94 203.716 227.055 203.579C227.17 203.442 227.239 203.272 227.253 203.094C227.266 202.915 227.223 202.737 227.129 202.585C227.035 202.432 226.896 202.313 226.73 202.245C226.565 202.176 226.383 202.161 226.208 202.202C226.034 202.243 225.877 202.338 225.76 202.473C225.623 202.602 225.539 202.778 225.525 202.966C225.511 203.154 225.568 203.34 225.685 203.487Z" fill="white"/>
<path d="M234.437 199.068C233.683 199.267 232.918 199.417 232.146 199.519L225.886 200.483L221.554 201.121C221.187 201.149 220.831 201.26 220.515 201.447C220.198 201.634 219.928 201.891 219.726 202.198C219.263 202.899 218.799 203.625 218.324 204.376L212.064 214.042C207.594 220.903 203.512 227.075 200.533 231.57L196.964 236.828C196.553 237.491 196.088 238.119 195.575 238.706C195.908 238.002 196.293 237.324 196.727 236.678L200.107 231.294C202.987 226.775 206.993 220.552 211.463 213.691L217.785 204.051L219.212 201.885C219.474 201.524 219.811 201.225 220.2 201.008C220.59 200.792 221.022 200.664 221.466 200.633L225.823 200.082L232.083 199.331C232.859 199.176 233.646 199.088 234.437 199.068Z" fill="#455A64"/>
<path d="M221.304 212.539C221.304 212.539 220.252 212.352 219.676 215.231C219.1 218.111 217.172 226.399 217.172 226.399L211.651 223.457L204.74 224.358C204.74 224.358 203.225 225.761 204.326 226.512C206.09 227.232 207.93 227.749 209.81 228.052L213.028 232.684L203.776 228.227C203.776 228.227 200.696 229.028 201.597 230.906C202.499 232.784 208.733 238.694 208.733 238.694L204.101 238.343L198.592 234.988C198.592 234.988 196.902 235.063 197.541 236.503C198.179 237.943 203.901 243.151 203.901 243.151L210.849 246.519C210.849 246.519 214.605 246.231 215.006 245.117C215.252 244.234 215.403 243.327 215.457 242.412C215.457 242.412 217.472 241.861 217.848 240.885C218.068 240.069 218.115 239.216 217.986 238.381C217.986 238.381 221.141 238.932 221.541 237.129C221.819 234.93 221.731 232.7 221.279 230.531C220.966 229.179 222.631 216.583 222.531 216.195C222.43 215.807 223.294 211.701 221.304 212.539Z" fill="#FFBE9D"/>
<path d="M215.344 245.129C214.794 245.462 214.17 245.655 213.528 245.692C210.448 246.127 207.317 245.38 204.764 243.602C203.813 242.913 203.35 242.35 203.4 242.35C205.197 243.415 207.119 244.256 209.121 244.854C212.452 245.617 215.269 244.904 215.344 245.129Z" fill="#EB996E"/>
<path d="M213.666 242.638C213.553 242.8 212.326 242.149 211.012 241.073C209.697 239.996 208.821 238.907 208.959 238.769C209.096 238.631 210.211 239.47 211.463 240.522C212.715 241.573 213.779 242.475 213.666 242.638Z" fill="#EB996E"/>
<path d="M217.322 236.628C217.209 236.791 215.995 236.152 214.755 235.013C213.516 233.874 212.802 232.709 212.952 232.597C213.103 232.484 214.054 233.398 215.244 234.487C216.433 235.576 217.435 236.478 217.322 236.628Z" fill="#EB996E"/>
<path d="M221.166 231.808C220.978 231.883 220.277 230.556 219.175 229.166C218.073 227.776 217.009 226.725 217.134 226.562C217.259 226.399 218.586 227.213 219.738 228.728C220.532 229.575 221.033 230.655 221.166 231.808Z" fill="#EB996E"/>
<path d="M210.786 261.668L198.454 244.215L192.72 251.502L178.172 263.884L189.189 307.128L197.816 298.477C197.816 298.477 206.417 273.825 206.78 268.93L210.786 261.668Z" fill="black"/>
<path d="M169.871 209.585C162.997 211.037 150.215 204.239 137.256 199.018L148.687 239.407L189.189 312.286L186.447 247.47L169.871 209.585Z" fill="white"/>
<path d="M170.272 210.035C170.272 210.035 186.623 236.741 187.913 239.795C189.202 242.85 192.557 256.309 194.173 265.937C195.788 275.565 198.379 304.299 198.417 323.392C198.417 333.408 198.317 342.66 198.179 349.971C198.092 354.719 196.75 359.36 194.29 363.421C191.829 367.483 188.337 370.821 184.169 373.096C184.169 373.096 185.709 290.94 185.108 286.545C184.507 282.151 185.671 273.65 184.169 261.205C183.358 253.752 181.332 246.482 178.172 239.683C176.156 234.988 171.223 219.501 170.284 213.629C169.345 207.757 170.272 210.035 170.272 210.035Z" fill="black"/>
<path d="M114.395 204.076L130.934 202.21L136.731 197.904L142.753 203.901C161.38 222.426 174.811 245.52 181.703 270.87C185.046 283.252 187.788 296.824 188.414 309.532C190.216 346.19 185.396 375.262 184.057 375.262C182.717 375.262 83.6211 348.256 83.6211 348.256L88.4789 313.826L103.29 214.918C103.29 214.918 107.559 204.714 114.395 204.076Z" fill="black"/>
<path d="M70.6249 286.858C70.6249 286.858 70.963 271.371 74.6689 263.972C78.3748 256.572 105.969 210.035 105.969 210.035C105.969 210.035 142.953 234.337 126.802 281.475L121.444 283.152C121.444 283.152 124.799 285.506 124.135 288.874C124.135 288.874 133.288 288.198 135.942 294.433C135.942 294.433 139.948 294.257 142.314 296.286C144.681 298.314 156.788 311.548 156.788 311.548C156.788 311.548 144.268 333.307 139.948 333.645C135.629 333.983 138.27 333.645 138.27 333.645L126.151 324.556C126.151 324.556 108.31 327.586 99.8591 324.894C91.4081 322.202 85.7115 315.028 82.6817 311.548C79.6518 308.067 70.1116 294.22 70.6249 286.858Z" fill="black"/>
<path d="M102.514 291.29C105.141 289.045 108.049 287.152 111.165 285.656C114.39 284.4 117.752 283.53 121.181 283.065C120.159 282.954 119.126 282.988 118.114 283.165C115.642 283.467 113.226 284.12 110.94 285.105C108.671 286.116 106.562 287.454 104.68 289.074C103.862 289.712 103.133 290.458 102.514 291.29Z" fill="#263238"/>
<path d="M93.3115 267.928C93.6733 268.161 94.0595 268.355 94.4634 268.504L97.656 269.956C100.36 271.208 104.041 272.923 108.01 275.052C111.979 277.18 115.522 279.309 118.026 280.899L120.981 282.777C121.326 283.035 121.7 283.254 122.095 283.428C121.805 283.104 121.473 282.822 121.106 282.589C120.455 282.088 119.478 281.337 118.251 280.548C115.058 278.372 111.752 276.366 108.348 274.539C104.948 272.69 101.454 271.018 97.8813 269.531C96.5041 268.98 95.3773 268.554 94.6011 268.279C94.1881 268.107 93.7546 267.989 93.3115 267.928Z" fill="#263238"/>
<path d="M123.109 305.713C126.321 300.178 131.584 296.131 137.757 294.445C136.806 294.47 135.866 294.656 134.978 294.996C130.596 296.437 126.84 299.336 124.336 303.209C123.788 303.969 123.373 304.815 123.109 305.713Z" fill="#263238"/>
<path d="M128.029 324.869C128.117 324.869 128.968 323.391 130.433 320.975C131.898 318.559 134.001 315.278 136.53 311.798C139.059 308.317 141.538 305.313 143.416 303.184C145.294 301.056 146.446 299.766 146.384 299.704C146.042 299.935 145.727 300.204 145.445 300.505C144.869 301.056 144.067 301.87 143.103 302.896C138.069 308.316 133.694 314.313 130.07 320.762C129.381 322.014 128.818 323.016 128.505 323.729C128.301 324.089 128.141 324.471 128.029 324.869Z" fill="#263238"/>
<path d="M140.449 323.654C140.449 323.654 140.337 323.479 139.999 323.354C139.69 323.245 139.36 323.206 139.034 323.239C138.708 323.272 138.394 323.377 138.113 323.545C137.832 323.714 137.592 323.942 137.409 324.214C137.226 324.486 137.106 324.795 137.056 325.119C136.995 325.612 137.09 326.112 137.328 326.548C137.566 326.984 137.935 327.334 138.384 327.548C138.848 327.728 139.359 327.754 139.839 327.621C140.32 327.488 140.745 327.203 141.05 326.809C141.245 326.544 141.373 326.237 141.424 325.912C141.475 325.587 141.449 325.255 141.346 324.943C141.243 324.63 141.067 324.347 140.833 324.117C140.598 323.886 140.312 323.715 139.999 323.617C139.648 323.517 139.448 323.617 139.448 323.617C140.029 323.82 140.515 324.23 140.812 324.769C140.953 325.042 141.01 325.35 140.976 325.655C140.943 325.96 140.821 326.248 140.625 326.484C140.385 326.767 140.065 326.969 139.706 327.063C139.348 327.157 138.969 327.139 138.621 327.01C138.286 326.845 138.009 326.582 137.827 326.255C137.646 325.928 137.569 325.554 137.607 325.182C137.634 324.874 137.746 324.578 137.929 324.329C138.112 324.08 138.36 323.885 138.646 323.767C139.221 323.543 139.851 323.504 140.449 323.654Z" fill="#263238"/>
<path d="M165.264 360.426C166.86 359.337 168.304 358.04 169.558 356.57C172.942 352.619 175.379 347.947 176.682 342.91C177.578 339.478 178.111 335.962 178.272 332.419C178.457 328.37 178.394 324.315 178.084 320.274C177.463 311.016 176.327 301.799 174.679 292.668C171.717 276.012 167.103 259.693 160.907 243.952C158.384 237.383 155.5 230.959 152.268 224.709C152.298 224.832 152.344 224.95 152.406 225.06C152.518 225.31 152.656 225.648 152.844 226.061L154.584 229.88C155.31 231.557 156.212 233.636 157.238 235.952C158.265 238.268 159.379 241.048 160.506 244.09C166.602 259.841 171.168 276.142 174.141 292.768C175.782 301.881 176.931 311.075 177.584 320.312C177.906 324.335 177.99 328.373 177.834 332.406C177.683 335.916 177.175 339.402 176.319 342.81C175.071 347.808 172.718 352.463 169.433 356.432C168.506 357.505 167.506 358.514 166.441 359.449L165.589 360.163C165.402 360.326 165.264 360.413 165.264 360.426Z" fill="#263238"/>
<path d="M155.248 358.247C155.453 358.134 155.646 357.999 155.824 357.847C156.174 357.559 156.738 357.183 157.376 356.595C159.217 355.012 160.918 353.274 162.459 351.399C164.752 348.673 166.734 345.7 168.369 342.535C170.397 338.717 171.741 334.572 172.338 330.29C172.815 326.021 172.527 321.7 171.486 317.532C170.631 314.106 169.313 310.812 167.567 307.742C166.386 305.647 164.998 303.675 163.423 301.857C162.885 301.194 162.384 300.743 162.084 300.417C161.935 300.241 161.767 300.082 161.583 299.942C161.583 299.942 162.171 300.668 163.236 301.995C164.714 303.873 166.021 305.88 167.142 307.992C168.819 311.05 170.082 314.317 170.898 317.708C171.89 321.803 172.157 326.04 171.687 330.228C171.108 334.449 169.799 338.537 167.818 342.309C166.229 345.457 164.306 348.424 162.084 351.161C160.577 353.042 158.932 354.808 157.163 356.444C155.899 357.596 155.16 358.21 155.248 358.247Z" fill="#263238"/>
<path d="M82.7446 311.548L83.308 312.261C83.6962 312.712 84.2596 313.401 85.0233 314.265C87.2013 316.829 89.6625 319.139 92.36 321.151C94.281 322.586 96.3866 323.757 98.62 324.631C101.318 325.585 104.148 326.109 107.008 326.184C113.858 326.425 120.716 326.069 127.504 325.119H127.316L138.271 333.42L139.761 333.921H139.861C140.985 333.619 141.996 332.991 142.766 332.118C143.577 331.332 144.338 330.495 145.044 329.614C146.496 327.849 147.849 325.971 149.188 324.03C151.843 320.136 154.422 316.005 156.926 311.698L157.038 311.51L156.888 311.347C152.431 306.527 147.861 301.469 142.903 296.524C141.974 295.615 140.827 294.96 139.573 294.621C138.351 294.277 137.086 294.113 135.817 294.132L136.105 294.32C135.6 293.204 134.866 292.206 133.951 291.39C133.026 290.628 131.981 290.024 130.859 289.6C128.661 288.813 126.33 288.468 123.998 288.586L124.311 288.937C124.522 287.757 124.318 286.54 123.735 285.494C123.213 284.513 122.497 283.648 121.632 282.952L121.544 283.465L126.94 281.775H127.078V281.637C128.91 276.324 130.169 270.83 130.834 265.249C131.38 260.145 131.287 254.993 130.559 249.912C129.91 245.357 128.717 240.897 127.003 236.628C125.521 233.007 123.697 229.536 121.557 226.261C118.522 221.608 114.885 217.377 110.739 213.679C109.287 212.427 108.098 211.475 107.296 210.874C106.883 210.574 106.57 210.349 106.357 210.211L106.019 210.01C106.114 210.1 106.214 210.184 106.32 210.261L107.234 210.949C108.023 211.575 109.174 212.514 110.602 213.817C114.681 217.557 118.261 221.807 121.256 226.462C123.367 229.727 125.161 233.185 126.615 236.791C128.282 241 129.446 245.392 130.083 249.874C130.784 254.921 130.855 260.034 130.296 265.098C129.633 270.643 128.373 276.1 126.54 281.374L126.727 281.199L121.444 282.877L120.906 283.04L121.356 283.39C122.245 283.97 122.956 284.785 123.412 285.744C123.867 286.702 124.048 287.768 123.935 288.824L123.86 289.187H124.236C126.482 289.074 128.729 289.406 130.846 290.164C131.904 290.565 132.889 291.136 133.764 291.854C134.607 292.607 135.285 293.528 135.754 294.558L135.842 294.746H136.042C137.243 294.66 138.448 294.813 139.589 295.195C140.73 295.578 141.784 296.182 142.69 296.974C147.611 301.87 152.206 306.99 156.663 311.761V311.41C154.159 315.717 151.655 319.848 148.963 323.717C147.711 325.658 146.296 327.473 144.869 329.276C144.17 330.149 143.426 330.984 142.64 331.78C141.97 332.547 141.105 333.118 140.136 333.433H140.236L138.759 332.944H138.834L127.704 324.669H127.616H127.516C120.759 325.638 113.932 326.024 107.109 325.82C104.277 325.743 101.476 325.219 98.8078 324.268C96.5819 323.415 94.4773 322.275 92.5478 320.875C89.8519 318.896 87.3755 316.633 85.161 314.127L83.3957 312.161C82.97 311.748 82.7446 311.548 82.7446 311.548Z" fill="#263238"/>
<path d="M170.272 210.035C170.351 210.253 170.452 210.463 170.572 210.661L171.549 212.414L175.242 218.912C178.473 224.483 182.955 232.258 188.151 241.248V241.185C189.403 245.404 190.529 250.024 191.556 254.844C193.957 266.392 195.701 278.067 196.777 289.813C197.202 294.333 197.403 297.988 197.566 300.517C197.628 301.769 197.678 302.708 197.716 303.422C197.724 303.762 197.753 304.1 197.803 304.436C197.836 304.099 197.836 303.759 197.803 303.422C197.803 302.708 197.803 301.732 197.803 300.505C197.728 298.001 197.578 294.245 197.202 289.788C196.266 278.01 194.593 266.301 192.194 254.732C191.168 249.899 190.016 245.267 188.751 241.035L175.656 218.812L171.812 212.389L170.76 210.686C170.619 210.454 170.456 210.236 170.272 210.035Z" fill="#263238"/>
<path d="M193.196 251.502C193.438 252.564 193.817 253.591 194.323 254.557C195.433 256.942 196.811 259.193 198.429 261.267C200.043 263.343 201.891 265.226 203.938 266.876C204.749 267.602 205.649 268.22 206.617 268.717C205.854 267.953 205.047 267.234 204.201 266.563C200.319 263.114 197.098 258.986 194.698 254.381C193.772 252.616 193.283 251.477 193.196 251.502Z" fill="#263238"/>
<path d="M206.78 261.217C206.855 261.217 206.53 260.654 205.691 260.779C205.443 260.821 205.214 260.937 205.033 261.111C204.853 261.286 204.728 261.51 204.677 261.756C204.615 262.059 204.651 262.373 204.779 262.654C204.908 262.935 205.121 263.168 205.39 263.321C205.669 263.451 205.98 263.492 206.283 263.438C206.586 263.385 206.864 263.239 207.08 263.02C207.26 262.848 207.385 262.627 207.439 262.384C207.492 262.141 207.472 261.887 207.381 261.656C207.08 260.879 206.479 260.817 206.492 260.892C206.504 260.967 206.868 261.18 206.98 261.768C207.012 261.922 207.004 262.081 206.956 262.23C206.907 262.38 206.821 262.514 206.705 262.62C206.566 262.744 206.394 262.826 206.211 262.857C206.027 262.888 205.838 262.867 205.666 262.795C205.508 262.697 205.382 262.554 205.304 262.385C205.226 262.216 205.199 262.027 205.227 261.843C205.25 261.692 205.314 261.551 205.414 261.436C205.514 261.32 205.645 261.236 205.791 261.192C206.367 260.992 206.73 261.292 206.78 261.217Z" fill="#263238"/>
<path d="M148.612 332.356L145.232 329.614C145.232 329.614 154.972 317.006 156.5 312.286C156.412 312.286 153.395 324.468 148.612 332.356Z" fill="#FFBE9D"/>
<path d="M141.476 346.253C141.787 345.868 142.051 345.448 142.264 345.001C142.79 344.062 143.441 342.86 144.217 341.433C145.845 338.403 148.074 334.196 150.315 329.451C152.244 325.386 153.916 321.205 155.323 316.931C155.849 315.291 156.237 313.951 156.462 313.012C156.609 312.535 156.709 312.044 156.763 311.548C156.54 311.996 156.363 312.466 156.237 312.95C155.949 313.864 155.498 315.178 154.985 316.793C153.833 320.036 152.055 324.431 149.814 329.163C147.573 333.896 145.419 338.128 143.879 341.207C143.116 342.747 142.502 343.999 142.102 344.876C141.852 345.315 141.643 345.776 141.476 346.253Z" fill="#263238"/>
<path d="M172.325 244.378C172.391 244.476 172.446 244.581 172.488 244.691L172.876 245.617C173.214 246.481 173.702 247.683 174.303 249.211L175.33 251.815C175.681 252.766 176.031 253.831 176.432 254.957C177.195 257.211 178.147 259.765 178.936 262.657L180.3 267.164C180.776 268.742 181.164 270.407 181.628 272.172C182.567 275.578 183.343 279.271 184.207 283.152C185.916 291.605 187.17 300.143 187.963 308.731C188.682 317.325 188.936 325.951 188.726 334.572C188.564 338.541 188.451 342.322 188.113 345.84C187.963 347.605 187.863 349.308 187.675 350.936C187.487 352.563 187.299 354.128 187.111 355.618C186.811 358.61 186.323 361.29 185.959 363.656C185.759 364.833 185.609 365.922 185.421 366.936C185.233 367.95 185.033 368.852 184.87 369.678C184.532 371.281 184.269 372.545 184.081 373.434C183.994 373.835 183.919 374.16 183.869 374.423C183.844 374.534 183.811 374.643 183.768 374.749C183.754 374.636 183.754 374.523 183.768 374.411C183.768 374.148 183.869 373.822 183.931 373.409C184.094 372.495 184.307 371.218 184.595 369.653C184.745 368.827 184.908 367.9 185.083 366.899L185.571 363.618C185.897 361.252 186.36 358.61 186.636 355.593C186.798 354.103 186.974 352.538 187.149 350.911C187.324 349.283 187.399 347.58 187.55 345.827C187.863 342.309 187.95 338.541 188.113 334.559C188.276 325.962 188 317.362 187.287 308.793C186.495 300.23 185.262 291.714 183.593 283.278C182.754 279.396 182.003 275.703 181.089 272.31C180.638 270.595 180.263 268.942 179.837 267.365C179.412 265.787 178.948 264.285 178.523 262.845C177.721 259.953 176.807 257.399 176.019 255.133L174.967 251.978C174.616 251.026 174.303 250.15 174.003 249.361C173.439 247.821 173.001 246.606 172.688 245.73C172.551 245.342 172.45 245.029 172.363 244.779C172.338 244.646 172.325 244.512 172.325 244.378Z" fill="#263238"/>
<path d="M186.047 365.071C186.047 365.246 163.411 359.875 135.592 353.089C107.772 346.303 85.2361 340.632 85.2862 340.456C85.3363 340.281 107.91 345.652 135.742 352.45C163.574 359.249 186.085 364.895 186.047 365.071Z" fill="#263238"/>
<g opacity="0.3">
<path opacity="0.3" d="M135.666 331.342C134.126 330.353 128.029 324.869 128.029 324.869C120.8 325.445 113.545 325.653 106.295 325.495C99.7215 325.257 93.474 321.902 88.7665 317.357L88.0278 318.609C88.0278 323.955 92.0217 328.738 96.917 330.904C101.812 333.069 107.434 332.957 112.68 331.93C116.235 331.229 120.004 330.14 123.359 331.517C126.089 332.644 127.929 335.198 130.32 336.951C131.677 337.77 133.277 338.092 134.845 337.864C136.414 337.636 137.854 336.871 138.922 335.699C140.624 333.433 137.92 332.782 135.666 331.342Z" fill="black"/>
</g>
<g opacity="0.3">
<path opacity="0.3" d="M121.969 283.065C118.128 281.302 113.874 280.634 109.677 281.133C105.481 281.633 101.503 283.28 98.1814 285.894C97.3437 286.503 96.6616 287.301 96.1908 288.223C95.9583 288.683 95.8598 289.199 95.9062 289.713C95.9527 290.226 96.1424 290.716 96.4537 291.128C96.8353 291.499 97.3108 291.759 97.8292 291.88C98.3475 292.002 98.8892 291.98 99.3959 291.816C100.403 291.467 101.346 290.955 102.188 290.301C108.229 286.237 115.127 283.623 122.345 282.664" fill="black"/>
</g>
</svg>
