<svg width="104" height="104" viewBox="0 0 104 104" fill="none" xmlns="http://www.w3.org/2000/svg">
<path d="M50.3794 19.3985L51.9999 21.6394L53.6206 19.3986C55.4685 16.8435 57.5504 14.6736 59.8298 12.9103C64.3269 9.43283 69.3963 7.6875 74.9476 7.6875C82.4274 7.6875 89.279 10.6749 94.2792 16.0981C99.2274 21.4655 102 28.851 102 36.9418C102 45.1636 98.9632 52.7784 92.146 61.0038L92.1459 61.0039C85.9855 68.4377 77.0908 76.0258 66.5696 84.9915L66.5694 84.9917L66.48 85.0678C62.9236 88.0992 58.889 91.5381 54.7023 95.1994L54.7012 95.2003C53.9559 95.8531 52.9962 96.2141 52 96.2141C51.0036 96.2141 50.0446 95.8534 49.2973 95.1989L49.296 95.1977C45.0787 91.5105 41.0183 88.0498 37.4444 85.0037L37.4329 84.994L37.4328 84.9939C26.9101 76.0267 18.0154 68.4378 11.8549 61.0046C5.03749 52.7783 2 45.1635 2 36.9426C2 28.851 4.7726 21.4655 9.71997 16.0981C14.7201 10.675 21.5725 7.6875 29.0524 7.6875C34.6038 7.6875 39.6731 9.43284 44.1693 12.9102L44.1694 12.9103C46.4496 14.6736 48.5322 16.8442 50.3794 19.3985Z" stroke="#B0B0B0" stroke-width="4"/>
<path d="M27.0187 46.576C28.8107 45.0827 30.2387 43.8413 31.3027 42.852C32.3667 41.844 33.2534 40.7987 33.9627 39.716C34.6721 38.6333 35.0267 37.5693 35.0267 36.524C35.0267 35.572 34.8027 34.8253 34.3547 34.284C33.9067 33.7427 33.2161 33.472 32.2827 33.472C31.3494 33.472 30.6307 33.7893 30.1267 34.424C29.6227 35.04 29.3614 35.8893 29.3427 36.972H25.5347C25.6094 34.732 26.2721 33.0333 27.5227 31.876C28.7921 30.7187 30.3974 30.14 32.3387 30.14C34.4667 30.14 36.1001 30.7093 37.2387 31.848C38.3774 32.968 38.9467 34.452 38.9467 36.3C38.9467 37.756 38.5547 39.1467 37.7707 40.472C36.9867 41.7973 36.0907 42.9547 35.0827 43.944C34.0747 44.9147 32.7587 46.0907 31.1347 47.472H39.3947V50.72H25.5627V47.808L27.0187 46.576ZM41.8649 40.528C41.8649 37.2987 42.4435 34.7693 43.6009 32.94C44.7769 31.1107 46.7182 30.196 49.4249 30.196C52.1315 30.196 54.0635 31.1107 55.2209 32.94C56.3969 34.7693 56.9849 37.2987 56.9849 40.528C56.9849 43.776 56.3969 46.324 55.2209 48.172C54.0635 50.02 52.1315 50.944 49.4249 50.944C46.7182 50.944 44.7769 50.02 43.6009 48.172C42.4435 46.324 41.8649 43.776 41.8649 40.528ZM53.1209 40.528C53.1209 39.1467 53.0275 37.9893 52.8409 37.056C52.6729 36.104 52.3182 35.3293 51.7769 34.732C51.2542 34.1347 50.4702 33.836 49.4249 33.836C48.3795 33.836 47.5862 34.1347 47.0449 34.732C46.5222 35.3293 46.1675 36.104 45.9809 37.056C45.8129 37.9893 45.7289 39.1467 45.7289 40.528C45.7289 41.9467 45.8129 43.1413 45.9809 44.112C46.1489 45.064 46.5035 45.8387 47.0449 46.436C47.5862 47.0147 48.3795 47.304 49.4249 47.304C50.4702 47.304 51.2635 47.0147 51.8049 46.436C52.3462 45.8387 52.7009 45.064 52.8689 44.112C53.0369 43.1413 53.1209 41.9467 53.1209 40.528ZM59.5184 35.6C59.5184 34.1813 59.9291 33.0707 60.7504 32.268C61.5904 31.4653 62.6638 31.064 63.9704 31.064C65.2771 31.064 66.3411 31.4653 67.1624 32.268C68.0024 33.0707 68.4224 34.1813 68.4224 35.6C68.4224 37.0373 68.0024 38.1573 67.1624 38.96C66.3411 39.7627 65.2771 40.164 63.9704 40.164C62.6638 40.164 61.5904 39.7627 60.7504 38.96C59.9291 38.1573 59.5184 37.0373 59.5184 35.6ZM77.4944 31.4L66.4904 51H62.6824L73.6584 31.4H77.4944ZM63.9424 33.416C62.9158 33.416 62.4024 34.144 62.4024 35.6C62.4024 37.0747 62.9158 37.812 63.9424 37.812C64.4464 37.812 64.8384 37.6347 65.1184 37.28C65.3984 36.9067 65.5384 36.3467 65.5384 35.6C65.5384 34.144 65.0064 33.416 63.9424 33.416ZM71.8104 46.772C71.8104 45.3347 72.2211 44.224 73.0424 43.44C73.8824 42.6373 74.9558 42.236 76.2624 42.236C77.5691 42.236 78.6238 42.6373 79.4264 43.44C80.2478 44.224 80.6584 45.3347 80.6584 46.772C80.6584 48.2093 80.2478 49.3293 79.4264 50.132C78.6238 50.9347 77.5691 51.336 76.2624 51.336C74.9371 51.336 73.8638 50.9347 73.0424 50.132C72.2211 49.3293 71.8104 48.2093 71.8104 46.772ZM76.2344 44.588C75.1704 44.588 74.6384 45.316 74.6384 46.772C74.6384 48.2467 75.1704 48.984 76.2344 48.984C77.2798 48.984 77.8024 48.2467 77.8024 46.772C77.8024 45.316 77.2798 44.588 76.2344 44.588Z" fill="#B0B0B0"/>
<path d="M40.8976 68.944C40.8976 69.456 40.7696 69.9467 40.5136 70.416C40.2576 70.8747 39.879 71.2587 39.3776 71.568C38.887 71.8773 38.295 72.0533 37.6016 72.096V73.392H36.7376V72.096C35.767 72.0107 34.9776 71.7013 34.3696 71.168C33.7616 70.624 33.4523 69.936 33.4416 69.104H34.9936C35.0363 69.552 35.2016 69.9413 35.4896 70.272C35.7883 70.6027 36.2043 70.8107 36.7376 70.896V66.896C36.023 66.7147 35.447 66.528 35.0096 66.336C34.5723 66.144 34.199 65.8453 33.8896 65.44C33.5803 65.0347 33.4256 64.4907 33.4256 63.808C33.4256 62.944 33.7243 62.2293 34.3216 61.664C34.9296 61.0987 35.735 60.784 36.7376 60.72V59.392H37.6016V60.72C38.5083 60.7947 39.239 61.088 39.7936 61.6C40.3483 62.1013 40.6683 62.7573 40.7536 63.568H39.2016C39.1483 63.1947 38.983 62.8587 38.7056 62.56C38.4283 62.2507 38.0603 62.048 37.6016 61.952V65.856C38.3056 66.0373 38.8763 66.224 39.3136 66.416C39.7616 66.5973 40.135 66.8907 40.4336 67.296C40.743 67.7013 40.8976 68.2507 40.8976 68.944ZM34.9136 63.728C34.9136 64.2507 35.0683 64.6507 35.3776 64.928C35.687 65.2053 36.1403 65.4347 36.7376 65.616V61.92C36.183 61.9733 35.7403 62.1547 35.4096 62.464C35.079 62.7627 34.9136 63.184 34.9136 63.728ZM37.6016 70.912C38.1776 70.848 38.6256 70.64 38.9456 70.288C39.2763 69.936 39.4416 69.5147 39.4416 69.024C39.4416 68.5013 39.2816 68.1013 38.9616 67.824C38.6416 67.536 38.1883 67.3067 37.6016 67.136V70.912ZM42.4588 69.424V68.32L48.0748 60.544H49.8188V68.16H51.4188V69.424H49.8188V72H48.3788V69.424H42.4588ZM48.4428 62.064L44.1388 68.16H48.4428V62.064ZM52.9773 72.096C52.6999 72.096 52.4653 72 52.2733 71.808C52.0813 71.616 51.9853 71.3813 51.9853 71.104C51.9853 70.8267 52.0813 70.592 52.2733 70.4C52.4653 70.208 52.6999 70.112 52.9773 70.112C53.2439 70.112 53.4679 70.208 53.6493 70.4C53.8413 70.592 53.9373 70.8267 53.9373 71.104C53.9373 71.3813 53.8413 71.616 53.6493 71.808C53.4679 72 53.2439 72.096 52.9773 72.096ZM55.0326 66.096C55.0326 64.2613 55.3313 62.832 55.9286 61.808C56.526 60.7733 57.5713 60.256 59.0646 60.256C60.5473 60.256 61.5873 60.7733 62.1846 61.808C62.782 62.832 63.0806 64.2613 63.0806 66.096C63.0806 67.9627 62.782 69.4133 62.1846 70.448C61.5873 71.4827 60.5473 72 59.0646 72C57.5713 72 56.526 71.4827 55.9286 70.448C55.3313 69.4133 55.0326 67.9627 55.0326 66.096ZM61.6406 66.096C61.6406 65.168 61.5766 64.384 61.4486 63.744C61.3313 63.0933 61.0806 62.5707 60.6966 62.176C60.3233 61.7813 59.7793 61.584 59.0646 61.584C58.3393 61.584 57.7846 61.7813 57.4006 62.176C57.0273 62.5707 56.7766 63.0933 56.6486 63.744C56.5313 64.384 56.4726 65.168 56.4726 66.096C56.4726 67.056 56.5313 67.8613 56.6486 68.512C56.7766 69.1627 57.0273 69.6853 57.4006 70.08C57.7846 70.4747 58.3393 70.672 59.0646 70.672C59.7793 70.672 60.3233 70.4747 60.6966 70.08C61.0806 69.6853 61.3313 69.1627 61.4486 68.512C61.5766 67.8613 61.6406 67.056 61.6406 66.096ZM64.4795 66.096C64.4795 64.2613 64.7782 62.832 65.3755 61.808C65.9728 60.7733 67.0182 60.256 68.5115 60.256C69.9942 60.256 71.0342 60.7733 71.6315 61.808C72.2288 62.832 72.5275 64.2613 72.5275 66.096C72.5275 67.9627 72.2288 69.4133 71.6315 70.448C71.0342 71.4827 69.9942 72 68.5115 72C67.0182 72 65.9728 71.4827 65.3755 70.448C64.7782 69.4133 64.4795 67.9627 64.4795 66.096ZM71.0875 66.096C71.0875 65.168 71.0235 64.384 70.8955 63.744C70.7782 63.0933 70.5275 62.5707 70.1435 62.176C69.7702 61.7813 69.2262 61.584 68.5115 61.584C67.7862 61.584 67.2315 61.7813 66.8475 62.176C66.4742 62.5707 66.2235 63.0933 66.0955 63.744C65.9782 64.384 65.9195 65.168 65.9195 66.096C65.9195 67.056 65.9782 67.8613 66.0955 68.512C66.2235 69.1627 66.4742 69.6853 66.8475 70.08C67.2315 70.4747 67.7862 70.672 68.5115 70.672C69.2262 70.672 69.7702 70.4747 70.1435 70.08C70.5275 69.6853 70.7782 69.1627 70.8955 68.512C71.0235 67.8613 71.0875 67.056 71.0875 66.096Z" fill="#B0B0B0"/>
</svg>
