<svg width="104" height="104" viewBox="0 0 104 104" fill="none" xmlns="http://www.w3.org/2000/svg">
<g clip-path="url(#clip0_12_1360)">
<path d="M50.3794 26.3985L51.9999 28.6394L53.6206 26.3986C55.4685 23.8435 57.5504 21.6736 59.8298 19.9103C64.3269 16.4328 69.3963 14.6875 74.9476 14.6875C82.4274 14.6875 89.279 17.6749 94.2792 23.0981C99.2274 28.4655 102 35.851 102 43.9418C102 52.1636 98.9632 59.7784 92.146 68.0038L92.1459 68.0039C85.9855 75.4377 77.0908 83.0258 66.5696 91.9915L66.5694 91.9917L66.48 92.0678C62.9236 95.0992 58.889 98.5381 54.7023 102.199L54.7012 102.2C53.9559 102.853 52.9962 103.214 52 103.214C51.0036 103.214 50.0446 102.853 49.2973 102.199L49.296 102.198C45.0787 98.5105 41.0183 95.0498 37.4444 92.0037L37.4329 91.994L37.4328 91.9939C26.9101 83.0267 18.0154 75.4378 11.8549 68.0046C5.03749 59.7783 2 52.1635 2 43.9426C2 35.851 4.7726 28.4655 9.71997 23.0981C14.7201 17.675 21.5725 14.6875 29.0524 14.6875C34.6038 14.6875 39.6731 16.4328 44.1693 19.9102L44.1694 19.9103C46.4496 21.6736 48.5322 23.8442 50.3794 26.3985Z" stroke="#B0B0B0" stroke-width="4"/>
<path d="M25.0009 42.964C25.0943 41.0973 25.7476 39.66 26.9609 38.652C28.1929 37.6253 29.8076 37.112 31.8049 37.112C33.1676 37.112 34.3343 37.3547 35.3049 37.84C36.2756 38.3067 37.0036 38.9507 37.4889 39.772C37.9929 40.5747 38.2449 41.4893 38.2449 42.516C38.2449 43.692 37.9369 44.6907 37.3209 45.512C36.7236 46.3147 36.0049 46.856 35.1649 47.136V47.248C36.2476 47.584 37.0876 48.1813 37.6849 49.04C38.3009 49.8987 38.6089 51 38.6089 52.344C38.6089 53.464 38.3476 54.4627 37.8249 55.34C37.3209 56.2173 36.5649 56.908 35.5569 57.412C34.5676 57.8973 33.3729 58.14 31.9729 58.14C29.8636 58.14 28.1463 57.608 26.8209 56.544C25.4956 55.48 24.7956 53.912 24.7209 51.84H28.5289C28.5663 52.7547 28.8743 53.492 29.4529 54.052C30.0503 54.5933 30.8623 54.864 31.8889 54.864C32.8409 54.864 33.5689 54.6027 34.0729 54.08C34.5956 53.5387 34.8569 52.848 34.8569 52.008C34.8569 50.888 34.5023 50.0853 33.7929 49.6C33.0836 49.1147 31.9823 48.872 30.4889 48.872H29.6769V45.652H30.4889C33.1396 45.652 34.4649 44.7653 34.4649 42.992C34.4649 42.1893 34.2223 41.564 33.7369 41.116C33.2703 40.668 32.5889 40.444 31.6929 40.444C30.8156 40.444 30.1343 40.6867 29.6489 41.172C29.1823 41.6387 28.9116 42.236 28.8369 42.964H25.0009ZM41.7067 47.528C41.7067 44.2987 42.2853 41.7693 43.4427 39.94C44.6187 38.1107 46.56 37.196 49.2667 37.196C51.9733 37.196 53.9053 38.1107 55.0627 39.94C56.2387 41.7693 56.8267 44.2987 56.8267 47.528C56.8267 50.776 56.2387 53.324 55.0627 55.172C53.9053 57.02 51.9733 57.944 49.2667 57.944C46.56 57.944 44.6187 57.02 43.4427 55.172C42.2853 53.324 41.7067 50.776 41.7067 47.528ZM52.9627 47.528C52.9627 46.1467 52.8693 44.9893 52.6827 44.056C52.5147 43.104 52.16 42.3293 51.6187 41.732C51.096 41.1347 50.312 40.836 49.2667 40.836C48.2213 40.836 47.428 41.1347 46.8867 41.732C46.364 42.3293 46.0093 43.104 45.8227 44.056C45.6547 44.9893 45.5707 46.1467 45.5707 47.528C45.5707 48.9467 45.6547 50.1413 45.8227 51.112C45.9907 52.064 46.3453 52.8387 46.8867 53.436C47.428 54.0147 48.2213 54.304 49.2667 54.304C50.312 54.304 51.1053 54.0147 51.6467 53.436C52.188 52.8387 52.5427 52.064 52.7107 51.112C52.8787 50.1413 52.9627 48.9467 52.9627 47.528ZM59.3602 42.6C59.3602 41.1813 59.7709 40.0707 60.5922 39.268C61.4322 38.4653 62.5056 38.064 63.8122 38.064C65.1189 38.064 66.1829 38.4653 67.0042 39.268C67.8442 40.0707 68.2642 41.1813 68.2642 42.6C68.2642 44.0373 67.8442 45.1573 67.0042 45.96C66.1829 46.7627 65.1189 47.164 63.8122 47.164C62.5056 47.164 61.4322 46.7627 60.5922 45.96C59.7709 45.1573 59.3602 44.0373 59.3602 42.6ZM77.3362 38.4L66.3322 58H62.5242L73.5002 38.4H77.3362ZM63.7842 40.416C62.7576 40.416 62.2442 41.144 62.2442 42.6C62.2442 44.0747 62.7576 44.812 63.7842 44.812C64.2882 44.812 64.6802 44.6347 64.9602 44.28C65.2402 43.9067 65.3802 43.3467 65.3802 42.6C65.3802 41.144 64.8482 40.416 63.7842 40.416ZM71.6522 53.772C71.6522 52.3347 72.0629 51.224 72.8842 50.44C73.7242 49.6373 74.7976 49.236 76.1042 49.236C77.4109 49.236 78.4656 49.6373 79.2682 50.44C80.0896 51.224 80.5002 52.3347 80.5002 53.772C80.5002 55.2093 80.0896 56.3293 79.2682 57.132C78.4656 57.9347 77.4109 58.336 76.1042 58.336C74.7789 58.336 73.7056 57.9347 72.8842 57.132C72.0629 56.3293 71.6522 55.2093 71.6522 53.772ZM76.0762 51.588C75.0122 51.588 74.4802 52.316 74.4802 53.772C74.4802 55.2467 75.0122 55.984 76.0762 55.984C77.1216 55.984 77.6442 55.2467 77.6442 53.772C77.6442 52.316 77.1216 51.588 76.0762 51.588Z" fill="#B0B0B0"/>
</g>
<path d="M39.9054 75.944C39.9054 76.456 39.7774 76.9467 39.5214 77.416C39.2654 77.8747 38.8868 78.2587 38.3854 78.568C37.8948 78.8773 37.3028 79.0533 36.6094 79.096V80.392H35.7454V79.096C34.7748 79.0107 33.9854 78.7013 33.3774 78.168C32.7694 77.624 32.4601 76.936 32.4494 76.104H34.0014C34.0441 76.552 34.2094 76.9413 34.4974 77.272C34.7961 77.6027 35.2121 77.8107 35.7454 77.896V73.896C35.0308 73.7147 34.4548 73.528 34.0174 73.336C33.5801 73.144 33.2068 72.8453 32.8974 72.44C32.5881 72.0347 32.4334 71.4907 32.4334 70.808C32.4334 69.944 32.7321 69.2293 33.3294 68.664C33.9374 68.0987 34.7428 67.784 35.7454 67.72V66.392H36.6094V67.72C37.5161 67.7947 38.2468 68.088 38.8014 68.6C39.3561 69.1013 39.6761 69.7573 39.7614 70.568H38.2094C38.1561 70.1947 37.9908 69.8587 37.7134 69.56C37.4361 69.2507 37.0681 69.048 36.6094 68.952V72.856C37.3134 73.0373 37.8841 73.224 38.3214 73.416C38.7694 73.5973 39.1428 73.8907 39.4414 74.296C39.7508 74.7013 39.9054 75.2507 39.9054 75.944ZM33.9214 70.728C33.9214 71.2507 34.0761 71.6507 34.3854 71.928C34.6948 72.2053 35.1481 72.4347 35.7454 72.616V68.92C35.1908 68.9733 34.7481 69.1547 34.4174 69.464C34.0868 69.7627 33.9214 70.184 33.9214 70.728ZM36.6094 77.912C37.1854 77.848 37.6334 77.64 37.9534 77.288C38.2841 76.936 38.4494 76.5147 38.4494 76.024C38.4494 75.5013 38.2894 75.1013 37.9694 74.824C37.6494 74.536 37.1961 74.3067 36.6094 74.136V77.912ZM49.1946 68.696H43.5786V72.344C43.8239 72.0027 44.1866 71.7253 44.6666 71.512C45.1466 71.288 45.6639 71.176 46.2186 71.176C47.1039 71.176 47.8239 71.3627 48.3786 71.736C48.9332 72.0987 49.3279 72.5733 49.5626 73.16C49.8079 73.736 49.9306 74.3493 49.9306 75C49.9306 75.768 49.7866 76.456 49.4986 77.064C49.2106 77.672 48.7679 78.152 48.1706 78.504C47.5839 78.856 46.8532 79.032 45.9786 79.032C44.8586 79.032 43.9519 78.744 43.2586 78.168C42.5652 77.592 42.1439 76.824 41.9946 75.864H43.4186C43.5572 76.472 43.8506 76.9467 44.2986 77.288C44.7466 77.6293 45.3119 77.8 45.9946 77.8C46.8372 77.8 47.4719 77.5493 47.8986 77.048C48.3252 76.536 48.5386 75.864 48.5386 75.032C48.5386 74.2 48.3252 73.56 47.8986 73.112C47.4719 72.6533 46.8426 72.424 46.0106 72.424C45.4452 72.424 44.9492 72.5627 44.5226 72.84C44.1066 73.1067 43.8026 73.4747 43.6106 73.944H42.2346V67.416H49.1946V68.696ZM51.9694 79.096C51.6921 79.096 51.4574 79 51.2654 78.808C51.0734 78.616 50.9774 78.3813 50.9774 78.104C50.9774 77.8267 51.0734 77.592 51.2654 77.4C51.4574 77.208 51.6921 77.112 51.9694 77.112C52.2361 77.112 52.4601 77.208 52.6414 77.4C52.8334 77.592 52.9294 77.8267 52.9294 78.104C52.9294 78.3813 52.8334 78.616 52.6414 78.808C52.4601 79 52.2361 79.096 51.9694 79.096ZM54.0248 73.096C54.0248 71.2613 54.3235 69.832 54.9208 68.808C55.5181 67.7733 56.5635 67.256 58.0568 67.256C59.5395 67.256 60.5795 67.7733 61.1768 68.808C61.7741 69.832 62.0728 71.2613 62.0728 73.096C62.0728 74.9627 61.7741 76.4133 61.1768 77.448C60.5795 78.4827 59.5395 79 58.0568 79C56.5635 79 55.5181 78.4827 54.9208 77.448C54.3235 76.4133 54.0248 74.9627 54.0248 73.096ZM60.6328 73.096C60.6328 72.168 60.5688 71.384 60.4408 70.744C60.3235 70.0933 60.0728 69.5707 59.6888 69.176C59.3155 68.7813 58.7715 68.584 58.0568 68.584C57.3315 68.584 56.7768 68.7813 56.3928 69.176C56.0195 69.5707 55.7688 70.0933 55.6408 70.744C55.5235 71.384 55.4648 72.168 55.4648 73.096C55.4648 74.056 55.5235 74.8613 55.6408 75.512C55.7688 76.1627 56.0195 76.6853 56.3928 77.08C56.7768 77.4747 57.3315 77.672 58.0568 77.672C58.7715 77.672 59.3155 77.4747 59.6888 77.08C60.0728 76.6853 60.3235 76.1627 60.4408 75.512C60.5688 74.8613 60.6328 74.056 60.6328 73.096ZM63.4717 73.096C63.4717 71.2613 63.7704 69.832 64.3677 68.808C64.965 67.7733 66.0104 67.256 67.5037 67.256C68.9864 67.256 70.0264 67.7733 70.6237 68.808C71.221 69.832 71.5197 71.2613 71.5197 73.096C71.5197 74.9627 71.221 76.4133 70.6237 77.448C70.0264 78.4827 68.9864 79 67.5037 79C66.0104 79 64.965 78.4827 64.3677 77.448C63.7704 76.4133 63.4717 74.9627 63.4717 73.096ZM70.0797 73.096C70.0797 72.168 70.0157 71.384 69.8877 70.744C69.7704 70.0933 69.5197 69.5707 69.1357 69.176C68.7624 68.7813 68.2184 68.584 67.5037 68.584C66.7784 68.584 66.2237 68.7813 65.8397 69.176C65.4664 69.5707 65.2157 70.0933 65.0877 70.744C64.9704 71.384 64.9117 72.168 64.9117 73.096C64.9117 74.056 64.9704 74.8613 65.0877 75.512C65.2157 76.1627 65.4664 76.6853 65.8397 77.08C66.2237 77.4747 66.7784 77.672 67.5037 77.672C68.2184 77.672 68.7624 77.4747 69.1357 77.08C69.5197 76.6853 69.7704 76.1627 69.8877 75.512C70.0157 74.8613 70.0797 74.056 70.0797 73.096Z" fill="#B0B0B0"/>
<defs>
<clipPath id="clip0_12_1360">
<rect width="104" height="104" fill="white"/>
</clipPath>
</defs>
</svg>
