<svg width="104" height="104" viewBox="0 0 104 104" fill="none" xmlns="http://www.w3.org/2000/svg">
<path d="M27.3185 34.2V30.588H34.0665V51H30.0345V34.2H27.3185ZM51.6591 33.976H42.5871V38.764C42.9791 38.2787 43.5391 37.8867 44.2671 37.588C44.9951 37.2707 45.7697 37.112 46.5911 37.112C48.0844 37.112 49.3071 37.4387 50.2591 38.092C51.2111 38.7453 51.9017 39.5853 52.3311 40.612C52.7604 41.62 52.9751 42.7027 52.9751 43.86C52.9751 46.0067 52.3591 47.7333 51.1271 49.04C49.9137 50.3467 48.1777 51 45.9191 51C43.7911 51 42.0924 50.468 40.8231 49.404C39.5537 48.34 38.8351 46.9493 38.6671 45.232H42.4751C42.6431 45.9787 43.0164 46.576 43.5951 47.024C44.1924 47.472 44.9484 47.696 45.8631 47.696C46.9644 47.696 47.7951 47.3507 48.3551 46.66C48.9151 45.9693 49.1951 45.0547 49.1951 43.916C49.1951 42.7587 48.9057 41.8813 48.3271 41.284C47.7671 40.668 46.9364 40.36 45.8351 40.36C45.0511 40.36 44.3977 40.556 43.8751 40.948C43.3524 41.34 42.9791 41.8627 42.7551 42.516H39.0031V30.532H51.6591V33.976ZM55.5106 35.6C55.5106 34.1813 55.9213 33.0707 56.7426 32.268C57.5826 31.4653 58.6559 31.064 59.9626 31.064C61.2693 31.064 62.3333 31.4653 63.1546 32.268C63.9946 33.0707 64.4146 34.1813 64.4146 35.6C64.4146 37.0373 63.9946 38.1573 63.1546 38.96C62.3333 39.7627 61.2693 40.164 59.9626 40.164C58.6559 40.164 57.5826 39.7627 56.7426 38.96C55.9213 38.1573 55.5106 37.0373 55.5106 35.6ZM73.4866 31.4L62.4826 51H58.6746L69.6506 31.4H73.4866ZM59.9346 33.416C58.9079 33.416 58.3946 34.144 58.3946 35.6C58.3946 37.0747 58.9079 37.812 59.9346 37.812C60.4386 37.812 60.8306 37.6347 61.1106 37.28C61.3906 36.9067 61.5306 36.3467 61.5306 35.6C61.5306 34.144 60.9986 33.416 59.9346 33.416ZM67.8026 46.772C67.8026 45.3347 68.2133 44.224 69.0346 43.44C69.8746 42.6373 70.9479 42.236 72.2546 42.236C73.5613 42.236 74.6159 42.6373 75.4186 43.44C76.2399 44.224 76.6506 45.3347 76.6506 46.772C76.6506 48.2093 76.2399 49.3293 75.4186 50.132C74.6159 50.9347 73.5613 51.336 72.2546 51.336C70.9293 51.336 69.8559 50.9347 69.0346 50.132C68.2133 49.3293 67.8026 48.2093 67.8026 46.772ZM72.2266 44.588C71.1626 44.588 70.6306 45.316 70.6306 46.772C70.6306 48.2467 71.1626 48.984 72.2266 48.984C73.2719 48.984 73.7946 48.2467 73.7946 46.772C73.7946 45.316 73.2719 44.588 72.2266 44.588Z" fill="white"/>
<path d="M50.3794 19.711L51.9999 21.9519L53.6206 19.7111C55.4685 17.156 57.5504 14.9861 59.8298 13.2228C64.3269 9.74533 69.3963 8 74.9476 8C82.4274 8 89.279 10.9874 94.2792 16.4106C99.2274 21.778 102 29.1635 102 37.2543C102 45.4761 98.9632 53.0909 92.146 61.3163L92.1459 61.3164C85.9855 68.7502 77.0908 76.3383 66.5696 85.304L66.5694 85.3042L66.48 85.3803C62.9236 88.4117 58.889 91.8506 54.7023 95.5119L54.7012 95.5128C53.9559 96.1656 52.9962 96.5266 52 96.5266C51.0036 96.5266 50.0446 96.1659 49.2973 95.5114L49.296 95.5102C45.0787 91.823 41.0183 88.3623 37.4444 85.3162L37.4329 85.3065L37.4328 85.3064C26.9101 76.3392 18.0154 68.7503 11.8549 61.3171C5.03749 53.0908 2 45.476 2 37.2551C2 29.1635 4.7726 21.778 9.71997 16.4106C14.7201 10.9875 21.5725 8 29.0524 8C34.6038 8 39.6731 9.74534 44.1693 13.2227L44.1694 13.2228C46.4496 14.9861 48.5322 17.1567 50.3794 19.711Z" stroke="#B0B0B0" stroke-width="4"/>
<path d="M27.2775 34.5125V30.9005H34.0255V51.3125H29.9935V34.5125H27.2775ZM37.8981 40.8405C37.8981 37.6112 38.4767 35.0818 39.6341 33.2525C40.8101 31.4232 42.7514 30.5085 45.4581 30.5085C48.1647 30.5085 50.0967 31.4232 51.2541 33.2525C52.4301 35.0818 53.0181 37.6112 53.0181 40.8405C53.0181 44.0885 52.4301 46.6365 51.2541 48.4845C50.0967 50.3325 48.1647 51.2565 45.4581 51.2565C42.7514 51.2565 40.8101 50.3325 39.6341 48.4845C38.4767 46.6365 37.8981 44.0885 37.8981 40.8405ZM49.1541 40.8405C49.1541 39.4592 49.0607 38.3018 48.8741 37.3685C48.7061 36.4165 48.3514 35.6418 47.8101 35.0445C47.2874 34.4472 46.5034 34.1485 45.4581 34.1485C44.4127 34.1485 43.6194 34.4472 43.0781 35.0445C42.5554 35.6418 42.2007 36.4165 42.0141 37.3685C41.8461 38.3018 41.7621 39.4592 41.7621 40.8405C41.7621 42.2592 41.8461 43.4538 42.0141 44.4245C42.1821 45.3765 42.5367 46.1512 43.0781 46.7485C43.6194 47.3272 44.4127 47.6165 45.4581 47.6165C46.5034 47.6165 47.2967 47.3272 47.8381 46.7485C48.3794 46.1512 48.7341 45.3765 48.9021 44.4245C49.0701 43.4538 49.1541 42.2592 49.1541 40.8405ZM55.5516 35.9125C55.5516 34.4938 55.9623 33.3832 56.7836 32.5805C57.6236 31.7778 58.697 31.3765 60.0036 31.3765C61.3103 31.3765 62.3743 31.7778 63.1956 32.5805C64.0356 33.3832 64.4556 34.4938 64.4556 35.9125C64.4556 37.3498 64.0356 38.4698 63.1956 39.2725C62.3743 40.0752 61.3103 40.4765 60.0036 40.4765C58.697 40.4765 57.6236 40.0752 56.7836 39.2725C55.9623 38.4698 55.5516 37.3498 55.5516 35.9125ZM73.5276 31.7125L62.5236 51.3125H58.7156L69.6916 31.7125H73.5276ZM59.9756 33.7285C58.949 33.7285 58.4356 34.4565 58.4356 35.9125C58.4356 37.3872 58.949 38.1245 59.9756 38.1245C60.4796 38.1245 60.8716 37.9472 61.1516 37.5925C61.4316 37.2192 61.5716 36.6592 61.5716 35.9125C61.5716 34.4565 61.0396 33.7285 59.9756 33.7285ZM67.8436 47.0845C67.8436 45.6472 68.2543 44.5365 69.0756 43.7525C69.9156 42.9498 70.989 42.5485 72.2956 42.5485C73.6023 42.5485 74.657 42.9498 75.4596 43.7525C76.281 44.5365 76.6916 45.6472 76.6916 47.0845C76.6916 48.5218 76.281 49.6418 75.4596 50.4445C74.657 51.2472 73.6023 51.6485 72.2956 51.6485C70.9703 51.6485 69.897 51.2472 69.0756 50.4445C68.2543 49.6418 67.8436 48.5218 67.8436 47.0845ZM72.2676 44.9005C71.2036 44.9005 70.6716 45.6285 70.6716 47.0845C70.6716 48.5592 71.2036 49.2965 72.2676 49.2965C73.313 49.2965 73.8356 48.5592 73.8356 47.0845C73.8356 45.6285 73.313 44.9005 72.2676 44.9005Z" fill="#B0B0B0"/>
<path d="M42.8508 69.2565C42.8508 69.7685 42.7228 70.2592 42.4668 70.7285C42.2108 71.1872 41.8321 71.5712 41.3308 71.8805C40.8401 72.1898 40.2481 72.3658 39.5548 72.4085V73.7045H38.6908V72.4085C37.7201 72.3232 36.9308 72.0138 36.3228 71.4805C35.7148 70.9365 35.4054 70.2485 35.3948 69.4165H36.9468C36.9894 69.8645 37.1548 70.2538 37.4428 70.5845C37.7414 70.9152 38.1574 71.1232 38.6908 71.2085V67.2085C37.9761 67.0272 37.4001 66.8405 36.9628 66.6485C36.5254 66.4565 36.1521 66.1578 35.8428 65.7525C35.5334 65.3472 35.3788 64.8032 35.3788 64.1205C35.3788 63.2565 35.6774 62.5418 36.2748 61.9765C36.8828 61.4112 37.6881 61.0965 38.6908 61.0325V59.7045H39.5548V61.0325C40.4614 61.1072 41.1921 61.4005 41.7468 61.9125C42.3014 62.4138 42.6214 63.0698 42.7068 63.8805H41.1548C41.1014 63.5072 40.9361 63.1712 40.6588 62.8725C40.3814 62.5632 40.0134 62.3605 39.5548 62.2645V66.1685C40.2588 66.3498 40.8294 66.5365 41.2668 66.7285C41.7148 66.9098 42.0881 67.2032 42.3868 67.6085C42.6961 68.0138 42.8508 68.5632 42.8508 69.2565ZM36.8668 64.0405C36.8668 64.5632 37.0214 64.9632 37.3308 65.2405C37.6401 65.5178 38.0934 65.7472 38.6908 65.9285V62.2325C38.1361 62.2858 37.6934 62.4672 37.3628 62.7765C37.0321 63.0752 36.8668 63.4965 36.8668 64.0405ZM39.5548 71.2245C40.1308 71.1605 40.5788 70.9525 40.8988 70.6005C41.2294 70.2485 41.3948 69.8272 41.3948 69.3365C41.3948 68.8138 41.2348 68.4138 40.9148 68.1365C40.5948 67.8485 40.1414 67.6192 39.5548 67.4485V71.2245ZM44.3799 62.0725V60.7445H47.3879V72.3125H45.9159V62.0725H44.3799ZM49.9929 72.4085C49.7155 72.4085 49.4809 72.3125 49.2889 72.1205C49.0969 71.9285 49.0009 71.6938 49.0009 71.4165C49.0009 71.1392 49.0969 70.9045 49.2889 70.7125C49.4809 70.5205 49.7155 70.4245 49.9929 70.4245C50.2595 70.4245 50.4835 70.5205 50.6649 70.7125C50.8569 70.9045 50.9529 71.1392 50.9529 71.4165C50.9529 71.6938 50.8569 71.9285 50.6649 72.1205C50.4835 72.3125 50.2595 72.4085 49.9929 72.4085ZM59.4243 62.0085H53.8083V65.6565C54.0536 65.3152 54.4163 65.0378 54.8963 64.8245C55.3763 64.6005 55.8936 64.4885 56.4483 64.4885C57.3336 64.4885 58.0536 64.6752 58.6083 65.0485C59.1629 65.4112 59.5576 65.8858 59.7923 66.4725C60.0376 67.0485 60.1603 67.6618 60.1603 68.3125C60.1603 69.0805 60.0163 69.7685 59.7283 70.3765C59.4403 70.9845 58.9976 71.4645 58.4003 71.8165C57.8136 72.1685 57.0829 72.3445 56.2083 72.3445C55.0883 72.3445 54.1816 72.0565 53.4883 71.4805C52.7949 70.9045 52.3736 70.1365 52.2243 69.1765H53.6483C53.7869 69.7845 54.0803 70.2592 54.5283 70.6005C54.9763 70.9418 55.5416 71.1125 56.2243 71.1125C57.0669 71.1125 57.7016 70.8618 58.1283 70.3605C58.5549 69.8485 58.7683 69.1765 58.7683 68.3445C58.7683 67.5125 58.5549 66.8725 58.1283 66.4245C57.7016 65.9658 57.0723 65.7365 56.2403 65.7365C55.6749 65.7365 55.1789 65.8752 54.7523 66.1525C54.3363 66.4192 54.0323 66.7872 53.8403 67.2565H52.4643V60.7285H59.4243V62.0085ZM63.3671 69.2085C63.4738 69.8165 63.7191 70.2858 64.1031 70.6165C64.4978 70.9472 65.0258 71.1125 65.6871 71.1125C66.5725 71.1125 67.2231 70.7658 67.6391 70.0725C68.0658 69.3792 68.2685 68.2112 68.2471 66.5685C68.0231 67.0485 67.6498 67.4272 67.1271 67.7045C66.6045 67.9712 66.0231 68.1045 65.3831 68.1045C64.6685 68.1045 64.0285 67.9605 63.4631 67.6725C62.9085 67.3738 62.4711 66.9418 62.1511 66.3765C61.8311 65.8112 61.6711 65.1285 61.6711 64.3285C61.6711 63.1872 62.0018 62.2698 62.6631 61.5765C63.3245 60.8725 64.2631 60.5205 65.4791 60.5205C66.9725 60.5205 68.0178 61.0058 68.6151 61.9765C69.2231 62.9472 69.5271 64.3925 69.5271 66.3125C69.5271 67.6565 69.4045 68.7658 69.1591 69.6405C68.9245 70.5152 68.5191 71.1818 67.9431 71.6405C67.3778 72.0992 66.5991 72.3285 65.6071 72.3285C64.5191 72.3285 63.6711 72.0352 63.0631 71.4485C62.4551 70.8618 62.1085 70.1152 62.0231 69.2085H63.3671ZM65.6231 66.8725C66.3378 66.8725 66.9245 66.6538 67.3831 66.2165C67.8418 65.7685 68.0711 65.1658 68.0711 64.4085C68.0711 63.6085 67.8471 62.9632 67.3991 62.4725C66.9511 61.9818 66.3218 61.7365 65.5111 61.7365C64.7645 61.7365 64.1671 61.9712 63.7191 62.4405C63.2818 62.9098 63.0631 63.5285 63.0631 64.2965C63.0631 65.0752 63.2818 65.6992 63.7191 66.1685C64.1565 66.6378 64.7911 66.8725 65.6231 66.8725Z" fill="#B0B0B0"/>
</svg>
