<svg width="104" height="104" viewBox="0 0 104 104" fill="none" xmlns="http://www.w3.org/2000/svg">
<g clip-path="url(#clip0_12_1370)">
<path d="M50.3794 26.3985L51.9999 28.6394L53.6206 26.3986C55.4685 23.8435 57.5504 21.6736 59.8298 19.9103C64.3269 16.4328 69.3963 14.6875 74.9476 14.6875C82.4274 14.6875 89.279 17.6749 94.2792 23.0981C99.2274 28.4655 102 35.851 102 43.9418C102 52.1636 98.9632 59.7784 92.146 68.0038L92.1459 68.0039C85.9855 75.4377 77.0908 83.0258 66.5696 91.9915L66.5694 91.9917L66.48 92.0678C62.9236 95.0992 58.889 98.5381 54.7023 102.199L54.7012 102.2C53.9559 102.853 52.9962 103.214 52 103.214C51.0036 103.214 50.0446 102.853 49.2973 102.199L49.296 102.198C45.0787 98.5105 41.0183 95.0498 37.4444 92.0037L37.4329 91.994L37.4328 91.9939C26.9101 83.0267 18.0154 75.4378 11.8549 68.0046C5.03749 59.7783 2 52.1635 2 43.9426C2 35.851 4.7726 28.4655 9.71997 23.0981C14.7201 17.675 21.5725 14.6875 29.0524 14.6875C34.6038 14.6875 39.6731 16.4328 44.1693 19.9102L44.1694 19.9103C46.4496 21.6736 48.5322 23.8442 50.3794 26.3985Z" stroke="#B0B0B0" stroke-width="4"/>
<path d="M27.0598 53.576C28.8518 52.0827 30.2798 50.8413 31.3438 49.852C32.4078 48.844 33.2944 47.7987 34.0038 46.716C34.7131 45.6333 35.0678 44.5693 35.0678 43.524C35.0678 42.572 34.8438 41.8253 34.3958 41.284C33.9478 40.7427 33.2571 40.472 32.3238 40.472C31.3904 40.472 30.6718 40.7893 30.1678 41.424C29.6638 42.04 29.4024 42.8893 29.3838 43.972H25.5758C25.6504 41.732 26.3131 40.0333 27.5638 38.876C28.8331 37.7187 30.4384 37.14 32.3798 37.14C34.5078 37.14 36.1411 37.7093 37.2798 38.848C38.4184 39.968 38.9878 41.452 38.9878 43.3C38.9878 44.756 38.5958 46.1467 37.8118 47.472C37.0278 48.7973 36.1318 49.9547 35.1238 50.944C34.1158 51.9147 32.7998 53.0907 31.1758 54.472H39.4358V57.72H25.6038V54.808L27.0598 53.576ZM55.6259 40.976H46.5539V45.764C46.9459 45.2787 47.5059 44.8867 48.2339 44.588C48.9619 44.2707 49.7365 44.112 50.5579 44.112C52.0512 44.112 53.2739 44.4387 54.2259 45.092C55.1779 45.7453 55.8685 46.5853 56.2979 47.612C56.7272 48.62 56.9419 49.7027 56.9419 50.86C56.9419 53.0067 56.3259 54.7333 55.0939 56.04C53.8805 57.3467 52.1445 58 49.8859 58C47.7579 58 46.0592 57.468 44.7899 56.404C43.5205 55.34 42.8019 53.9493 42.6339 52.232H46.4419C46.6099 52.9787 46.9832 53.576 47.5619 54.024C48.1592 54.472 48.9152 54.696 49.8299 54.696C50.9312 54.696 51.7619 54.3507 52.3219 53.66C52.8819 52.9693 53.1619 52.0547 53.1619 50.916C53.1619 49.7587 52.8725 48.8813 52.2939 48.284C51.7339 47.668 50.9032 47.36 49.8019 47.36C49.0179 47.36 48.3645 47.556 47.8419 47.948C47.3192 48.34 46.9459 48.8627 46.7219 49.516H42.9699V37.532H55.6259V40.976ZM59.4774 42.6C59.4774 41.1813 59.8881 40.0707 60.7094 39.268C61.5494 38.4653 62.6227 38.064 63.9294 38.064C65.2361 38.064 66.3001 38.4653 67.1214 39.268C67.9614 40.0707 68.3814 41.1813 68.3814 42.6C68.3814 44.0373 67.9614 45.1573 67.1214 45.96C66.3001 46.7627 65.2361 47.164 63.9294 47.164C62.6227 47.164 61.5494 46.7627 60.7094 45.96C59.8881 45.1573 59.4774 44.0373 59.4774 42.6ZM77.4534 38.4L66.4494 58H62.6414L73.6174 38.4H77.4534ZM63.9014 40.416C62.8747 40.416 62.3614 41.144 62.3614 42.6C62.3614 44.0747 62.8747 44.812 63.9014 44.812C64.4054 44.812 64.7974 44.6347 65.0774 44.28C65.3574 43.9067 65.4974 43.3467 65.4974 42.6C65.4974 41.144 64.9654 40.416 63.9014 40.416ZM71.7694 53.772C71.7694 52.3347 72.1801 51.224 73.0014 50.44C73.8414 49.6373 74.9147 49.236 76.2214 49.236C77.5281 49.236 78.5827 49.6373 79.3854 50.44C80.2067 51.224 80.6174 52.3347 80.6174 53.772C80.6174 55.2093 80.2067 56.3293 79.3854 57.132C78.5827 57.9347 77.5281 58.336 76.2214 58.336C74.8961 58.336 73.8227 57.9347 73.0014 57.132C72.1801 56.3293 71.7694 55.2093 71.7694 53.772ZM76.1934 51.588C75.1294 51.588 74.5974 52.316 74.5974 53.772C74.5974 55.2467 75.1294 55.984 76.1934 55.984C77.2387 55.984 77.7614 55.2467 77.7614 53.772C77.7614 52.316 77.2387 51.588 76.1934 51.588Z" fill="#B0B0B0"/>
</g>
<path d="M40.432 75.944C40.432 76.456 40.304 76.9467 40.048 77.416C39.792 77.8747 39.4133 78.2587 38.912 78.568C38.4213 78.8773 37.8293 79.0533 37.136 79.096V80.392H36.272V79.096C35.3013 79.0107 34.512 78.7013 33.904 78.168C33.296 77.624 32.9867 76.936 32.976 76.104H34.528C34.5707 76.552 34.736 76.9413 35.024 77.272C35.3227 77.6027 35.7387 77.8107 36.272 77.896V73.896C35.5573 73.7147 34.9813 73.528 34.544 73.336C34.1067 73.144 33.7333 72.8453 33.424 72.44C33.1147 72.0347 32.96 71.4907 32.96 70.808C32.96 69.944 33.2587 69.2293 33.856 68.664C34.464 68.0987 35.2693 67.784 36.272 67.72V66.392H37.136V67.72C38.0427 67.7947 38.7733 68.088 39.328 68.6C39.8827 69.1013 40.2027 69.7573 40.288 70.568H38.736C38.6827 70.1947 38.5173 69.8587 38.24 69.56C37.9627 69.2507 37.5947 69.048 37.136 68.952V72.856C37.84 73.0373 38.4107 73.224 38.848 73.416C39.296 73.5973 39.6693 73.8907 39.968 74.296C40.2773 74.7013 40.432 75.2507 40.432 75.944ZM34.448 70.728C34.448 71.2507 34.6027 71.6507 34.912 71.928C35.2213 72.2053 35.6747 72.4347 36.272 72.616V68.92C35.7173 68.9733 35.2747 69.1547 34.944 69.464C34.6133 69.7627 34.448 70.184 34.448 70.728ZM37.136 77.912C37.712 77.848 38.16 77.64 38.48 77.288C38.8107 76.936 38.976 76.5147 38.976 76.024C38.976 75.5013 38.816 75.1013 38.496 74.824C38.176 74.536 37.7227 74.3067 37.136 74.136V77.912ZM41.9931 76.424V75.32L47.6091 67.544H49.3531V75.16H50.9531V76.424H49.3531V79H47.9131V76.424H41.9931ZM47.9771 69.064L43.6731 75.16H47.9771V69.064ZM52.5116 79.096C52.2343 79.096 51.9996 79 51.8076 78.808C51.6156 78.616 51.5196 78.3813 51.5196 78.104C51.5196 77.8267 51.6156 77.592 51.8076 77.4C51.9996 77.208 52.2343 77.112 52.5116 77.112C52.7783 77.112 53.0023 77.208 53.1836 77.4C53.3756 77.592 53.4716 77.8267 53.4716 78.104C53.4716 78.3813 53.3756 78.616 53.1836 78.808C53.0023 79 52.7783 79.096 52.5116 79.096ZM54.391 77.832C55.7457 76.744 56.807 75.8533 57.575 75.16C58.343 74.456 58.9883 73.7253 59.511 72.968C60.0443 72.2 60.311 71.448 60.311 70.712C60.311 70.0187 60.1403 69.4747 59.799 69.08C59.4683 68.6747 58.9297 68.472 58.183 68.472C57.4577 68.472 56.8923 68.7013 56.487 69.16C56.0923 69.608 55.879 70.2107 55.847 70.968H54.439C54.4817 69.7733 54.8443 68.8507 55.527 68.2C56.2097 67.5493 57.0897 67.224 58.167 67.224C59.2657 67.224 60.135 67.528 60.775 68.136C61.4257 68.744 61.751 69.5813 61.751 70.648C61.751 71.5333 61.4843 72.3973 60.951 73.24C60.4283 74.072 59.831 74.808 59.159 75.448C58.487 76.0773 57.6283 76.8133 56.583 77.656H62.087V78.872H54.391V77.832ZM65.0421 75.896C65.1488 76.504 65.3941 76.9733 65.7781 77.304C66.1728 77.6347 66.7008 77.8 67.3621 77.8C68.2475 77.8 68.8981 77.4533 69.3141 76.76C69.7408 76.0667 69.9435 74.8987 69.9221 73.256C69.6981 73.736 69.3248 74.1147 68.8021 74.392C68.2795 74.6587 67.6981 74.792 67.0581 74.792C66.3435 74.792 65.7035 74.648 65.1381 74.36C64.5835 74.0613 64.1461 73.6293 63.8261 73.064C63.5061 72.4987 63.3461 71.816 63.3461 71.016C63.3461 69.8747 63.6768 68.9573 64.3381 68.264C64.9995 67.56 65.9381 67.208 67.1541 67.208C68.6475 67.208 69.6928 67.6933 70.2901 68.664C70.8981 69.6347 71.2021 71.08 71.2021 73C71.2021 74.344 71.0795 75.4533 70.8341 76.328C70.5995 77.2027 70.1941 77.8693 69.6181 78.328C69.0528 78.7867 68.2741 79.016 67.2821 79.016C66.1941 79.016 65.3461 78.7227 64.7381 78.136C64.1301 77.5493 63.7835 76.8027 63.6981 75.896H65.0421ZM67.2981 73.56C68.0128 73.56 68.5995 73.3413 69.0581 72.904C69.5168 72.456 69.7461 71.8533 69.7461 71.096C69.7461 70.296 69.5221 69.6507 69.0741 69.16C68.6261 68.6693 67.9968 68.424 67.1861 68.424C66.4395 68.424 65.8421 68.6587 65.3941 69.128C64.9568 69.5973 64.7381 70.216 64.7381 70.984C64.7381 71.7627 64.9568 72.3867 65.3941 72.856C65.8315 73.3253 66.4661 73.56 67.2981 73.56Z" fill="#B0B0B0"/>
<defs>
<clipPath id="clip0_12_1370">
<rect width="104" height="104" fill="white"/>
</clipPath>
</defs>
</svg>
