<svg width="104" height="104" viewBox="0 0 104 104" fill="none" xmlns="http://www.w3.org/2000/svg">
<path d="M50.3794 19.3985L51.9999 21.6394L53.6206 19.3986C55.4685 16.8435 57.5504 14.6736 59.8298 12.9103C64.3269 9.43283 69.3963 7.6875 74.9476 7.6875C82.4274 7.6875 89.279 10.6749 94.2792 16.0981C99.2274 21.4655 102 28.851 102 36.9418C102 45.1636 98.9632 52.7784 92.146 61.0038L92.1459 61.0039C85.9855 68.4377 77.0908 76.0258 66.5696 84.9915L66.5694 84.9917L66.48 85.0678C62.9236 88.0992 58.889 91.5381 54.7023 95.1994L54.7012 95.2003C53.9559 95.8531 52.9962 96.2141 52 96.2141C51.0036 96.2141 50.0446 95.8534 49.2973 95.1989L49.296 95.1977C45.0787 91.5105 41.0183 88.0498 37.4444 85.0037L37.4329 84.994L37.4328 84.9939C26.9101 76.0267 18.0154 68.4378 11.8549 61.0046C5.03749 52.7783 2 45.1635 2 36.9426C2 28.851 4.7726 21.4655 9.71997 16.0981C14.7201 10.675 21.5725 7.6875 29.0524 7.6875C34.6038 7.6875 39.6731 9.43284 44.1693 12.9102L44.1694 12.9103C46.4496 14.6736 48.5322 16.8442 50.3794 19.3985Z" stroke="#B0B0B0" stroke-width="4"/>
<path d="M27.3185 34.2V30.588H34.0665V51H30.0345V34.2H27.3185ZM51.6591 33.976H42.5871V38.764C42.9791 38.2787 43.5391 37.8867 44.2671 37.588C44.9951 37.2707 45.7697 37.112 46.5911 37.112C48.0844 37.112 49.3071 37.4387 50.2591 38.092C51.2111 38.7453 51.9017 39.5853 52.3311 40.612C52.7604 41.62 52.9751 42.7027 52.9751 43.86C52.9751 46.0067 52.3591 47.7333 51.1271 49.04C49.9137 50.3467 48.1777 51 45.9191 51C43.7911 51 42.0924 50.468 40.8231 49.404C39.5537 48.34 38.8351 46.9493 38.6671 45.232H42.4751C42.6431 45.9787 43.0164 46.576 43.5951 47.024C44.1924 47.472 44.9484 47.696 45.8631 47.696C46.9644 47.696 47.7951 47.3507 48.3551 46.66C48.9151 45.9693 49.1951 45.0547 49.1951 43.916C49.1951 42.7587 48.9057 41.8813 48.3271 41.284C47.7671 40.668 46.9364 40.36 45.8351 40.36C45.0511 40.36 44.3977 40.556 43.8751 40.948C43.3524 41.34 42.9791 41.8627 42.7551 42.516H39.0031V30.532H51.6591V33.976ZM55.5106 35.6C55.5106 34.1813 55.9213 33.0707 56.7426 32.268C57.5826 31.4653 58.6559 31.064 59.9626 31.064C61.2693 31.064 62.3333 31.4653 63.1546 32.268C63.9946 33.0707 64.4146 34.1813 64.4146 35.6C64.4146 37.0373 63.9946 38.1573 63.1546 38.96C62.3333 39.7627 61.2693 40.164 59.9626 40.164C58.6559 40.164 57.5826 39.7627 56.7426 38.96C55.9213 38.1573 55.5106 37.0373 55.5106 35.6ZM73.4866 31.4L62.4826 51H58.6746L69.6506 31.4H73.4866ZM59.9346 33.416C58.9079 33.416 58.3946 34.144 58.3946 35.6C58.3946 37.0747 58.9079 37.812 59.9346 37.812C60.4386 37.812 60.8306 37.6347 61.1106 37.28C61.3906 36.9067 61.5306 36.3467 61.5306 35.6C61.5306 34.144 60.9986 33.416 59.9346 33.416ZM67.8026 46.772C67.8026 45.3347 68.2133 44.224 69.0346 43.44C69.8746 42.6373 70.9479 42.236 72.2546 42.236C73.5613 42.236 74.6159 42.6373 75.4186 43.44C76.2399 44.224 76.6506 45.3347 76.6506 46.772C76.6506 48.2093 76.2399 49.3293 75.4186 50.132C74.6159 50.9347 73.5613 51.336 72.2546 51.336C70.9293 51.336 69.8559 50.9347 69.0346 50.132C68.2133 49.3293 67.8026 48.2093 67.8026 46.772ZM72.2266 44.588C71.1626 44.588 70.6306 45.316 70.6306 46.772C70.6306 48.2467 71.1626 48.984 72.2266 48.984C73.2719 48.984 73.7946 48.2467 73.7946 46.772C73.7946 45.316 73.2719 44.588 72.2266 44.588Z" fill="#B0B0B0"/>
<path d="M40.7023 68.944C40.7023 69.456 40.5743 69.9467 40.3183 70.416C40.0623 70.8747 39.6836 71.2587 39.1823 71.568C38.6916 71.8773 38.0996 72.0533 37.4063 72.096V73.392H36.5423V72.096C35.5716 72.0107 34.7823 71.7013 34.1743 71.168C33.5663 70.624 33.257 69.936 33.2463 69.104H34.7983C34.841 69.552 35.0063 69.9413 35.2943 70.272C35.593 70.6027 36.009 70.8107 36.5423 70.896V66.896C35.8276 66.7147 35.2516 66.528 34.8143 66.336C34.377 66.144 34.0036 65.8453 33.6943 65.44C33.385 65.0347 33.2303 64.4907 33.2303 63.808C33.2303 62.944 33.529 62.2293 34.1263 61.664C34.7343 61.0987 35.5396 60.784 36.5423 60.72V59.392H37.4063V60.72C38.313 60.7947 39.0436 61.088 39.5983 61.6C40.153 62.1013 40.473 62.7573 40.5583 63.568H39.0063C38.953 63.1947 38.7876 62.8587 38.5103 62.56C38.233 62.2507 37.865 62.048 37.4063 61.952V65.856C38.1103 66.0373 38.681 66.224 39.1183 66.416C39.5663 66.5973 39.9396 66.8907 40.2383 67.296C40.5476 67.7013 40.7023 68.2507 40.7023 68.944ZM34.7183 63.728C34.7183 64.2507 34.873 64.6507 35.1823 64.928C35.4916 65.2053 35.945 65.4347 36.5423 65.616V61.92C35.9876 61.9733 35.545 62.1547 35.2143 62.464C34.8836 62.7627 34.7183 63.184 34.7183 63.728ZM37.4063 70.912C37.9823 70.848 38.4303 70.64 38.7503 70.288C39.081 69.936 39.2463 69.5147 39.2463 69.024C39.2463 68.5013 39.0863 68.1013 38.7663 67.824C38.4463 67.536 37.993 67.3067 37.4063 67.136V70.912ZM42.5834 63.344C42.6581 62.3627 43.0368 61.5947 43.7194 61.04C44.4021 60.4853 45.2874 60.208 46.3754 60.208C47.1008 60.208 47.7248 60.3413 48.2474 60.608C48.7808 60.864 49.1808 61.216 49.4474 61.664C49.7248 62.112 49.8634 62.6187 49.8634 63.184C49.8634 63.8453 49.6714 64.416 49.2874 64.896C48.9141 65.376 48.4234 65.6853 47.8154 65.824V65.904C48.5088 66.0747 49.0581 66.4107 49.4634 66.912C49.8688 67.4133 50.0714 68.0693 50.0714 68.88C50.0714 69.488 49.9328 70.0373 49.6554 70.528C49.3781 71.008 48.9621 71.3867 48.4074 71.664C47.8528 71.9413 47.1861 72.08 46.4074 72.08C45.2768 72.08 44.3488 71.7867 43.6234 71.2C42.8981 70.6027 42.4928 69.76 42.4074 68.672H43.8154C43.8901 69.312 44.1514 69.8347 44.5994 70.24C45.0474 70.6453 45.6448 70.848 46.3914 70.848C47.1381 70.848 47.7034 70.656 48.0874 70.272C48.4821 69.8773 48.6794 69.3707 48.6794 68.752C48.6794 67.952 48.4128 67.376 47.8794 67.024C47.3461 66.672 46.5408 66.496 45.4634 66.496H45.0954V65.28H45.4794C46.4608 65.2693 47.2021 65.1093 47.7034 64.8C48.2048 64.48 48.4554 63.9893 48.4554 63.328C48.4554 62.7627 48.2688 62.3093 47.8954 61.968C47.5328 61.6267 47.0101 61.456 46.3274 61.456C45.6661 61.456 45.1328 61.6267 44.7274 61.968C44.3221 62.3093 44.0821 62.768 44.0074 63.344H42.5834ZM52.1413 72.096C51.864 72.096 51.6293 72 51.4373 71.808C51.2453 71.616 51.1493 71.3813 51.1493 71.104C51.1493 70.8267 51.2453 70.592 51.4373 70.4C51.6293 70.208 51.864 70.112 52.1413 70.112C52.408 70.112 52.632 70.208 52.8133 70.4C53.0053 70.592 53.1013 70.8267 53.1013 71.104C53.1013 71.3813 53.0053 71.616 52.8133 71.808C52.632 72 52.408 72.096 52.1413 72.096ZM61.5727 61.696H55.9567V65.344C56.202 65.0027 56.5647 64.7253 57.0447 64.512C57.5247 64.288 58.042 64.176 58.5967 64.176C59.482 64.176 60.202 64.3627 60.7567 64.736C61.3114 65.0987 61.706 65.5733 61.9407 66.16C62.186 66.736 62.3087 67.3493 62.3087 68C62.3087 68.768 62.1647 69.456 61.8767 70.064C61.5887 70.672 61.146 71.152 60.5487 71.504C59.962 71.856 59.2314 72.032 58.3567 72.032C57.2367 72.032 56.33 71.744 55.6367 71.168C54.9434 70.592 54.522 69.824 54.3727 68.864H55.7967C55.9354 69.472 56.2287 69.9467 56.6767 70.288C57.1247 70.6293 57.69 70.8 58.3727 70.8C59.2154 70.8 59.85 70.5493 60.2767 70.048C60.7034 69.536 60.9167 68.864 60.9167 68.032C60.9167 67.2 60.7034 66.56 60.2767 66.112C59.85 65.6533 59.2207 65.424 58.3887 65.424C57.8234 65.424 57.3274 65.5627 56.9007 65.84C56.4847 66.1067 56.1807 66.4747 55.9887 66.944H54.6127V60.416H61.5727V61.696ZM65.5156 68.896C65.6222 69.504 65.8676 69.9733 66.2516 70.304C66.6462 70.6347 67.1742 70.8 67.8356 70.8C68.7209 70.8 69.3716 70.4533 69.7876 69.76C70.2142 69.0667 70.4169 67.8987 70.3956 66.256C70.1716 66.736 69.7982 67.1147 69.2756 67.392C68.7529 67.6587 68.1716 67.792 67.5316 67.792C66.8169 67.792 66.1769 67.648 65.6116 67.36C65.0569 67.0613 64.6196 66.6293 64.2996 66.064C63.9796 65.4987 63.8196 64.816 63.8196 64.016C63.8196 62.8747 64.1502 61.9573 64.8116 61.264C65.4729 60.56 66.4116 60.208 67.6276 60.208C69.1209 60.208 70.1662 60.6933 70.7636 61.664C71.3716 62.6347 71.6756 64.08 71.6756 66C71.6756 67.344 71.5529 68.4533 71.3076 69.328C71.0729 70.2027 70.6676 70.8693 70.0916 71.328C69.5262 71.7867 68.7476 72.016 67.7556 72.016C66.6676 72.016 65.8196 71.7227 65.2116 71.136C64.6036 70.5493 64.2569 69.8027 64.1716 68.896H65.5156ZM67.7716 66.56C68.4862 66.56 69.0729 66.3413 69.5316 65.904C69.9902 65.456 70.2196 64.8533 70.2196 64.096C70.2196 63.296 69.9956 62.6507 69.5476 62.16C69.0996 61.6693 68.4702 61.424 67.6596 61.424C66.9129 61.424 66.3156 61.6587 65.8676 62.128C65.4302 62.5973 65.2116 63.216 65.2116 63.984C65.2116 64.7627 65.4302 65.3867 65.8676 65.856C66.3049 66.3253 66.9396 66.56 67.7716 66.56Z" fill="#B0B0B0"/>
</svg>
