<svg width="104" height="104" viewBox="0 0 104 104" fill="none" xmlns="http://www.w3.org/2000/svg">
<g clip-path="url(#clip0_12_1376)">
<path d="M50.3794 26.3985L51.9999 28.6394L53.6206 26.3986C55.4685 23.8435 57.5504 21.6736 59.8298 19.9103C64.3269 16.4328 69.3963 14.6875 74.9476 14.6875C82.4274 14.6875 89.279 17.6749 94.2792 23.0981C99.2274 28.4655 102 35.851 102 43.9418C102 52.1636 98.9632 59.7784 92.146 68.0038L92.1459 68.0039C85.9855 75.4377 77.0908 83.0258 66.5696 91.9915L66.5694 91.9917L66.48 92.0678C62.9236 95.0992 58.889 98.5381 54.7023 102.199L54.7012 102.2C53.9559 102.853 52.9962 103.214 52 103.214C51.0036 103.214 50.0446 102.853 49.2973 102.199L49.296 102.198C45.0787 98.5105 41.0183 95.0498 37.4444 92.0037L37.4329 91.994L37.4328 91.9939C26.9101 83.0267 18.0154 75.4378 11.8549 68.0046C5.03749 59.7783 2 52.1635 2 43.9426C2 35.851 4.7726 28.4655 9.71997 23.0981C14.7201 17.675 21.5725 14.6875 29.0524 14.6875C34.6038 14.6875 39.6731 16.4328 44.1693 19.9102L44.1694 19.9103C46.4496 21.6736 48.5322 23.8442 50.3794 26.3985Z" stroke="#B0B0B0" stroke-width="4"/>
<path d="M25.0969 62.182C23.3982 62.182 21.8382 61.7833 20.4169 60.986C18.9956 60.1887 17.8689 59.088 17.0369 57.684C16.2049 56.2627 15.7889 54.6593 15.7889 52.874C15.7889 51.106 16.2049 49.52 17.0369 48.116C17.8689 46.6947 18.9956 45.5853 20.4169 44.788C21.8382 43.9907 23.3982 43.592 25.0969 43.592C26.8129 43.592 28.3729 43.9907 29.7769 44.788C31.1982 45.5853 32.3162 46.6947 33.1309 48.116C33.9629 49.52 34.3789 51.106 34.3789 52.874C34.3789 54.6593 33.9629 56.2627 33.1309 57.684C32.3162 59.088 31.1982 60.1887 29.7769 60.986C28.3556 61.7833 26.7956 62.182 25.0969 62.182ZM25.0969 58.932C26.1889 58.932 27.1509 58.6893 27.9829 58.204C28.8149 57.7013 29.4649 56.9907 29.9329 56.072C30.4009 55.1533 30.6349 54.0873 30.6349 52.874C30.6349 51.6607 30.4009 50.6033 29.9329 49.702C29.4649 48.7833 28.8149 48.0813 27.9829 47.596C27.1509 47.1107 26.1889 46.868 25.0969 46.868C24.0049 46.868 23.0342 47.1107 22.1849 47.596C21.3529 48.0813 20.7029 48.7833 20.2349 49.702C19.7669 50.6033 19.5329 51.6607 19.5329 52.874C19.5329 54.0873 19.7669 55.1533 20.2349 56.072C20.7029 56.9907 21.3529 57.7013 22.1849 58.204C23.0342 58.6893 24.0049 58.932 25.0969 58.932ZM41.325 50.586V57.554C41.325 58.0393 41.4376 58.3947 41.663 58.62C41.9056 58.828 42.3043 58.932 42.859 58.932H44.549V62H42.261C39.193 62 37.659 60.5093 37.659 57.528V50.586H35.943V47.596H37.659V44.034H41.325V47.596H44.549V50.586H41.325ZM55.279 47.388C56.371 47.388 57.3417 47.6307 58.191 48.116C59.0404 48.584 59.699 49.286 60.167 50.222C60.6524 51.1407 60.895 52.25 60.895 53.55V62H57.255V54.044C57.255 52.9 56.969 52.0247 56.397 51.418C55.825 50.794 55.045 50.482 54.057 50.482C53.0517 50.482 52.2544 50.794 51.665 51.418C51.093 52.0247 50.807 52.9 50.807 54.044V62H47.167V42.76H50.807V49.39C51.275 48.766 51.899 48.2807 52.679 47.934C53.459 47.57 54.3257 47.388 55.279 47.388ZM77.7465 54.486C77.7465 55.006 77.7118 55.474 77.6425 55.89H67.1125C67.1992 56.93 67.5632 57.7447 68.2045 58.334C68.8458 58.9233 69.6345 59.218 70.5705 59.218C71.9225 59.218 72.8845 58.6373 73.4565 57.476H77.3825C76.9665 58.8627 76.1692 60.0067 74.9905 60.908C73.8118 61.792 72.3645 62.234 70.6485 62.234C69.2618 62.234 68.0138 61.9307 66.9045 61.324C65.8125 60.7 64.9545 59.8247 64.3305 58.698C63.7238 57.5713 63.4205 56.2713 63.4205 54.798C63.4205 53.3073 63.7238 51.9987 64.3305 50.872C64.9372 49.7453 65.7865 48.8787 66.8785 48.272C67.9705 47.6653 69.2272 47.362 70.6485 47.362C72.0178 47.362 73.2398 47.6567 74.3145 48.246C75.4065 48.8353 76.2472 49.676 76.8365 50.768C77.4432 51.8427 77.7465 53.082 77.7465 54.486ZM73.9765 53.446C73.9592 52.51 73.6212 51.7647 72.9625 51.21C72.3038 50.638 71.4978 50.352 70.5445 50.352C69.6432 50.352 68.8805 50.6293 68.2565 51.184C67.6498 51.7213 67.2772 52.4753 67.1385 53.446H73.9765ZM84.0434 49.832C84.5114 49.0693 85.118 48.4713 85.8634 48.038C86.626 47.6047 87.4927 47.388 88.4634 47.388V51.21H87.5014C86.3574 51.21 85.4907 51.4787 84.9014 52.016C84.3294 52.5533 84.0434 53.4893 84.0434 54.824V62H80.4034V47.596H84.0434V49.832Z" fill="#B0B0B0"/>
<path d="M14.8789 64.6H89.1134V65.9H14.8789V64.6Z" fill="#B0B0B0"/>
</g>
<defs>
<clipPath id="clip0_12_1376">
<rect width="104" height="104" fill="white"/>
</clipPath>
</defs>
</svg>
