<svg width="788" height="525" viewBox="0 0 788 525" fill="none" xmlns="http://www.w3.org/2000/svg">
<path d="M261.639 136.122H128.667V45.1499H261.639V136.122ZM129.717 135.072H260.589V46.1999H129.717V135.072Z" fill="#EBEBEB"/>
<path d="M139.062 51.0088C139.062 51.5321 138.907 52.0437 138.616 52.4788C138.325 52.914 137.912 53.2531 137.429 53.4534C136.945 53.6537 136.413 53.706 135.9 53.604C135.387 53.5019 134.915 53.2498 134.545 52.8798C134.175 52.5097 133.923 52.0383 133.821 51.525C133.719 51.0117 133.771 50.4797 133.971 49.9962C134.172 49.5127 134.511 49.0995 134.946 48.8087C135.381 48.518 135.893 48.3628 136.416 48.3628C137.118 48.3628 137.791 48.6416 138.287 49.1378C138.783 49.634 139.062 50.307 139.062 51.0088Z" fill="#A6A6A6"/>
<path d="M149.867 51.0088C149.867 51.5321 149.711 52.0437 149.421 52.4789C149.13 52.914 148.717 53.2531 148.233 53.4534C147.75 53.6537 147.218 53.7061 146.704 53.604C146.191 53.5019 145.72 53.2499 145.35 52.8798C144.979 52.5098 144.727 52.0383 144.625 51.525C144.523 51.0117 144.576 50.4797 144.776 49.9962C144.976 49.5127 145.315 49.0995 145.75 48.8087C146.186 48.518 146.697 48.3628 147.221 48.3628C147.568 48.3614 147.913 48.4289 148.235 48.5614C148.556 48.6939 148.849 48.8887 149.095 49.1347C149.341 49.3807 149.535 49.6729 149.668 49.9946C149.8 50.3162 149.868 50.6609 149.867 51.0088Z" fill="#EBEBEB"/>
<path d="M160.65 51.0088C160.65 51.5321 160.495 52.0437 160.204 52.4788C159.913 52.914 159.5 53.2531 159.017 53.4534C158.533 53.6537 158.001 53.706 157.488 53.604C156.975 53.5019 156.503 53.2498 156.133 52.8798C155.763 52.5097 155.511 52.0383 155.409 51.525C155.307 51.0117 155.359 50.4797 155.559 49.9962C155.76 49.5127 156.099 49.0995 156.534 48.8087C156.969 48.518 157.481 48.3628 158.004 48.3628C158.706 48.3628 159.379 48.6416 159.875 49.1378C160.371 49.634 160.65 50.307 160.65 51.0088Z" fill="black"/>
<path d="M261.114 55.6709H129.192V56.7209H261.114V55.6709Z" fill="#EBEBEB"/>
<path d="M100.905 377.17H99.855V245.396L71.7885 207.091V135.167H72.8385V206.745L100.905 245.049V377.17Z" fill="#EBEBEB"/>
<path d="M72.3135 135.733C71.7145 135.735 71.1284 135.56 70.6295 135.228C70.1306 134.897 69.7414 134.424 69.5112 133.871C69.281 133.318 69.2203 132.709 69.3366 132.122C69.453 131.534 69.7412 130.995 70.1647 130.571C70.5883 130.147 71.1281 129.859 71.7156 129.743C72.3032 129.627 72.9121 129.687 73.4651 129.917C74.0181 130.148 74.4903 130.537 74.8217 131.036C75.1532 131.535 75.3291 132.121 75.327 132.72C75.3242 133.518 75.0059 134.283 74.4413 134.848C73.8768 135.412 73.1119 135.731 72.3135 135.733ZM72.3135 130.746C71.9226 130.744 71.54 130.858 71.214 131.073C70.888 131.289 70.6333 131.597 70.4823 131.957C70.3313 132.318 70.2907 132.715 70.3657 133.098C70.4406 133.482 70.6278 133.835 70.9035 134.112C71.1791 134.389 71.5308 134.578 71.914 134.655C72.2972 134.732 72.6947 134.694 73.056 134.545C73.4173 134.395 73.7262 134.142 73.9436 133.818C74.161 133.493 74.277 133.111 74.277 132.72C74.277 132.198 74.0705 131.698 73.7026 131.328C73.3346 130.958 72.8352 130.749 72.3135 130.746Z" fill="#EBEBEB"/>
<path d="M93.6705 377.17H92.6205V250.026L64.554 211.722V161.417H65.604V211.376L93.6705 249.679V377.17Z" fill="#EBEBEB"/>
<path d="M65.1 161.983C64.5019 161.983 63.9172 161.806 63.4199 161.474C62.9227 161.141 62.5351 160.669 62.3062 160.117C62.0773 159.564 62.0174 158.956 62.1341 158.369C62.2508 157.783 62.5388 157.244 62.9617 156.821C63.3846 156.398 63.9234 156.11 64.51 155.993C65.0966 155.877 65.7047 155.937 66.2572 156.165C66.8098 156.394 67.2821 156.782 67.6144 157.279C67.9466 157.777 68.124 158.361 68.124 158.959C68.124 159.761 67.8054 160.53 67.2383 161.098C66.6712 161.665 65.902 161.983 65.1 161.983ZM65.1 156.996C64.7091 156.996 64.3271 157.112 64.0022 157.329C63.6774 157.547 63.4244 157.856 63.2753 158.217C63.1262 158.578 63.0877 158.976 63.1647 159.359C63.2417 159.742 63.4308 160.094 63.7079 160.369C63.985 160.645 64.3377 160.832 64.7214 160.907C65.105 160.982 65.5022 160.942 65.8627 160.791C66.2232 160.639 66.5308 160.385 66.7464 160.059C66.9621 159.733 67.0761 159.35 67.074 158.959C67.074 158.701 67.0229 158.444 66.9235 158.205C66.8242 157.967 66.6786 157.75 66.4952 157.567C66.3117 157.385 66.0941 157.24 65.8546 157.142C65.6152 157.044 65.3587 156.994 65.1 156.996Z" fill="#EBEBEB"/>
<path d="M107.867 202.44H106.816V377.17H107.867V202.44Z" fill="#EBEBEB"/>
<path d="M107.341 202.965C106.743 202.965 106.158 202.787 105.66 202.455C105.163 202.122 104.775 201.649 104.547 201.096C104.318 200.543 104.259 199.934 104.376 199.347C104.494 198.76 104.783 198.221 105.207 197.799C105.631 197.376 106.171 197.089 106.758 196.974C107.345 196.858 107.954 196.92 108.506 197.15C109.058 197.381 109.53 197.77 109.861 198.269C110.192 198.767 110.368 199.353 110.365 199.951C110.363 200.752 110.043 201.518 109.476 202.083C108.909 202.648 108.142 202.965 107.341 202.965ZM107.341 197.977C106.951 197.977 106.569 198.093 106.245 198.31C105.92 198.527 105.667 198.835 105.518 199.196C105.368 199.557 105.329 199.954 105.405 200.337C105.482 200.72 105.67 201.071 105.946 201.347C106.222 201.623 106.573 201.811 106.956 201.888C107.339 201.964 107.736 201.925 108.097 201.775C108.458 201.626 108.766 201.373 108.983 201.048C109.2 200.724 109.315 200.342 109.315 199.951C109.315 199.428 109.108 198.926 108.737 198.556C108.367 198.185 107.865 197.977 107.341 197.977Z" fill="#EBEBEB"/>
<path d="M114.576 377.17H113.526V288.235L113.578 288.12L132.573 252.294V187.992H133.623V252.556L114.576 288.498V377.17Z" fill="#EBEBEB"/>
<path d="M133.098 188.517C132.499 188.517 131.914 188.339 131.417 188.007C130.919 187.674 130.532 187.201 130.303 186.648C130.075 186.095 130.015 185.486 130.133 184.899C130.25 184.312 130.54 183.773 130.963 183.351C131.387 182.929 131.927 182.641 132.515 182.526C133.102 182.41 133.71 182.472 134.263 182.702C134.815 182.933 135.286 183.322 135.617 183.821C135.948 184.319 136.124 184.905 136.122 185.503C136.119 186.304 135.799 187.07 135.233 187.635C134.666 188.2 133.898 188.517 133.098 188.517ZM133.098 183.529C132.708 183.529 132.326 183.645 132.001 183.862C131.677 184.079 131.424 184.387 131.274 184.748C131.125 185.109 131.086 185.506 131.162 185.889C131.238 186.272 131.426 186.623 131.702 186.899C131.978 187.175 132.33 187.363 132.713 187.44C133.096 187.516 133.493 187.477 133.853 187.327C134.214 187.178 134.522 186.925 134.739 186.6C134.956 186.276 135.072 185.894 135.072 185.503C135.072 184.98 134.864 184.478 134.494 184.108C134.124 183.737 133.622 183.529 133.098 183.529Z" fill="#EBEBEB"/>
<path d="M121.243 377.17H120.193V292.068L120.256 291.952L142.653 252.336V210.042H143.703V252.609L121.243 292.351V377.17Z" fill="#EBEBEB"/>
<path d="M143.178 210.567C142.579 210.569 141.994 210.394 141.495 210.062C140.996 209.731 140.607 209.26 140.377 208.708C140.146 208.155 140.085 207.547 140.2 206.96C140.316 206.372 140.603 205.832 141.025 205.408C141.448 204.985 141.987 204.695 142.574 204.578C143.161 204.46 143.769 204.52 144.322 204.748C144.875 204.977 145.348 205.364 145.681 205.862C146.014 206.359 146.191 206.944 146.191 207.543C146.191 208.343 145.874 209.111 145.309 209.678C144.745 210.244 143.978 210.564 143.178 210.567ZM143.178 205.58C142.787 205.577 142.404 205.692 142.077 205.908C141.751 206.124 141.497 206.432 141.346 206.793C141.195 207.154 141.155 207.552 141.231 207.936C141.307 208.32 141.495 208.673 141.772 208.949C142.048 209.226 142.401 209.414 142.785 209.49C143.169 209.566 143.567 209.526 143.928 209.375C144.289 209.225 144.597 208.97 144.813 208.644C145.029 208.317 145.144 207.934 145.141 207.543C145.139 207.023 144.931 206.525 144.563 206.158C144.196 205.79 143.698 205.582 143.178 205.58Z" fill="#EBEBEB"/>
<path d="M691.435 377.17H690.385V308.049L690.49 307.912L718.452 269.745V229.667H719.502V270.092L719.397 270.228L691.435 308.395V377.17Z" fill="#EBEBEB"/>
<path d="M718.977 230.233C718.378 230.233 717.793 230.056 717.296 229.723C716.798 229.39 716.411 228.917 716.182 228.364C715.954 227.811 715.894 227.202 716.012 226.615C716.129 226.029 716.418 225.49 716.842 225.067C717.266 224.645 717.806 224.358 718.393 224.242C718.981 224.127 719.589 224.188 720.142 224.419C720.694 224.649 721.166 225.038 721.497 225.537C721.828 226.036 722.003 226.621 722.001 227.22C721.998 228.02 721.678 228.786 721.112 229.351C720.545 229.916 719.777 230.233 718.977 230.233ZM718.977 225.246C718.587 225.246 718.205 225.362 717.88 225.578C717.556 225.795 717.303 226.104 717.153 226.464C717.004 226.825 716.965 227.222 717.041 227.605C717.117 227.988 717.305 228.34 717.581 228.616C717.857 228.892 718.209 229.08 718.592 229.156C718.975 229.232 719.372 229.193 719.732 229.044C720.093 228.894 720.401 228.641 720.618 228.317C720.835 227.992 720.951 227.61 720.951 227.22C720.951 226.696 720.743 226.194 720.373 225.824C720.003 225.454 719.501 225.246 718.977 225.246Z" fill="#EBEBEB"/>
<path d="M698.67 377.17H697.62V312.68L725.687 274.376V255.917H726.737V274.722L726.632 274.858L698.67 313.026V377.17Z" fill="#EBEBEB"/>
<path d="M726.212 256.484C725.613 256.486 725.027 256.31 724.529 255.979C724.03 255.648 723.641 255.176 723.41 254.624C723.18 254.072 723.118 253.463 723.234 252.876C723.349 252.289 723.637 251.749 724.059 251.325C724.482 250.901 725.02 250.612 725.607 250.494C726.194 250.377 726.803 250.436 727.356 250.665C727.909 250.893 728.382 251.281 728.715 251.778C729.047 252.276 729.225 252.861 729.225 253.46C729.225 254.26 728.908 255.027 728.343 255.594C727.778 256.161 727.012 256.481 726.212 256.484ZM726.212 251.496C725.82 251.494 725.437 251.608 725.111 251.824C724.785 252.04 724.53 252.349 724.379 252.71C724.229 253.071 724.189 253.469 724.265 253.853C724.34 254.236 724.529 254.589 724.805 254.866C725.082 255.143 725.435 255.331 725.818 255.407C726.202 255.482 726.6 255.442 726.961 255.292C727.322 255.141 727.631 254.886 727.847 254.56C728.063 254.234 728.177 253.851 728.175 253.46C728.172 252.94 727.965 252.442 727.597 252.074C727.229 251.707 726.731 251.499 726.212 251.496Z" fill="#EBEBEB"/>
<path d="M684.474 265.44H683.424V377.17H684.474V265.44Z" fill="#EBEBEB"/>
<path d="M683.949 265.965C683.35 265.967 682.764 265.791 682.265 265.46C681.766 265.128 681.377 264.656 681.147 264.103C680.917 263.55 680.856 262.941 680.972 262.354C681.088 261.766 681.377 261.226 681.8 260.803C682.224 260.379 682.764 260.091 683.351 259.975C683.939 259.858 684.548 259.919 685.101 260.149C685.654 260.379 686.126 260.769 686.457 261.267C686.789 261.766 686.965 262.352 686.962 262.951C686.96 263.75 686.641 264.515 686.077 265.079C685.512 265.644 684.747 265.962 683.949 265.965ZM683.949 260.977C683.558 260.975 683.175 261.089 682.849 261.305C682.523 261.521 682.269 261.828 682.118 262.189C681.967 262.549 681.926 262.947 682.001 263.33C682.076 263.714 682.263 264.066 682.539 264.344C682.815 264.621 683.166 264.81 683.549 264.887C683.933 264.964 684.33 264.925 684.691 264.776C685.053 264.627 685.362 264.374 685.579 264.049C685.796 263.724 685.912 263.342 685.912 262.951C685.912 262.43 685.706 261.929 685.338 261.559C684.97 261.189 684.471 260.98 683.949 260.977Z" fill="#EBEBEB"/>
<path d="M677.764 377.17H676.714V319.998L657.667 284.056V219.492H658.717V283.794L677.764 319.735V377.17Z" fill="#EBEBEB"/>
<path d="M658.182 220.017C657.583 220.017 656.998 219.839 656.501 219.507C656.003 219.174 655.616 218.701 655.387 218.148C655.159 217.595 655.099 216.986 655.217 216.399C655.334 215.812 655.623 215.273 656.047 214.851C656.471 214.429 657.011 214.141 657.599 214.026C658.186 213.91 658.794 213.972 659.347 214.202C659.899 214.433 660.37 214.822 660.701 215.321C661.032 215.819 661.208 216.405 661.206 217.003C661.203 217.804 660.883 218.57 660.317 219.135C659.75 219.7 658.982 220.017 658.182 220.017ZM658.182 215.029C657.792 215.029 657.41 215.145 657.085 215.362C656.761 215.579 656.508 215.887 656.358 216.248C656.209 216.609 656.17 217.006 656.246 217.389C656.322 217.772 656.51 218.123 656.786 218.399C657.062 218.675 657.414 218.863 657.797 218.94C658.18 219.016 658.577 218.977 658.937 218.827C659.298 218.678 659.606 218.425 659.823 218.1C660.04 217.776 660.156 217.394 660.156 217.003C660.156 216.48 659.948 215.978 659.578 215.608C659.208 215.237 658.706 215.029 658.182 215.029Z" fill="#EBEBEB"/>
<path d="M671.097 377.17H670.047V323.851L647.587 284.109V241.542H648.637V283.836L671.097 323.568V377.17Z" fill="#EBEBEB"/>
<path d="M648.113 242.067C647.514 242.069 646.928 241.894 646.43 241.562C645.931 241.231 645.542 240.76 645.311 240.208C645.081 239.655 645.019 239.047 645.135 238.46C645.25 237.872 645.538 237.332 645.96 236.908C646.383 236.485 646.921 236.195 647.508 236.078C648.095 235.96 648.704 236.02 649.257 236.248C649.81 236.477 650.283 236.864 650.616 237.362C650.948 237.859 651.126 238.444 651.126 239.043C651.126 239.843 650.809 240.611 650.244 241.178C649.679 241.744 648.913 242.064 648.113 242.067ZM648.113 237.08C647.721 237.077 647.338 237.192 647.012 237.408C646.686 237.624 646.431 237.932 646.28 238.293C646.13 238.654 646.09 239.052 646.166 239.436C646.241 239.82 646.43 240.173 646.706 240.449C646.983 240.726 647.336 240.914 647.72 240.99C648.103 241.066 648.501 241.026 648.862 240.875C649.223 240.725 649.532 240.47 649.748 240.144C649.964 239.817 650.078 239.434 650.076 239.043C650.073 238.523 649.866 238.025 649.498 237.658C649.13 237.29 648.632 237.082 648.113 237.08Z" fill="#EBEBEB"/>
<path d="M70.875 131.891C71.3965 131.571 71.996 131.402 72.6075 131.402C73.219 131.402 73.8185 131.571 74.34 131.891L75.2325 132.405L76.146 132.867C76.7033 133.117 77.1795 133.518 77.5209 134.025C77.8622 134.531 78.0552 135.123 78.078 135.734L78.2145 139.997L92.106 139.566L91.98 135.303C91.9612 134.69 92.1145 134.083 92.4226 133.553C92.7306 133.022 93.1811 132.588 93.723 132.3C94.3295 131.982 94.9184 131.632 95.487 131.25C95.9863 130.898 96.5733 130.691 97.1831 130.652C97.7929 130.613 98.4015 130.744 98.9415 131.03L102.69 133.035L109.263 120.75L105.504 118.744C104.969 118.45 104.526 118.014 104.222 117.484C103.918 116.955 103.766 116.352 103.782 115.742C103.799 115.041 103.778 114.34 103.719 113.642C103.65 113.025 103.758 112.402 104.029 111.844C104.3 111.287 104.725 110.818 105.252 110.492L108.875 108.234L101.525 96.4215L97.881 98.679C97.3615 98.9985 96.7636 99.1677 96.1537 99.1677C95.5439 99.1677 94.946 98.9985 94.4265 98.679C94.1325 98.5005 93.8385 98.3325 93.534 98.175C93.2295 98.0175 92.9355 97.86 92.6205 97.713C92.0632 97.46 91.5872 97.0569 91.246 96.5488C90.9048 96.0407 90.7118 95.4476 90.6885 94.836L90.552 90.5625L76.65 91.0665L76.7865 95.3295C76.8033 95.9411 76.6491 96.5453 76.3411 97.074C76.0332 97.6026 75.5838 98.0349 75.0435 98.322C74.4345 98.658 73.8465 99.0255 73.2795 99.372C72.7812 99.7259 72.1947 99.9348 71.5849 99.9756C70.9751 100.016 70.3659 99.8874 69.825 99.603L66.15 97.65L59.535 109.883L63.2835 111.899C63.8199 112.188 64.265 112.622 64.5691 113.15C64.8732 113.679 65.0243 114.282 65.0055 114.891C65.0055 115.591 65.0265 116.291 65.0685 116.991C65.1361 117.607 65.028 118.23 64.7567 118.787C64.4854 119.345 64.0621 119.814 63.5355 120.141L59.9235 122.378L67.2735 134.19L70.875 131.891ZM74.3505 109.945C75.4149 107.96 77.0442 106.334 79.0324 105.274C81.0206 104.214 83.2785 103.768 85.5205 103.991C87.7625 104.214 89.888 105.097 91.6281 106.528C93.3683 107.96 94.645 109.875 95.2969 112.031C95.9488 114.188 95.9465 116.49 95.2904 118.645C94.6342 120.801 93.3537 122.713 91.6107 124.141C89.8677 125.568 87.7405 126.447 85.498 126.666C83.2556 126.885 80.9986 126.434 79.0125 125.37C76.3506 123.941 74.3646 121.514 73.4905 118.622C72.6164 115.73 72.9257 112.61 74.3505 109.945Z" fill="#EBEBEB"/>
<path d="M707.952 236.555C708.166 236.193 708.475 235.897 708.845 235.697C709.215 235.497 709.632 235.402 710.052 235.421C710.293 235.421 710.535 235.421 710.776 235.421C711.018 235.421 711.259 235.421 711.49 235.421C711.911 235.4 712.328 235.495 712.698 235.695C713.068 235.895 713.377 236.192 713.59 236.555L715.092 239.148L723.492 234.276L722.001 231.693C721.788 231.319 721.683 230.893 721.697 230.463C721.712 230.033 721.846 229.615 722.085 229.257C722.349 228.854 722.591 228.437 722.809 228.008C723.004 227.619 723.304 227.292 723.676 227.066C724.047 226.839 724.475 226.722 724.909 226.727H727.891V216.983H724.909C724.475 216.987 724.047 216.87 723.676 216.643C723.304 216.417 723.004 216.09 722.809 215.702C722.591 215.272 722.349 214.855 722.085 214.452C721.846 214.096 721.712 213.68 721.697 213.251C721.682 212.823 721.787 212.398 722.001 212.027L723.492 209.433L715.092 204.561L713.59 207.165C713.376 207.526 713.067 207.822 712.697 208.02C712.327 208.218 711.91 208.311 711.49 208.289H710.052C709.631 208.312 709.212 208.219 708.842 208.018C708.471 207.818 708.163 207.519 707.952 207.155L706.461 204.561L698.061 209.433L699.552 212.016C699.766 212.388 699.871 212.812 699.856 213.241C699.841 213.669 699.707 214.085 699.468 214.442C699.209 214.855 698.967 215.275 698.743 215.702C698.549 216.09 698.248 216.417 697.877 216.643C697.506 216.87 697.078 216.987 696.643 216.983H693.661V226.727H696.643C697.078 226.722 697.506 226.839 697.877 227.066C698.248 227.292 698.549 227.619 698.743 228.008C698.967 228.435 699.209 228.855 699.468 229.268C699.707 229.624 699.841 230.04 699.856 230.468C699.871 230.897 699.766 231.321 699.552 231.693L698.061 234.276L706.461 239.148L707.952 236.555ZM702.828 221.855C702.828 220.277 703.296 218.734 704.172 217.422C705.048 216.11 706.294 215.087 707.752 214.483C709.209 213.879 710.813 213.72 712.361 214.027C713.909 214.334 715.331 215.093 716.447 216.208C717.563 217.323 718.324 218.744 718.633 220.291C718.942 221.839 718.786 223.443 718.184 224.901C717.581 226.359 716.56 227.606 715.249 228.485C713.938 229.363 712.396 229.832 710.818 229.835C708.701 229.835 706.67 228.994 705.172 227.498C703.674 226.002 702.831 223.972 702.828 221.855Z" fill="#EBEBEB"/>
<path d="M112.749 144.176C113.118 144.395 113.419 144.712 113.619 145.092C113.819 145.472 113.911 145.9 113.883 146.328C113.883 146.57 113.883 146.811 113.883 147.042C113.883 147.273 113.883 147.525 113.883 147.767C113.904 148.186 113.811 148.602 113.613 148.972C113.415 149.342 113.12 149.652 112.759 149.867L110.166 151.358L115.027 159.758L117.621 158.267C117.993 158.053 118.417 157.948 118.846 157.962C119.274 157.977 119.69 158.112 120.046 158.351C120.452 158.617 120.872 158.858 121.306 159.075C121.695 159.27 122.022 159.57 122.248 159.941C122.475 160.313 122.592 160.74 122.587 161.175V164.157H132.3V161.175C132.295 160.74 132.413 160.313 132.639 159.941C132.866 159.57 133.192 159.27 133.581 159.075C134.015 158.851 134.435 158.61 134.841 158.351C135.197 158.112 135.613 157.977 136.042 157.962C136.47 157.948 136.895 158.053 137.266 158.267L139.86 159.758L144.722 151.358L142.128 149.856C141.765 149.643 141.467 149.335 141.267 148.965C141.067 148.594 140.973 148.176 140.994 147.756C140.994 147.515 140.994 147.273 140.994 147.032C140.994 146.79 140.994 146.559 140.994 146.318C140.968 145.889 141.06 145.462 141.259 145.082C141.459 144.703 141.76 144.385 142.128 144.165L144.722 142.674L139.86 134.274L137.277 135.765C136.905 135.979 136.481 136.084 136.052 136.069C135.624 136.054 135.208 135.92 134.851 135.681C134.441 135.417 134.017 135.175 133.581 134.957C133.192 134.762 132.866 134.462 132.639 134.09C132.413 133.719 132.295 133.291 132.3 132.857V129.875H122.566V132.857C122.571 133.291 122.454 133.719 122.227 134.09C122.001 134.462 121.674 134.762 121.285 134.957C120.849 135.175 120.425 135.417 120.015 135.681C119.659 135.92 119.243 136.054 118.814 136.069C118.386 136.084 117.961 135.979 117.589 135.765L115.006 134.274L110.145 142.674L112.749 144.176ZM127.449 139.062C129.028 139.06 130.572 139.526 131.885 140.402C133.199 141.277 134.223 142.523 134.829 143.981C135.435 145.439 135.594 147.044 135.287 148.592C134.981 150.141 134.222 151.564 133.106 152.681C131.99 153.798 130.568 154.559 129.02 154.868C127.472 155.177 125.867 155.019 124.408 154.416C122.949 153.812 121.702 152.789 120.825 151.477C119.948 150.164 119.479 148.621 119.479 147.042C119.479 144.927 120.319 142.899 121.813 141.403C123.307 139.907 125.334 139.065 127.449 139.062Z" fill="#EBEBEB"/>
<path d="M147.21 261.146C143.22 257.24 138.064 252.515 131.964 254.195C126.231 255.78 124.036 262.049 123.007 267.257C121.684 273.987 120.655 280.781 119.584 287.543C118.513 294.305 117.484 301.193 116.508 308.081C115.955 311.945 115.409 315.795 114.87 319.631C114.597 321.563 114.324 323.505 114.061 325.437C113.799 327.369 113.473 329.228 113.379 331.139C113.379 331.748 114.303 331.842 114.429 331.254C115.174 328.031 115.479 324.681 115.951 321.405C116.424 318.129 116.907 314.822 117.379 311.525C118.335 304.983 119.332 298.452 120.309 291.921C121.285 285.39 122.314 278.849 123.364 272.318C124.246 266.784 124.666 259.896 129.57 256.253C130.9 255.336 132.443 254.775 134.052 254.624C135.66 254.474 137.28 254.738 138.757 255.392C141.981 256.62 144.564 258.93 147.094 261.219C147.107 261.224 147.12 261.226 147.134 261.225C147.147 261.224 147.16 261.219 147.171 261.212C147.183 261.205 147.192 261.195 147.199 261.184C147.205 261.172 147.209 261.159 147.21 261.146Z" fill="#263238"/>
<path d="M141.75 257.145C141.75 257.145 133.591 254.216 129.57 260.169C125.548 266.123 130.357 281.243 167.475 289.79C166.393 278.17 163.377 266.814 158.55 256.19C150.591 238.875 136.405 245.448 141.75 257.145Z" fill="black"/>
<path d="M165.343 287.312C164.783 286.27 164.159 285.263 163.474 284.298C162.855 283.343 162.225 282.387 161.595 281.442C161.122 280.728 160.629 280.025 160.146 279.342C160.146 279.174 160.146 278.996 160.209 278.817L160.335 277.851C160.429 277.158 160.534 276.465 160.629 275.751C160.723 275.037 160.849 274.365 160.986 273.651C161.072 272.909 161.234 272.177 161.469 271.467C161.469 271.362 161.322 271.31 161.311 271.467C161.23 271.884 161.118 272.295 160.975 272.696L160.723 273.63C160.545 274.334 160.377 275.048 160.219 275.73C160.062 276.413 159.946 277.043 159.831 277.704C159.778 278.019 159.736 278.334 159.694 278.649C159.033 277.715 158.35 276.78 157.657 275.856C155.683 273.263 153.604 270.764 151.441 268.328C151.447 268.303 151.447 268.278 151.441 268.254C151.641 264.359 151.546 260.495 152.407 256.704C152.407 256.599 152.281 256.536 152.25 256.641C151.281 260.263 150.825 264.002 150.895 267.75C150.129 266.889 149.341 266.028 148.554 265.178C146.748 263.239 144.903 261.328 143.02 259.445C142.947 259.371 142.821 259.445 142.894 259.56C146.044 262.931 148.995 266.438 151.893 270.06C149.626 270.023 147.358 270.107 145.099 270.312C142.59 270.501 140.091 270.816 137.592 271.163C137.57 271.163 137.548 271.171 137.533 271.187C137.517 271.203 137.508 271.224 137.508 271.247C137.508 271.269 137.517 271.29 137.533 271.306C137.548 271.322 137.57 271.331 137.592 271.331C140.077 270.97 142.58 270.746 145.089 270.659C147.514 270.554 149.919 270.659 152.344 270.659C153.909 272.601 155.494 274.544 156.975 276.518H154.927C153.793 276.518 152.67 276.623 151.546 276.717C149.24 276.909 146.949 277.26 144.69 277.767C144.674 277.773 144.66 277.784 144.65 277.798C144.64 277.812 144.635 277.829 144.635 277.846C144.635 277.863 144.64 277.88 144.65 277.894C144.66 277.908 144.674 277.919 144.69 277.925C146.968 277.673 149.257 277.452 151.546 277.379C152.649 277.379 153.741 277.379 154.833 277.379H156.544C156.858 277.427 157.179 277.398 157.479 277.295C158.529 278.597 159.474 279.888 160.461 281.19C161.248 282.24 162.025 283.29 162.792 284.34C163.558 285.39 164.283 286.598 165.144 287.606C165.183 287.632 165.231 287.642 165.277 287.633C165.323 287.624 165.364 287.597 165.391 287.558C165.417 287.519 165.427 287.471 165.418 287.425C165.409 287.379 165.382 287.338 165.343 287.312Z" fill="#263238"/>
<path d="M145.299 265.577C143.983 265.409 142.656 265.346 141.33 265.388C140.007 265.388 138.673 265.388 137.35 265.472C137.328 265.472 137.307 265.48 137.291 265.496C137.275 265.512 137.266 265.533 137.266 265.556C137.266 265.578 137.275 265.599 137.291 265.615C137.307 265.631 137.328 265.64 137.35 265.64C138.694 265.545 140.038 265.514 141.382 265.535C142.726 265.556 143.986 265.682 145.278 265.65L145.299 265.577Z" fill="#263238"/>
<path d="M156.954 268.569C157.101 267.309 157.259 266.028 157.532 264.779C157.532 264.756 157.523 264.735 157.507 264.719C157.491 264.703 157.47 264.695 157.448 264.695C157.425 264.695 157.404 264.703 157.388 264.719C157.372 264.735 157.364 264.756 157.364 264.779C157.175 266.028 156.933 267.267 156.755 268.517C156.66 269.136 156.576 269.766 156.492 270.396C156.385 270.978 156.336 271.569 156.345 272.16C156.352 272.184 156.367 272.204 156.387 272.219C156.407 272.233 156.431 272.241 156.455 272.241C156.48 272.241 156.504 272.233 156.524 272.219C156.544 272.204 156.558 272.184 156.566 272.16C156.676 271.578 156.739 270.988 156.755 270.396C156.807 269.777 156.881 269.178 156.954 268.569Z" fill="#263238"/>
<path d="M154.508 254.531C154.182 255.759 153.857 257.009 153.636 258.269C153.521 258.899 153.416 259.539 153.332 260.18C153.217 260.799 153.174 261.43 153.206 262.059C153.206 262.073 153.211 262.086 153.221 262.096C153.231 262.106 153.244 262.112 153.258 262.112C153.272 262.112 153.285 262.106 153.295 262.096C153.305 262.086 153.311 262.073 153.311 262.059C153.458 261.47 153.553 260.869 153.594 260.264C153.678 259.655 153.773 259.035 153.878 258.426C154.109 257.124 154.34 255.843 154.665 254.573C154.665 254.554 154.659 254.536 154.648 254.521C154.637 254.506 154.621 254.495 154.603 254.49C154.585 254.485 154.565 254.487 154.548 254.494C154.531 254.501 154.517 254.514 154.508 254.531Z" fill="#263238"/>
<path d="M106.176 329.816C105.966 327.474 105.735 325.143 105.494 322.802C105.01 318.182 104.443 313.572 103.824 308.963C103.204 304.353 102.616 299.765 101.871 295.187C101.602 293.046 101.127 290.936 100.453 288.887C100.214 288.014 99.7764 287.207 99.1756 286.53C98.5749 285.853 97.8266 285.323 96.9885 284.981C92.6205 283.469 89.6385 287.994 87.9165 291.207C87.9165 291.302 88.0005 291.365 88.0635 291.281C89.1135 289.769 92.0325 285.506 95.3505 285.705C97.5765 285.842 99.3615 287.417 100.433 292.971C103.1 306.821 105.504 334.971 105.777 336.767C105.934 337.743 106.617 337.701 106.628 336.662C106.638 334.404 106.376 332.105 106.176 329.816Z" fill="#263238"/>
<path d="M89.0925 289.517C89.0925 289.517 92.9145 276.045 84.4725 282.786C70.4235 294 69.93 318.402 69.93 318.402C69.93 318.402 94.899 303.902 97.9965 294.336C102.627 280.088 89.0925 289.517 89.0925 289.517Z" fill="black"/>
<path d="M93.8175 296.1C91.8645 296.489 89.8695 296.751 87.8955 297.035L85.0815 297.433C84.4515 297.517 83.811 297.581 83.1705 297.654C85.029 295.092 86.9085 292.541 88.6935 289.926C88.7565 289.832 88.6095 289.727 88.5255 289.811C87.0368 291.334 85.6346 292.939 84.3255 294.62C83.958 293.57 83.58 292.52 83.2125 291.47C82.845 290.42 82.3305 289.065 82.026 287.826C82.02 287.81 82.0093 287.796 81.9952 287.786C81.9811 287.776 81.9644 287.771 81.9472 287.771C81.9301 287.771 81.9134 287.776 81.8993 287.786C81.8852 287.796 81.8745 287.81 81.8685 287.826C82.2045 289.065 82.446 290.325 82.782 291.564C83.118 292.803 83.4645 293.937 83.832 295.102C82.9185 296.289 82.0365 297.507 81.186 298.736C80.7555 297.518 80.22 296.341 79.8525 295.102C79.8455 295.08 79.83 295.062 79.8093 295.051C79.7887 295.04 79.7645 295.038 79.7422 295.045C79.72 295.052 79.7014 295.067 79.6905 295.088C79.6797 295.109 79.6775 295.133 79.6845 295.155C80.136 296.52 80.3775 297.938 80.7975 299.355C80.22 300.195 79.653 301.035 79.107 301.875C78.057 303.44 77.1435 305.025 76.2195 306.621C76.1471 306.652 76.0866 306.706 76.0469 306.774C76.0071 306.842 75.9904 306.921 75.999 306.999C74.424 309.729 72.9225 312.501 71.442 315.294C71.4342 315.304 71.4287 315.315 71.4259 315.327C71.423 315.34 71.423 315.352 71.4257 315.364C71.4284 315.377 71.4338 315.388 71.4415 315.398C71.4492 315.408 71.4589 315.416 71.4701 315.421C71.4813 315.427 71.4936 315.43 71.5061 315.43C71.5186 315.431 71.531 315.428 71.5424 315.423C71.5538 315.418 71.5639 315.41 71.572 315.4C71.58 315.391 71.5858 315.38 71.589 315.368C73.0695 312.617 74.739 309.928 76.4295 307.282C76.6971 307.205 76.9712 307.152 77.2485 307.125L78.1095 306.936C78.75 306.8 79.3905 306.632 80.031 306.474C81.3015 306.159 82.551 305.865 83.8425 305.634C83.9475 305.634 83.8425 305.455 83.8425 305.476C82.3305 305.76 80.8185 305.939 79.2855 306.117C78.561 306.201 77.847 306.285 77.1855 306.401H77.0805C77.9765 305.001 78.8865 303.646 79.8105 302.337C80.7135 301.025 81.648 299.723 82.5825 298.431C83.454 298.305 84.3045 298.085 85.1655 297.917L88.0635 297.35C89.9955 296.972 91.9275 296.541 93.87 296.215C93.975 296.278 93.9225 296.1 93.8175 296.1Z" fill="#263238"/>
<path d="M78.813 297.465C78.6975 297.108 78.5925 296.751 78.477 296.415C78.2427 295.674 78.0499 294.92 77.8995 294.158C77.8995 294.053 77.721 294.095 77.742 294.158C77.91 294.924 78.0885 295.68 78.2565 296.436C78.4157 297.201 78.6334 297.952 78.9075 298.683C78.9253 298.715 78.9535 298.74 78.9873 298.753C79.0212 298.766 79.0586 298.767 79.0932 298.756C79.1278 298.745 79.1576 298.722 79.1773 298.692C79.197 298.661 79.2056 298.625 79.2015 298.589C79.086 298.2 78.939 297.854 78.813 297.465Z" fill="#263238"/>
<path d="M96.369 293.013C95.235 293.192 94.0905 293.265 92.9355 293.37C91.7805 293.475 90.657 293.633 89.5125 293.801C89.4495 293.801 89.4495 293.906 89.5125 293.906C90.657 293.822 91.8015 293.738 92.946 293.58C94.0905 293.423 95.2245 293.265 96.3795 293.181C96.4845 293.181 96.474 293.003 96.369 293.013Z" fill="#263238"/>
<path d="M124.551 312.743C124.1 302.82 123.501 292.919 122.451 283.028C121.958 278.103 121.401 273.189 120.708 268.328C120.097 263.513 119.146 258.749 117.862 254.069C116.988 250.425 115.372 247.001 113.117 244.01C112.008 242.549 110.544 241.397 108.864 240.662C107.184 239.927 105.345 239.633 103.519 239.81C99.183 240.345 95.676 243.075 92.652 246.057C89.2605 249.386 86.1525 253.029 83.013 256.557C82.215 257.46 81.4275 258.363 80.64 259.277C80.577 259.361 80.6925 259.476 80.766 259.392C83.8425 255.864 87.066 252.431 90.3735 249.155C93.4605 246.12 96.6735 242.855 100.873 241.563C102.86 240.922 104.99 240.871 107.006 241.416C108.611 241.919 110.058 242.831 111.206 244.062C113.621 246.572 114.965 249.963 115.931 253.239C118.598 262.364 119.553 271.929 120.54 281.348C121.59 290.924 122.231 300.521 122.714 310.128C123.197 319.736 123.575 329.469 124.509 339.098C124.625 340.284 124.772 341.471 124.929 342.657C125.024 343.455 126.263 343.455 126.2 342.657C125.454 332.682 124.95 322.718 124.551 312.743Z" fill="#263238"/>
<path d="M92.127 247.097C92.127 247.097 97.797 236.597 91.077 233.247C84.357 229.898 61.95 254.898 55.4505 291.48C55.4505 291.48 91.644 275.457 103.939 259.508C116.235 243.558 102.291 240.03 92.127 247.097Z" fill="black"/>
<path d="M97.4505 255.623C93.387 255.623 89.3235 255.318 85.26 255.35C86.016 254.468 86.7825 253.596 87.549 252.725C88.6795 251.564 89.7318 250.329 90.699 249.029C90.699 248.945 90.636 248.829 90.552 248.892C89.4592 249.849 88.4412 250.888 87.507 252C86.457 253.05 85.47 254.174 84.462 255.266C82.908 256.946 81.3855 258.657 79.863 260.369C79.863 260.201 79.863 260.033 79.863 259.875C79.863 259.161 79.863 258.447 79.863 257.775C79.863 256.4 79.863 255.024 79.863 253.638C79.863 250.845 79.863 248.031 80.073 245.238C80.073 245.133 79.9155 245.133 79.905 245.238C79.716 248.042 79.422 250.835 79.2855 253.638C79.2225 255.014 79.191 256.389 79.17 257.775C79.17 258.489 79.17 259.203 79.17 259.875C79.17 260.253 79.17 260.673 79.17 261.072C78.939 261.335 78.687 261.597 78.456 261.87C75.2115 265.577 72.156 269.409 69.111 273.315C69.111 273.105 69.111 272.885 69.111 272.675C69.111 272.244 69.0165 271.814 68.9745 271.383C68.8695 270.449 68.7435 269.514 68.5965 268.59C68.4495 267.666 68.334 266.847 68.187 265.976C68.04 265.104 67.7775 264.002 67.704 263.015C67.7087 263.002 67.7103 262.988 67.7086 262.975C67.7069 262.961 67.7019 262.949 67.6942 262.937C67.6865 262.926 67.6762 262.917 67.6642 262.911C67.6521 262.905 67.6388 262.901 67.6252 262.901C67.6117 262.901 67.5984 262.905 67.5863 262.911C67.5743 262.917 67.564 262.926 67.5563 262.937C67.5486 262.949 67.5436 262.961 67.5419 262.975C67.5402 262.988 67.5418 263.002 67.5465 263.015C67.7109 263.999 67.823 264.99 67.8825 265.986L68.1345 268.674C68.208 269.577 68.292 270.47 68.3865 271.362L68.5125 272.654C68.5125 272.874 68.565 273.084 68.586 273.305C68.606 273.484 68.6671 273.657 68.7645 273.809C68.25 274.481 67.7145 275.153 67.221 275.835C65.121 278.544 63.147 281.295 61.131 284.036C61.068 284.12 61.194 284.246 61.257 284.151C63.168 281.663 65.1315 279.227 67.116 276.801C68.607 276.864 70.1295 276.801 71.6205 276.728C73.1115 276.654 74.7705 276.728 76.3245 276.728C76.4295 276.728 76.4295 276.549 76.3245 276.56L71.61 276.612C70.182 276.612 68.7225 276.549 67.2945 276.612C69.0375 274.512 70.812 272.412 72.5445 270.312C73.185 269.535 73.836 268.769 74.487 268.002C75.0887 268.086 75.6975 268.107 76.3035 268.065H78.4035L82.4145 268.002C85.176 268.002 87.9375 267.866 90.699 267.866C90.7213 267.866 90.7426 267.857 90.7584 267.841C90.7741 267.825 90.783 267.804 90.783 267.782C90.783 267.759 90.7741 267.738 90.7584 267.722C90.7426 267.707 90.7213 267.698 90.699 267.698C87.927 267.698 85.1655 267.54 82.404 267.477C81.06 267.477 79.7265 267.393 78.3825 267.372H76.2825C75.8835 267.372 75.4635 267.372 75.0435 267.372L79.611 261.975C79.6492 261.95 79.6786 261.913 79.695 261.87C81.1755 260.127 82.656 258.374 84.1575 256.62C84.3675 256.379 84.5775 256.148 84.777 255.906C88.977 256.043 93.177 255.759 97.377 255.843C97.566 255.791 97.566 255.623 97.4505 255.623Z" fill="#263238"/>
<path d="M95.3715 262.815H94.3845C94.3749 262.815 94.3653 262.817 94.3564 262.821C94.3475 262.824 94.3394 262.83 94.3325 262.837C94.3257 262.844 94.3203 262.852 94.3166 262.861C94.3129 262.869 94.311 262.879 94.311 262.889C94.311 262.898 94.3129 262.908 94.3166 262.917C94.3203 262.926 94.3257 262.934 94.3325 262.941C94.3394 262.947 94.3475 262.953 94.3564 262.957C94.3653 262.96 94.3749 262.962 94.3845 262.962H95.361C95.3747 262.956 95.3865 262.946 95.3951 262.934C95.4037 262.921 95.4087 262.907 95.4098 262.892C95.4109 262.877 95.4079 262.862 95.4012 262.848C95.3944 262.835 95.3842 262.823 95.3715 262.815Z" fill="#263238"/>
<path d="M93.177 262.826C91.875 262.826 90.573 262.826 89.271 262.752L87.318 262.689C86.7151 262.61 86.1044 262.61 85.5015 262.689C85.4385 262.689 85.449 262.794 85.5015 262.805C86.1025 262.925 86.7166 262.968 87.3285 262.931H89.2815C90.5835 262.931 91.8855 262.931 93.1875 262.931C93.2925 262.994 93.2925 262.836 93.177 262.826Z" fill="#263238"/>
<path d="M81.8055 275.1C79.1568 274.66 76.4788 274.417 73.794 274.375C73.794 274.375 73.794 274.428 73.794 274.438C76.461 274.69 79.1175 274.827 81.7635 275.257C81.9 275.226 81.9 275.1 81.8055 275.1Z" fill="#263238"/>
<path d="M70.917 263.403C70.917 263.172 70.8645 262.931 70.833 262.7C70.77 262.175 70.686 261.65 70.602 261.135C70.4445 260.138 70.2765 259.151 70.0875 258.164C70.0875 258.069 69.909 258.09 69.9195 258.164C70.0455 259.214 70.161 260.264 70.2555 261.24L70.3815 262.752C70.3675 263.236 70.4349 263.719 70.581 264.18C70.602 264.212 70.6314 264.236 70.666 264.252C70.7005 264.267 70.7387 264.272 70.7762 264.267C70.8136 264.261 70.8487 264.245 70.8773 264.221C70.906 264.196 70.927 264.164 70.938 264.128C70.9755 263.887 70.9684 263.641 70.917 263.403Z" fill="#263238"/>
<path d="M124.194 233.625C122.892 231.21 121.244 228.029 118.01 228.228C115.343 228.396 114.135 231.126 113.568 233.373C111.804 240.345 111.678 247.685 111.342 254.825C110.607 269.913 109.956 285.023 109.862 300.122C109.862 304.322 109.862 308.522 109.862 312.722C109.862 316.985 109.862 321.29 110.156 325.553C110.156 325.636 110.189 325.716 110.248 325.775C110.307 325.835 110.387 325.868 110.471 325.868C110.554 325.868 110.634 325.835 110.693 325.775C110.752 325.716 110.786 325.636 110.786 325.553C110.786 321.899 110.681 318.203 110.67 314.591C110.66 310.979 110.67 307.461 110.733 303.902C110.852 296.678 111.045 289.457 111.311 282.24C111.584 275.069 111.899 267.897 112.203 260.726C112.35 257.142 112.504 253.558 112.665 249.974C112.823 246.509 112.97 243.033 113.369 239.579C113.589 237.647 113.873 235.704 114.282 233.804C114.485 232.387 115.061 231.05 115.952 229.929C116.569 229.322 117.383 228.955 118.247 228.893C119.111 228.831 119.968 229.08 120.666 229.593C122.146 230.66 123.305 232.113 124.016 233.793C124.1 233.814 124.247 233.72 124.194 233.625Z" fill="#263238"/>
<path d="M123.312 232.47C123.312 232.47 120.656 223.083 126.536 227.777C136.322 235.599 136.668 252.599 136.668 252.599C136.668 252.599 119.27 242.487 117.107 235.799C113.883 225.897 123.312 232.47 123.312 232.47Z" fill="black"/>
<path d="M133.003 245.626C132.846 245.364 132.678 245.112 132.51 244.86C132.531 244.591 132.531 244.321 132.51 244.051C132.51 243.652 132.51 243.243 132.51 242.844C132.51 242.046 132.51 241.258 132.594 240.46C132.594 240.355 132.426 240.366 132.426 240.46C132.384 241.237 132.352 242.014 132.331 242.791C132.331 243.18 132.331 243.568 132.331 243.957C132.331 244.114 132.331 244.282 132.331 244.461C131.649 243.411 130.945 242.361 130.231 241.311C130.021 241.006 129.801 240.723 129.591 240.418C129.496 239.399 129.496 238.372 129.591 237.352C129.591 236.302 129.591 235.179 129.654 234.087C129.654 234.065 129.645 234.043 129.629 234.028C129.614 234.012 129.592 234.003 129.57 234.003C129.548 234.003 129.526 234.012 129.511 234.028C129.495 234.043 129.486 234.065 129.486 234.087C129.486 235.221 129.402 236.355 129.339 237.489C129.271 238.296 129.25 239.105 129.276 239.914C127.596 237.636 125.811 235.431 124.026 233.247C124.026 233.173 123.837 233.247 123.9 233.352C125.013 234.759 126.084 236.208 127.134 237.678C125.034 237.205 123.007 236.922 120.928 236.628C120.823 236.628 120.781 236.775 120.928 236.785C123.133 237.121 125.296 237.678 127.47 238.15C128.299 239.316 129.129 240.502 129.937 241.678C130.273 242.161 130.599 242.655 130.924 243.138H130.84C130.609 243.138 130.389 243.064 130.158 243.043C129.675 242.98 129.192 242.949 128.709 242.907C127.659 242.823 126.703 242.77 125.695 242.718C125.59 242.718 125.601 242.886 125.695 242.886C126.682 242.886 127.669 242.991 128.646 243.096C129.171 243.148 129.696 243.222 130.21 243.285L130.882 243.358H131.082C131.638 244.177 132.205 244.996 132.751 245.826C133.738 247.275 134.62 248.829 135.66 250.236C135.673 250.248 135.69 250.255 135.708 250.256C135.726 250.258 135.744 250.253 135.759 250.244C135.774 250.235 135.786 250.221 135.793 250.204C135.8 250.188 135.801 250.169 135.796 250.152C134.96 248.587 134.027 247.076 133.003 245.626Z" fill="#263238"/>
<path d="M128.678 235.022C128.678 234.654 128.678 234.287 128.678 233.919C128.657 233.151 128.688 232.383 128.772 231.62C128.777 231.607 128.778 231.593 128.777 231.58C128.775 231.566 128.77 231.554 128.762 231.542C128.754 231.531 128.744 231.522 128.732 231.516C128.72 231.51 128.707 231.506 128.693 231.506C128.68 231.506 128.666 231.51 128.654 231.516C128.642 231.522 128.632 231.531 128.624 231.542C128.617 231.554 128.612 231.566 128.61 231.58C128.608 231.593 128.61 231.607 128.615 231.62C128.615 232.376 128.531 233.132 128.489 233.898C128.489 234.276 128.489 234.654 128.489 235.032V235.557C128.462 235.738 128.462 235.922 128.489 236.103C128.489 236.123 128.496 236.141 128.51 236.155C128.524 236.169 128.543 236.177 128.562 236.177C128.582 236.177 128.6 236.169 128.614 236.155C128.628 236.141 128.636 236.123 128.636 236.103C128.662 235.936 128.662 235.766 128.636 235.599L128.678 235.022Z" fill="#263238"/>
<path d="M126.525 238.906C125.874 238.801 125.212 238.759 124.561 238.707C123.91 238.654 123.133 238.581 122.461 238.497C122.449 238.492 122.435 238.491 122.422 238.492C122.408 238.494 122.395 238.499 122.384 238.507C122.373 238.514 122.364 238.525 122.358 238.537C122.352 238.549 122.348 238.562 122.348 238.576C122.348 238.589 122.352 238.603 122.358 238.615C122.364 238.627 122.373 238.637 122.384 238.645C122.395 238.652 122.408 238.657 122.422 238.659C122.435 238.661 122.449 238.659 122.461 238.654C123.837 238.749 125.202 238.99 126.577 239.043C126.588 239.043 126.598 238.917 126.525 238.906Z" fill="#263238"/>
<path d="M124.593 283.721C120.939 280.98 117.653 277.032 112.728 276.843C108.665 276.675 105.819 279.741 104.192 283.143C103.378 284.955 102.714 286.83 102.207 288.75C101.472 291.319 100.772 293.902 100.107 296.499C98.8365 301.592 97.7445 306.747 96.852 311.924C96.3585 314.811 95.8965 317.719 95.529 320.628C95.0674 323.576 94.7834 326.55 94.6785 329.532C94.6793 329.646 94.7221 329.755 94.7985 329.839C94.875 329.923 94.9798 329.976 95.0929 329.988C95.2061 330 95.3195 329.969 95.4116 329.903C95.5037 329.836 95.5679 329.738 95.592 329.626C96.0855 327.19 96.2955 324.681 96.642 322.224C96.9885 319.767 97.377 317.278 97.7865 314.821C98.6265 309.897 99.5925 304.983 100.706 300.121C101.756 295.522 102.806 290.85 104.265 286.367C105.315 283.154 107.037 279.405 110.565 278.25C115.815 276.486 120.635 280.959 124.499 283.857C124.562 283.91 124.677 283.794 124.593 283.721Z" fill="#263238"/>
<path d="M120.813 281.095C120.813 281.095 117.442 271.467 122.314 269.545C129.664 266.721 148.754 288.267 145.005 321.279C145.005 321.279 130.231 313.141 119.311 303.975C108.391 294.808 105.662 282.859 110.418 279.762C115.175 276.664 120.813 281.095 120.813 281.095Z" fill="black"/>
<path d="M142.8 314.234C142.29 313.083 141.697 311.97 141.025 310.905C140.395 309.782 139.765 308.648 139.114 307.535C137.844 305.361 136.584 303.188 135.282 301.035C135.072 300.678 134.851 300.342 134.641 299.985C134.641 299.859 134.694 299.733 134.715 299.607L134.935 298.652C135.103 297.927 135.229 297.203 135.355 296.489C135.628 295.071 135.87 293.643 136.248 292.289C136.248 292.184 136.111 292.152 136.09 292.289C135.786 293.696 135.334 295.092 134.925 296.489C134.715 297.171 134.494 297.854 134.316 298.536L134.127 299.25C132.562 296.667 130.977 294.105 129.234 291.627C129.347 291.288 129.408 290.934 129.412 290.577C129.412 290.094 129.517 289.611 129.58 289.139C129.706 288.089 129.832 286.965 129.99 285.884C130.305 283.784 130.62 281.684 131.145 279.584C131.145 279.479 131.008 279.447 130.977 279.584C130.452 281.684 129.927 283.784 129.486 285.884C129.297 286.934 129.108 287.984 128.971 289.034C128.908 289.548 128.845 290.084 128.793 290.598C128.793 290.756 128.793 290.913 128.73 291.071C128.205 290.325 127.68 289.58 127.123 288.845C125.433 286.629 123.679 284.456 121.873 282.293C121.81 282.209 121.663 282.293 121.737 282.387C124.759 286.26 127.536 290.317 130.053 294.536C130.536 295.302 131.008 296.09 131.491 296.867L131.008 296.804C130.389 296.73 129.769 296.688 129.15 296.636C127.9 296.51 126.661 296.405 125.412 296.31C122.923 296.111 120.424 295.953 117.946 295.691C117.924 295.691 117.903 295.699 117.887 295.715C117.871 295.731 117.862 295.752 117.862 295.775C117.862 295.797 117.871 295.818 117.887 295.834C117.903 295.85 117.924 295.859 117.946 295.859C120.466 296.142 122.965 296.552 125.475 296.909L129.15 297.15C130.087 297.34 131.04 297.438 131.995 297.444C132.972 299.03 133.959 300.594 134.935 302.211C134.715 302.211 134.484 302.211 134.274 302.211H130.714C129.108 302.211 127.501 302.211 125.905 302.211C125.79 302.211 125.811 302.379 125.905 302.379C127.533 302.379 129.15 302.484 130.777 302.568C131.544 302.568 132.31 302.652 133.087 302.705L134.242 302.789C134.588 302.869 134.947 302.869 135.292 302.789L137.791 306.842C138.558 308.091 139.335 309.341 140.122 310.569C140.862 311.884 141.701 313.141 142.632 314.328C142.705 314.391 142.8 314.339 142.8 314.234Z" fill="#263238"/>
<path d="M135.754 287.553C135.608 288.617 135.387 289.67 135.093 290.703C134.82 291.753 134.516 292.803 134.169 293.853C134.169 293.99 134.316 294.053 134.369 293.916C134.694 292.866 134.988 291.816 135.24 290.766C135.492 289.716 135.66 288.666 135.922 287.564C135.943 287.48 135.765 287.448 135.754 287.553Z" fill="#263238"/>
<path d="M124.95 294C124.724 293.809 124.437 293.704 124.142 293.706L122.745 293.507C121.884 293.391 121.013 293.297 120.152 293.192C118.346 292.982 116.55 292.814 114.744 292.583C114.722 292.583 114.7 292.591 114.685 292.607C114.669 292.623 114.66 292.644 114.66 292.667C114.66 292.689 114.669 292.71 114.685 292.726C114.7 292.742 114.722 292.751 114.744 292.751C116.445 292.95 118.136 293.213 119.837 293.433C120.666 293.538 121.496 293.664 122.325 293.758L123.533 293.895C123.998 293.891 124.46 293.97 124.898 294.126C124.912 294.126 124.927 294.122 124.939 294.114C124.951 294.106 124.961 294.094 124.966 294.081C124.972 294.067 124.974 294.052 124.971 294.038C124.968 294.023 124.961 294.01 124.95 294Z" fill="#263238"/>
<path d="M135.734 308.522C134.883 308.448 134.022 308.417 133.172 308.396H131.88H131.26C130.992 308.427 130.721 308.427 130.452 308.396C130.336 308.396 130.326 308.585 130.452 308.564C130.703 308.537 130.957 308.537 131.208 308.564H131.88L133.161 308.637C134.012 308.69 134.872 308.742 135.723 308.742C135.752 308.743 135.781 308.733 135.802 308.713C135.824 308.694 135.837 308.666 135.838 308.637C135.84 308.608 135.83 308.579 135.81 308.558C135.79 308.536 135.763 308.523 135.734 308.522Z" fill="#263238"/>
<path d="M140.942 304.825L141.225 303.376C141.393 302.421 141.572 301.476 141.75 300.521C141.75 300.498 141.741 300.477 141.725 300.461C141.71 300.445 141.688 300.437 141.666 300.437C141.644 300.437 141.622 300.445 141.607 300.461C141.591 300.477 141.582 300.498 141.582 300.521L140.952 303.303C140.847 303.765 140.742 304.227 140.648 304.699C140.648 304.909 140.564 305.13 140.511 305.34C140.445 305.561 140.42 305.792 140.438 306.023C140.44 306.044 140.448 306.064 140.462 306.08C140.475 306.096 140.493 306.108 140.514 306.114C140.534 306.119 140.556 306.119 140.576 306.112C140.596 306.105 140.614 306.092 140.627 306.075C140.811 305.683 140.918 305.258 140.942 304.825Z" fill="#263238"/>
<path d="M90.8985 325.836L91.9275 337.533L95.424 377.055H126.368L130.736 337.533L132.027 325.836H90.8985Z" fill="#37474F"/>
<path d="M90.8985 325.836L91.9275 337.533H130.736L132.027 325.836H90.8985Z" fill="#263238"/>
<path d="M87.8325 332.136H135.093V322.644H87.8325V332.136Z" fill="#37474F"/>
<path d="M750.971 376.772L660.282 376.572L388.237 376.362L116.193 376.572L25.515 376.772C25.4454 376.772 25.3786 376.799 25.3294 376.848C25.2802 376.898 25.2525 376.964 25.2525 377.034C25.2525 377.104 25.2802 377.17 25.3294 377.22C25.3786 377.269 25.4454 377.297 25.515 377.297L116.193 377.507L388.237 377.717L660.282 377.507L750.971 377.297C751.04 377.297 751.107 377.269 751.156 377.22C751.205 377.17 751.233 377.104 751.233 377.034C751.23 376.965 751.202 376.9 751.153 376.851C751.105 376.803 751.039 376.774 750.971 376.772Z" fill="#263238"/>
<path d="M640.447 67.1055H145.278V398.338H640.447V67.1055Z" fill="#EBEBEB"/>
<path d="M636.846 71.1479H148.879V394.296H636.846V71.1479Z" fill="#263238"/>
<path d="M704.939 423.181H80.787V445.914H704.939V423.181Z" fill="#DBDBDB"/>
<path d="M80.787 423.181L145.288 398.338H640.447L704.949 423.181H80.787Z" fill="#EBEBEB"/>
<path d="M151.042 414.372L192.664 398.338H593.072L634.693 414.372H151.042Z" fill="#263238"/>
<path d="M609.284 95.697H176.463V369.747H609.284V95.697Z" fill="white"/>
<path d="M609.283 95.697H176.095V106.239H609.283V95.697Z" fill="#455A64"/>
<path d="M184.475 100.968C184.475 101.485 184.321 101.991 184.034 102.421C183.747 102.851 183.338 103.186 182.861 103.384C182.383 103.581 181.857 103.633 181.35 103.532C180.843 103.431 180.377 103.182 180.011 102.817C179.646 102.451 179.397 101.985 179.296 101.478C179.195 100.971 179.247 100.445 179.445 99.9675C179.642 99.4898 179.978 99.0814 180.407 98.7941C180.837 98.5069 181.343 98.3535 181.86 98.3535C182.553 98.3563 183.216 98.6326 183.706 99.1223C184.195 99.6121 184.472 100.275 184.475 100.968Z" fill="#C7C7C7"/>
<path d="M195.153 100.968C195.153 101.485 195 101.991 194.712 102.421C194.425 102.851 194.017 103.186 193.539 103.384C193.061 103.581 192.536 103.633 192.028 103.532C191.521 103.431 191.055 103.182 190.69 102.817C190.324 102.451 190.075 101.985 189.974 101.478C189.873 100.971 189.925 100.445 190.123 99.9675C190.321 99.4898 190.656 99.0814 191.086 98.7941C191.516 98.5069 192.021 98.3535 192.538 98.3535C193.232 98.3535 193.897 98.629 194.387 99.1193C194.878 99.6096 195.153 100.275 195.153 100.968Z" fill="white"/>
<path d="M205.8 100.968C205.8 101.485 205.647 101.991 205.359 102.421C205.072 102.851 204.664 103.186 204.186 103.384C203.708 103.581 203.183 103.633 202.675 103.532C202.168 103.431 201.702 103.182 201.337 102.817C200.971 102.451 200.722 101.985 200.621 101.478C200.52 100.971 200.572 100.445 200.77 99.9675C200.968 99.4898 201.303 99.0814 201.733 98.7941C202.163 98.5069 202.668 98.3535 203.185 98.3535C203.879 98.3535 204.544 98.629 205.034 99.1193C205.525 99.6096 205.8 100.275 205.8 100.968Z" fill="black"/>
<path d="M358.693 302.461C358.693 303.669 358.464 304.697 358.006 305.544C357.551 306.392 356.931 307.039 356.145 307.486C355.362 307.93 354.483 308.151 353.505 308.151C352.521 308.151 351.637 307.928 350.855 307.481C350.072 307.034 349.454 306.386 349 305.539C348.545 304.691 348.318 303.665 348.318 302.461C348.318 301.253 348.545 300.225 349 299.378C349.454 298.53 350.072 297.885 350.855 297.441C351.637 296.994 352.521 296.771 353.505 296.771C354.483 296.771 355.362 296.994 356.145 297.441C356.931 297.885 357.551 298.53 358.006 299.378C358.464 300.225 358.693 301.253 358.693 302.461ZM356.318 302.461C356.318 301.679 356.201 301.019 355.967 300.481C355.736 299.944 355.409 299.537 354.987 299.259C354.566 298.981 354.072 298.842 353.505 298.842C352.939 298.842 352.445 298.981 352.023 299.259C351.601 299.537 351.273 299.944 351.039 300.481C350.808 301.019 350.693 301.679 350.693 302.461C350.693 303.244 350.808 303.903 351.039 304.441C351.273 304.978 351.601 305.386 352.023 305.663C352.445 305.941 352.939 306.08 353.505 306.08C354.072 306.08 354.566 305.941 354.987 305.663C355.409 305.386 355.736 304.978 355.967 304.441C356.201 303.903 356.318 303.244 356.318 302.461ZM360.384 308V299.692H362.618V301.141H362.705C362.856 300.626 363.111 300.236 363.468 299.973C363.825 299.706 364.236 299.573 364.701 299.573C364.816 299.573 364.941 299.58 365.074 299.594C365.208 299.609 365.325 299.628 365.426 299.654V301.698C365.318 301.666 365.168 301.637 364.977 301.612C364.786 301.587 364.611 301.574 364.452 301.574C364.113 301.574 363.81 301.648 363.543 301.796C363.28 301.94 363.071 302.142 362.916 302.402C362.764 302.661 362.689 302.961 362.689 303.299V308H360.384ZM369.292 308.135C368.661 308.135 368.089 307.973 367.577 307.648C367.069 307.32 366.665 306.839 366.366 306.204C366.07 305.566 365.922 304.783 365.922 303.857C365.922 302.905 366.075 302.113 366.382 301.482C366.688 300.847 367.096 300.373 367.604 300.059C368.116 299.742 368.677 299.583 369.286 299.583C369.752 299.583 370.139 299.663 370.449 299.821C370.763 299.976 371.016 300.171 371.207 300.406C371.401 300.636 371.549 300.864 371.65 301.087H371.721V296.922H374.019V308H371.748V306.669H371.65C371.542 306.9 371.389 307.129 371.19 307.356C370.996 307.58 370.742 307.766 370.428 307.913C370.118 308.061 369.739 308.135 369.292 308.135ZM370.022 306.302C370.394 306.302 370.707 306.201 370.963 305.999C371.223 305.793 371.421 305.506 371.558 305.139C371.699 304.771 371.769 304.34 371.769 303.846C371.769 303.352 371.701 302.923 371.564 302.558C371.427 302.194 371.228 301.913 370.969 301.715C370.709 301.516 370.394 301.417 370.022 301.417C369.643 301.417 369.324 301.52 369.065 301.725C368.805 301.931 368.609 302.216 368.475 302.58C368.342 302.944 368.275 303.366 368.275 303.846C368.275 304.329 368.342 304.756 368.475 305.128C368.612 305.496 368.809 305.784 369.065 305.993C369.324 306.199 369.643 306.302 370.022 306.302ZM379.7 308.162C378.846 308.162 378.11 307.989 377.493 307.643C376.88 307.293 376.408 306.799 376.076 306.161C375.745 305.519 375.579 304.76 375.579 303.884C375.579 303.029 375.745 302.279 376.076 301.633C376.408 300.988 376.875 300.485 377.477 300.124C378.083 299.764 378.793 299.583 379.608 299.583C380.157 299.583 380.667 299.672 381.139 299.848C381.615 300.022 382.03 300.283 382.383 300.633C382.74 300.983 383.018 301.423 383.216 301.953C383.415 302.479 383.514 303.096 383.514 303.803V304.435H376.498V303.007H381.345C381.345 302.676 381.273 302.382 381.128 302.126C380.984 301.87 380.784 301.67 380.528 301.525C380.276 301.377 379.982 301.304 379.646 301.304C379.296 301.304 378.986 301.385 378.716 301.547C378.449 301.706 378.24 301.92 378.088 302.191C377.937 302.457 377.859 302.755 377.856 303.083V304.441C377.856 304.852 377.932 305.207 378.083 305.506C378.238 305.806 378.456 306.036 378.738 306.199C379.019 306.361 379.352 306.442 379.738 306.442C379.994 306.442 380.229 306.406 380.441 306.334C380.654 306.262 380.836 306.154 380.988 306.009C381.139 305.865 381.255 305.689 381.334 305.479L383.465 305.62C383.357 306.132 383.135 306.579 382.8 306.961C382.468 307.34 382.039 307.636 381.512 307.849C380.99 308.058 380.386 308.162 379.7 308.162ZM385.018 308V299.692H387.252V301.141H387.338C387.49 300.626 387.744 300.236 388.101 299.973C388.458 299.706 388.869 299.573 389.334 299.573C389.449 299.573 389.574 299.58 389.707 299.594C389.841 299.609 389.958 299.628 390.059 299.654V301.698C389.951 301.666 389.801 301.637 389.61 301.612C389.419 301.587 389.244 301.574 389.085 301.574C388.746 301.574 388.443 301.648 388.176 301.796C387.913 301.94 387.704 302.142 387.549 302.402C387.398 302.661 387.322 302.961 387.322 303.299V308H385.018ZM394.819 308V296.922H399.189C400.03 296.922 400.745 297.083 401.337 297.404C401.928 297.721 402.379 298.163 402.689 298.729C403.003 299.291 403.16 299.94 403.16 300.676C403.16 301.412 403.001 302.061 402.684 302.623C402.366 303.186 401.907 303.624 401.304 303.938C400.706 304.251 399.981 304.408 399.13 304.408H396.344V302.531H398.751C399.202 302.531 399.573 302.454 399.866 302.299C400.161 302.14 400.381 301.922 400.525 301.644C400.673 301.363 400.747 301.04 400.747 300.676C400.747 300.308 400.673 299.987 400.525 299.713C400.381 299.436 400.161 299.221 399.866 299.07C399.57 298.914 399.195 298.837 398.74 298.837H397.161V308H394.819ZM406.942 296.922V308H404.638V296.922H406.942ZM411.157 308.157C410.627 308.157 410.155 308.065 409.74 307.881C409.325 307.693 408.997 307.418 408.755 307.053C408.517 306.686 408.398 306.228 408.398 305.679C408.398 305.218 408.483 304.83 408.653 304.517C408.822 304.203 409.053 303.95 409.345 303.759C409.637 303.568 409.969 303.424 410.34 303.327C410.715 303.229 411.108 303.161 411.52 303.121C412.003 303.07 412.392 303.024 412.688 302.98C412.984 302.933 413.198 302.865 413.332 302.775C413.465 302.685 413.532 302.551 413.532 302.375V302.342C413.532 301.999 413.424 301.734 413.207 301.547C412.994 301.359 412.692 301.266 412.298 301.266C411.884 301.266 411.554 301.358 411.309 301.542C411.063 301.722 410.901 301.949 410.822 302.223L408.691 302.05C408.799 301.545 409.011 301.109 409.329 300.741C409.646 300.37 410.055 300.085 410.557 299.886C411.062 299.684 411.646 299.583 412.309 299.583C412.771 299.583 413.213 299.638 413.634 299.746C414.06 299.854 414.437 300.022 414.765 300.249C415.097 300.476 415.358 300.768 415.549 301.125C415.74 301.478 415.836 301.902 415.836 302.396V308H413.651V306.848H413.586C413.452 307.107 413.274 307.336 413.05 307.535C412.827 307.73 412.558 307.883 412.244 307.995C411.931 308.103 411.568 308.157 411.157 308.157ZM411.817 306.567C412.156 306.567 412.455 306.5 412.715 306.366C412.975 306.229 413.178 306.046 413.326 305.815C413.474 305.584 413.548 305.322 413.548 305.03V304.149C413.476 304.196 413.377 304.239 413.25 304.279C413.128 304.315 412.989 304.349 412.834 304.381C412.679 304.41 412.524 304.437 412.369 304.462C412.214 304.484 412.073 304.504 411.947 304.522C411.676 304.562 411.44 304.625 411.238 304.711C411.036 304.798 410.879 304.915 410.768 305.063C410.656 305.207 410.6 305.387 410.6 305.604C410.6 305.917 410.714 306.157 410.941 306.323C411.172 306.485 411.464 306.567 411.817 306.567ZM421.378 308.162C420.527 308.162 419.795 307.982 419.182 307.621C418.572 307.257 418.103 306.752 417.775 306.107C417.451 305.461 417.288 304.718 417.288 303.878C417.288 303.027 417.452 302.281 417.781 301.639C418.112 300.993 418.583 300.49 419.192 300.13C419.802 299.766 420.527 299.583 421.367 299.583C422.092 299.583 422.726 299.715 423.271 299.978C423.815 300.242 424.246 300.611 424.564 301.087C424.881 301.563 425.056 302.122 425.088 302.764H422.914C422.853 302.349 422.69 302.016 422.427 301.763C422.167 301.507 421.827 301.379 421.405 301.379C421.048 301.379 420.736 301.477 420.469 301.671C420.206 301.862 420 302.142 419.852 302.51C419.704 302.878 419.63 303.323 419.63 303.846C419.63 304.376 419.703 304.827 419.847 305.198C419.995 305.57 420.202 305.853 420.469 306.047C420.736 306.242 421.048 306.339 421.405 306.339C421.668 306.339 421.904 306.285 422.113 306.177C422.326 306.069 422.501 305.912 422.638 305.707C422.779 305.497 422.871 305.247 422.914 304.955H425.088C425.052 305.589 424.879 306.148 424.569 306.631C424.263 307.111 423.839 307.486 423.298 307.757C422.757 308.027 422.117 308.162 421.378 308.162ZM430.35 308.162C429.495 308.162 428.76 307.989 428.143 307.643C427.53 307.293 427.058 306.799 426.726 306.161C426.394 305.519 426.228 304.76 426.228 303.884C426.228 303.029 426.394 302.279 426.726 301.633C427.058 300.988 427.525 300.485 428.127 300.124C428.733 299.764 429.443 299.583 430.258 299.583C430.806 299.583 431.316 299.672 431.789 299.848C432.265 300.022 432.68 300.283 433.033 300.633C433.39 300.983 433.668 301.423 433.866 301.953C434.064 302.479 434.163 303.096 434.163 303.803V304.435H427.148V303.007H431.994C431.994 302.676 431.922 302.382 431.778 302.126C431.634 301.87 431.434 301.67 431.178 301.525C430.925 301.377 430.631 301.304 430.296 301.304C429.946 301.304 429.636 301.385 429.366 301.547C429.099 301.706 428.89 301.92 428.738 302.191C428.587 302.457 428.509 302.755 428.506 303.083V304.441C428.506 304.852 428.581 305.207 428.733 305.506C428.888 305.806 429.106 306.036 429.387 306.199C429.668 306.361 430.002 306.442 430.388 306.442C430.644 306.442 430.878 306.406 431.091 306.334C431.304 306.262 431.486 306.154 431.637 306.009C431.789 305.865 431.904 305.689 431.984 305.479L434.115 305.62C434.007 306.132 433.785 306.579 433.449 306.961C433.118 307.34 432.689 307.636 432.162 307.849C431.639 308.058 431.035 308.162 430.35 308.162ZM438.729 308.135C438.098 308.135 437.526 307.973 437.014 307.648C436.506 307.32 436.102 306.839 435.802 306.204C435.507 305.566 435.359 304.783 435.359 303.857C435.359 302.905 435.512 302.113 435.819 301.482C436.125 300.847 436.533 300.373 437.041 300.059C437.553 299.742 438.114 299.583 438.723 299.583C439.189 299.583 439.576 299.663 439.886 299.821C440.2 299.976 440.452 300.171 440.644 300.406C440.838 300.636 440.986 300.864 441.087 301.087H441.157V296.922H443.456V308H441.184V306.669H441.087C440.979 306.9 440.826 307.129 440.627 307.356C440.433 307.58 440.178 307.766 439.865 307.913C439.555 308.061 439.176 308.135 438.729 308.135ZM439.459 306.302C439.83 306.302 440.144 306.201 440.4 305.999C440.66 305.793 440.858 305.506 440.995 305.139C441.136 304.771 441.206 304.34 441.206 303.846C441.206 303.352 441.138 302.923 441.001 302.558C440.864 302.194 440.665 301.913 440.406 301.715C440.146 301.516 439.83 301.417 439.459 301.417C439.08 301.417 438.761 301.52 438.502 301.725C438.242 301.931 438.045 302.216 437.912 302.58C437.779 302.944 437.712 303.366 437.712 303.846C437.712 304.329 437.779 304.756 437.912 305.128C438.049 305.496 438.246 305.784 438.502 305.993C438.761 306.199 439.08 306.302 439.459 306.302Z" fill="#263238"/>
<path d="M623.049 64.176L616.35 57.1935C622.051 51.7689 629.174 48.0748 636.893 46.5409C644.611 45.007 652.606 45.6965 659.947 48.529C667.289 51.3616 673.675 56.2208 678.363 62.5412C683.051 68.8616 685.847 76.3833 686.427 84.231L676.809 84.945C676.366 78.9189 674.22 73.1427 670.622 68.2887C667.023 63.4346 662.121 59.7024 656.484 57.5264C650.847 55.3504 644.708 54.8202 638.781 55.9974C632.855 57.1746 627.384 60.0108 623.007 64.176H623.049Z" fill="black"/>
<path d="M668.115 78.5295L677.922 103.604L694.733 82.593L668.115 78.5295Z" fill="black"/>
<g opacity="0.2">
<path opacity="0.2" d="M623.049 64.176L616.35 57.1935C622.051 51.7689 629.174 48.0748 636.893 46.5409C644.611 45.007 652.606 45.6965 659.947 48.529C667.289 51.3616 673.675 56.2208 678.363 62.5412C683.051 68.8616 685.847 76.3833 686.427 84.231L676.809 84.945C676.366 78.9189 674.22 73.1427 670.622 68.2887C667.023 63.4346 662.121 59.7024 656.484 57.5264C650.847 55.3504 644.708 54.8202 638.781 55.9974C632.855 57.1746 627.384 60.0108 623.007 64.176H623.049Z" fill="black"/>
<path opacity="0.2" d="M668.115 78.5295L677.922 103.604L694.733 82.593L668.115 78.5295Z" fill="black"/>
</g>
<path d="M627.711 122.367C621.268 119.133 615.772 114.287 611.758 108.3C607.743 102.312 605.346 95.3881 604.8 88.2001L614.418 87.4861C614.876 93.681 617.133 99.6074 620.911 104.538C624.69 109.468 629.826 113.188 635.689 115.241C641.552 117.294 647.886 117.59 653.915 116.093C659.944 114.597 665.405 111.373 669.627 106.817L676.704 113.369C670.588 119.933 662.52 124.352 653.696 125.973C644.872 127.594 635.76 126.329 627.711 122.367Z" fill="black"/>
<path d="M623.112 93.9119L613.315 68.8379L596.495 89.8589L623.112 93.9119Z" fill="black"/>
<path d="M497.732 485.363C553.883 485.363 599.403 480.92 599.403 475.44C599.403 469.96 553.883 465.518 497.732 465.518C441.58 465.518 396.06 469.96 396.06 475.44C396.06 480.92 441.58 485.363 497.732 485.363Z" fill="#EBEBEB"/>
<path d="M515.361 477.319C517.629 476.49 568.911 435.466 569.961 432.663C570.329 431.613 564.795 423.78 557.834 414.519C556.332 412.524 554.768 410.466 553.161 408.387C542.787 394.873 531.468 380.772 531.468 380.772L497.06 408.072L519.698 434.931L524.664 440.832C524.664 440.832 512.064 465.318 511.308 468.51C510.552 471.702 513.083 478.149 515.361 477.319Z" fill="#F7A9A0"/>
<path d="M515.361 477.319C517.629 476.49 568.911 435.466 569.961 432.663C570.402 431.371 562.139 420.063 553.161 408.387L519.698 434.973L524.664 440.874C524.664 440.874 512.064 465.36 511.308 468.552C510.552 471.744 513.083 478.149 515.361 477.319Z" fill="white"/>
<path d="M515.361 477.32C517.629 476.49 568.911 435.467 569.961 432.663C570.329 431.613 564.795 423.78 557.834 414.519L524.664 440.874C524.664 440.874 512.064 465.36 511.308 468.552C510.552 471.744 513.083 478.149 515.361 477.32Z" fill="black"/>
<path d="M514.5 474.684C522.9 467.596 557.624 439.803 566.496 433.44C566.57 433.387 566.601 433.44 566.496 433.492C558.296 440.695 523.372 468.205 514.563 474.82C514.384 474.957 514.279 474.831 514.5 474.684Z" fill="#263238"/>
<path d="M513.104 464.1C514.04 463.31 515.13 462.723 516.304 462.376C517.479 462.029 518.713 461.93 519.929 462.084C522.113 462.35 524.112 463.444 525.515 465.14C525.515 465.192 525.462 465.276 525.42 465.224C523.769 463.748 521.685 462.848 519.479 462.659C517.273 462.469 515.065 463.001 513.188 464.174C513.114 464.226 513.03 464.1 513.104 464.1Z" fill="#263238"/>
<path d="M521.976 444.392C525.389 441.599 530.376 439.614 534.744 440.727C534.912 440.727 534.849 441.011 534.744 441.042C530.472 441.868 526.301 443.149 522.302 444.864C522.239 444.907 522.162 444.924 522.087 444.91C522.012 444.896 521.946 444.853 521.903 444.791C521.859 444.728 521.843 444.651 521.857 444.576C521.87 444.501 521.913 444.435 521.976 444.392Z" fill="#263238"/>
<path d="M520.149 447.552C523.551 444.759 528.549 442.775 532.906 443.888C533.074 443.888 533.011 444.171 532.906 444.202C528.634 445.027 524.462 446.308 520.464 448.025C520.401 448.066 520.325 448.081 520.251 448.067C520.177 448.052 520.112 448.008 520.07 447.946C520.028 447.883 520.013 447.806 520.028 447.733C520.043 447.659 520.086 447.594 520.149 447.552Z" fill="#263238"/>
<path d="M518.322 450.713C521.724 447.92 526.722 445.935 531.08 447.048C531.248 447.048 531.185 447.332 531.08 447.363C526.808 448.19 522.637 449.472 518.637 451.185C518.574 451.227 518.498 451.242 518.424 451.227C518.35 451.213 518.285 451.169 518.243 451.106C518.201 451.044 518.186 450.967 518.201 450.893C518.216 450.819 518.259 450.754 518.322 450.713Z" fill="#263238"/>
<path d="M516.485 453.873C519.897 451.08 524.885 449.106 529.252 450.208C529.42 450.208 529.357 450.492 529.252 450.524C524.981 451.351 520.81 452.632 516.81 454.345C516.747 454.389 516.67 454.405 516.595 454.391C516.521 454.378 516.454 454.335 516.411 454.272C516.368 454.209 516.351 454.132 516.365 454.057C516.379 453.982 516.422 453.916 516.485 453.873Z" fill="#263238"/>
<path d="M557.728 427.014C561.603 423.937 566.391 429.954 562.516 433.041C558.642 436.128 553.854 430.101 557.728 427.014Z" fill="white"/>
<path d="M515.224 443.005C518.994 443.919 523.036 443.163 526.837 442.9C526.922 442.89 527.002 442.859 527.072 442.811C527.142 442.762 527.199 442.697 527.238 442.622C527.277 442.547 527.298 442.463 527.297 442.378C527.297 442.293 527.276 442.209 527.236 442.134C527.252 442.123 527.264 442.109 527.273 442.093C527.281 442.076 527.286 442.058 527.286 442.039C527.286 442.021 527.281 442.003 527.273 441.986C527.264 441.97 527.252 441.956 527.236 441.945C524.46 438.989 520.955 436.816 517.072 435.645C514.794 435.004 511.476 435.351 510.888 438.186C510.3 441.021 513.019 442.47 515.224 443.005ZM512.788 440.286C510.132 436.264 515.812 436.432 517.471 436.978C518.55 437.345 519.602 437.783 520.621 438.291C522.721 439.341 524.653 440.622 526.648 441.85C524.769 441.85 522.91 442.039 521.031 442.123C518.752 442.218 514.248 442.501 512.788 440.286Z" fill="#263238"/>
<path d="M537.737 429.975C535.637 427.938 532.718 429.503 531.185 431.309C528.609 434.441 526.903 438.196 526.239 442.197C526.236 442.215 526.236 442.233 526.241 442.251C526.246 442.268 526.255 442.284 526.268 442.297C526.28 442.31 526.295 442.321 526.312 442.327C526.329 442.333 526.347 442.336 526.365 442.334C526.377 442.418 526.408 442.498 526.457 442.567C526.505 442.637 526.569 442.695 526.643 442.735C526.718 442.776 526.8 442.799 526.885 442.802C526.97 442.805 527.054 442.789 527.131 442.754C530.439 440.853 534.208 439.236 536.844 436.38C538.377 434.7 539.7 431.897 537.737 429.975ZM531.562 438.9C529.956 439.877 528.308 440.769 526.743 441.798C527.642 439.648 528.652 437.545 529.767 435.498C530.323 434.516 530.943 433.572 531.625 432.674C532.675 431.309 537.327 428.001 537.358 432.81C537.369 435.414 533.474 437.693 531.562 438.9Z" fill="#263238"/>
<path d="M462.273 355.541C464.625 373.391 508.694 425.03 513.776 430.952L514.941 432.296L551.387 404.25L550.966 403.704L518.868 361.704L614.607 371.333L589.806 343.382C589.806 343.382 586.856 345.083 580.724 344.19C559.598 341.093 500.42 323.747 489.185 324.24C474.695 324.818 460.11 339.15 462.273 355.541Z" fill="#37474F"/>
<path d="M507.35 346.101C508.537 347.432 509.642 348.834 510.657 350.301C511.791 351.792 512.946 353.262 514.08 354.753C513.881 354.323 513.681 353.882 513.471 353.451C512.757 351.971 512.179 350.438 511.371 349.02C511.366 349.011 511.363 349.001 511.362 348.991C511.361 348.981 511.362 348.971 511.365 348.961C511.368 348.951 511.373 348.942 511.379 348.934C511.386 348.926 511.394 348.92 511.402 348.915C511.411 348.91 511.421 348.907 511.431 348.906C511.442 348.905 511.452 348.906 511.462 348.909C511.471 348.912 511.48 348.917 511.488 348.923C511.496 348.93 511.503 348.938 511.508 348.947C512.369 350.354 513.377 351.687 514.122 353.147C514.479 353.84 514.805 354.543 515.119 355.247C515.287 355.646 515.456 356.034 515.613 356.433C515.692 356.621 515.759 356.814 515.813 357.011C516.327 357.693 516.862 358.386 517.314 359.111C518.364 360.675 519.351 362.324 520.464 363.878C520.464 363.962 520.39 364.035 520.327 363.962C519.277 362.502 517.975 361.137 516.852 359.688C515.728 358.239 514.626 356.696 513.555 355.173C512.484 353.651 511.455 352.17 510.405 350.679C509.255 349.213 508.203 347.673 507.255 346.07C507.224 346.122 507.297 346.059 507.35 346.101Z" fill="#263238"/>
<path d="M600.128 303.713C594.878 324.293 584.441 348.863 580.178 352.8C574.749 357.767 539.364 366.272 537.611 366.45C533.253 366.786 525.305 335.318 529.946 334.761C537.012 333.911 562.632 333.134 564.207 331.611C565.782 330.089 576.965 316.638 588.441 301.518C596.327 291.008 603.383 290.934 600.128 303.713Z" fill="#F7A9A0"/>
<path d="M541.086 364.812C537.034 366.767 532.848 368.43 528.56 369.789C525.147 370.692 515.256 373.023 513.86 369.358C512.925 366.87 518.574 364.812 522.543 363.268C524.643 362.46 527.236 360.349 526.659 359.005C525.609 356.653 520.264 358.869 516.715 360.822C509.848 364.591 500.651 371.458 496.598 367.92C495.065 366.586 496.933 364.266 499.653 362.008C495.274 364.612 490.623 366.712 488.859 365.295C487.809 364.486 487.809 363.415 488.429 362.197C487.879 362.441 487.269 362.514 486.678 362.408C486.086 362.301 485.54 362.019 485.111 361.599C483.746 360.097 484.481 357.955 486.066 355.771C485.804 355.736 485.553 355.638 485.336 355.487C485.119 355.335 484.941 355.134 484.817 354.9C481.961 350.311 497.123 337.669 502.289 336.577C512.535 334.61 522.98 333.88 533.4 334.404C539.259 339.286 541.107 364.801 541.086 364.812Z" fill="#F7A9A0"/>
<path d="M519.204 350.364C515.592 350.839 512.122 352.081 509.03 354.008C505.134 356.444 502.52 359.342 499.233 362.25C499.149 362.324 499.233 362.46 499.349 362.387C500.913 361.001 507.392 355.824 509.061 354.659C512.082 352.504 515.555 351.068 519.215 350.459C519.215 350.459 519.236 350.364 519.204 350.364Z" fill="#263238"/>
<path d="M516.537 343.886C512.478 344.741 508.516 346.007 504.714 347.666C500.629 349.629 497.364 352.916 494.214 356.066C492.303 357.956 490.434 359.891 488.607 361.872C488.533 361.956 488.607 362.093 488.723 362.009C491.956 358.74 495.285 355.59 498.708 352.559C501.866 349.706 505.555 347.505 509.565 346.08C511.864 345.261 514.216 344.631 516.558 343.98C516.6 343.949 516.6 343.875 516.537 343.886Z" fill="#263238"/>
<path d="M512.4 338.174C508.515 338.877 505.134 339.476 501.669 341.46C497.08 344.085 492.597 348.6 491.022 350.196C489.289 351.96 487.62 353.787 485.971 355.635C485.898 355.709 486.034 355.824 486.097 355.751C489.875 351.708 493.912 347.917 498.183 344.4C500.184 342.684 502.44 341.292 504.871 340.274C507.328 339.376 509.857 338.691 512.431 338.226L512.4 338.174Z" fill="#263238"/>
<path d="M535.899 333.176L545.885 367.689C545.885 367.689 575.358 360.035 580.85 354.396C586.341 348.758 596.925 319.2 600.18 304.836C603.435 290.472 596.117 290.651 589.187 299.586C582.257 308.522 565.037 330.194 564.081 330.656C563.126 331.118 535.899 333.176 535.899 333.176Z" fill="black"/>
<path d="M549.066 352.548C547.848 348.474 546.609 344.411 545.538 340.295C544.94 337.953 544.32 335.622 543.742 333.281C543.742 333.186 543.869 333.144 543.9 333.228C545.276 337.26 546.651 341.313 547.848 345.419C549.045 349.524 550.253 353.567 551.387 357.662C552.038 359.982 552.605 362.324 553.109 364.686H553.025C551.513 360.728 550.284 356.643 549.066 352.548Z" fill="#263238"/>
<path d="M548.215 332.21H548.457C548.452 332.304 548.452 332.399 548.457 332.493C548.478 334.037 548.769 335.565 549.318 337.008C549.88 338.45 550.678 339.788 551.68 340.967C552.657 342.163 553.902 343.113 555.313 343.739C556.733 344.355 558.244 344.735 559.786 344.862C561.007 344.986 562.236 345.021 563.462 344.967H563.745H564.427C565.971 344.883 567.514 344.705 569.068 344.516C572.144 344.037 575.242 343.722 578.35 343.571C579.912 343.517 581.473 343.676 582.991 344.043C584.13 344.32 585.202 344.824 586.141 345.524L586.078 345.66C585.142 344.956 584.069 344.455 582.928 344.19C581.423 343.835 579.876 343.683 578.329 343.739C575.225 343.901 572.13 344.219 569.058 344.694C567.515 344.883 565.971 345.062 564.417 345.167H563.965H563.703C562.38 345.252 561.053 345.228 559.734 345.093C558.17 344.967 556.637 344.584 555.198 343.959C553.756 343.315 552.481 342.348 551.471 341.135C550.454 339.935 549.641 338.577 549.066 337.113C548.789 336.384 548.575 335.632 548.425 334.866C548.291 334.092 548.214 333.31 548.195 332.525C548.195 332.419 548.201 332.314 548.215 332.21ZM557.96 336.126C558.339 337.643 558.936 339.097 559.734 340.442C560.503 341.805 561.461 343.053 562.579 344.148C562.863 344.421 563.157 344.684 563.462 344.946C563.541 345.016 563.629 345.076 563.724 345.125C564.553 345.794 565.459 346.361 566.423 346.815C567.843 347.468 569.323 347.981 570.843 348.348C573.856 349.104 576.954 349.545 579.831 350.742C580.786 351.119 581.698 351.598 582.55 352.17C582.572 352.13 582.597 352.091 582.624 352.055C581.762 351.479 580.844 350.994 579.884 350.606C576.986 349.398 573.878 348.957 570.875 348.191C569.367 347.83 567.9 347.316 566.496 346.658C565.61 346.232 564.769 345.719 563.987 345.125C563.902 345.068 563.821 345.004 563.745 344.936C563.378 344.652 563.042 344.337 562.695 344.022C560.495 341.824 558.919 339.081 558.127 336.074C557.775 334.567 557.62 333.021 557.665 331.475C557.66 331.45 557.66 331.425 557.665 331.401H557.445V331.464C557.4 333.034 557.573 334.603 557.96 336.126Z" fill="white"/>
<path opacity="0.1" d="M544.887 364.256L545.884 367.689C545.884 367.689 575.369 360.035 580.85 354.407C586.331 348.779 596.925 319.2 600.18 304.836C602.553 294.336 599.288 291.596 594.647 294.389C582.099 311.651 558.442 344.4 544.887 364.256Z" fill="black"/>
<path d="M633.959 371.637C633.791 371.805 571.494 358.155 570.959 357.43C570.15 356.38 581.28 309.561 593.009 295.575C595.949 292.078 605.304 292.32 609.483 295.848C630.21 313.341 634.547 371.028 633.959 371.637Z" fill="black"/>
<path d="M614.586 299.387C627.501 309.32 661.552 349.493 654.433 359.027C647.314 368.561 598.5 365.4 584.304 361.284C580.104 360.066 590.94 333.123 595.455 331.79C599.214 330.687 620.34 336.41 620.718 335.192C621.148 333.806 616.518 324.902 608.926 308.627C600.222 289.863 608.884 295.05 614.586 299.387Z" fill="#F7A9A0"/>
<path d="M574.654 327.128C564.9 327.369 562.433 328.934 554.085 324.776C548.604 322.046 544.509 324.366 548.236 329.532C554.316 337.932 566.979 340.295 571.599 339.843L574.654 327.128Z" fill="#F7A9A0"/>
<path d="M601.503 332.115C601.503 332.115 589.806 327.915 579.379 327.17C572.176 326.645 556.363 327.243 544.068 345.02C541.159 349.22 539.983 357.284 547.218 352.149C552.373 348.495 554.568 344.621 557.928 343.045C557.928 343.045 557.655 353.472 561.981 356.233C565.766 358.641 569.717 360.778 573.804 362.628C574.31 361.956 574.777 361.255 575.2 360.528C575.2 360.528 579.484 362.723 586.551 360.854L601.503 332.115Z" fill="#F7A9A0"/>
<path d="M572.418 327.768C569.394 330.047 563.052 334.971 559.272 340.809C555.072 347.298 548.772 360.917 553.55 363.972C557.088 366.209 559.965 361.221 559.965 361.221C559.965 361.221 558.527 367.406 562.16 368.729C565.478 369.936 567.473 365.936 567.473 365.936C567.473 365.936 567.242 369.842 570.623 370.388C574.728 371.039 574.529 362.765 579.264 359.835C580.356 359.174 572.418 327.768 572.418 327.768Z" fill="#F7A9A0"/>
<path d="M566.863 344.106C562.867 348.921 560.435 354.84 559.891 361.074C559.891 361.242 559.996 361.326 560.038 361.189C561.635 355.251 563.948 349.528 566.926 344.148L566.863 344.106Z" fill="#263238"/>
<path d="M573.3 348.537C571.378 351.004 567.441 358.806 567.346 365.893C567.346 366.051 567.462 366.135 567.493 365.988C568.791 359.991 570.756 354.159 573.352 348.6C573.352 348.6 573.3 348.505 573.3 348.537Z" fill="#263238"/>
<path d="M557.928 342.941C554.977 344.369 553.203 346.227 550.883 348.485C549.747 349.615 548.552 350.684 547.302 351.687C546.147 352.58 544.457 353.924 542.923 353.073C542.553 352.792 542.266 352.417 542.092 351.986C541.919 351.555 541.865 351.086 541.936 350.627C542.101 349.3 542.48 348.009 543.06 346.805C543.06 346.805 542.997 346.721 542.976 346.805C542.41 347.91 541.96 349.071 541.632 350.27C541.417 351.085 541.457 351.946 541.748 352.737C542.493 354.375 544.551 354.27 545.948 353.556C546.749 353.106 547.502 352.575 548.195 351.971C548.877 351.414 549.528 350.826 550.168 350.217C551.481 348.978 552.72 347.666 554.022 346.406C555.29 345.211 556.633 344.1 558.043 343.077C558.054 342.993 557.991 342.909 557.928 342.941Z" fill="#263238"/>
<path d="M553.235 354.952C554.565 350.87 556.161 346.878 558.012 343.003C558.012 342.951 558.012 342.909 557.939 342.951C555.839 345.649 553.004 352.401 552.426 354.501C551.681 356.709 551.391 359.045 551.576 361.368C552.111 364.623 554.369 364.875 555.198 364.906C556.172 364.917 557.12 364.595 557.886 363.993C558.768 363.222 559.483 362.279 559.986 361.221C559.986 361.221 559.986 361.126 559.913 361.221C558.999 362.68 557.34 364.255 555.534 364.318C555.138 364.342 554.741 364.288 554.367 364.158C553.992 364.028 553.646 363.826 553.35 363.562C552.738 362.861 552.399 361.963 552.395 361.032C552.327 358.972 552.611 356.917 553.235 354.952Z" fill="#263238"/>
<path d="M601.503 332.115L591.707 366.219C591.707 366.219 652.691 369.694 656.072 358.627C659.453 347.56 630 311.272 617.767 301.35C603.603 289.8 602.847 294.651 607.457 306.201C612.276 318.286 620.592 335.601 620.592 335.601L601.503 332.115Z" fill="black"/>
<path d="M618.975 329.584C620.512 329.446 622.018 329.067 623.437 328.461C624.571 327.979 625.669 327.418 626.724 326.781L626.965 326.634C627.165 326.518 627.364 326.403 627.543 326.277C628.855 325.468 630.137 324.576 631.397 323.673C632.877 322.623 634.337 321.573 635.838 320.523C635.879 320.564 635.914 320.61 635.943 320.659C634.452 321.709 632.982 322.759 631.512 323.809C630.242 324.723 628.971 325.605 627.648 326.434L627.27 326.665L627.028 326.812C625.903 327.499 624.731 328.106 623.522 328.629C622.081 329.254 620.549 329.644 618.986 329.784C618.636 329.803 618.285 329.803 617.936 329.784L617.841 329.563C618.218 329.59 618.597 329.597 618.975 329.584ZM607.173 301.045C606.588 300.55 605.963 300.103 605.304 299.712C605.304 299.817 605.304 299.922 605.377 300.037C605.956 300.39 606.504 300.79 607.015 301.234C608.182 302.245 609.166 303.449 609.924 304.794C610.675 306.132 611.297 307.538 611.783 308.994C612.308 310.453 612.748 311.955 613.252 313.425C613.739 314.908 614.332 316.354 615.027 317.751C615.733 319.148 616.623 320.444 617.673 321.604C618.738 322.754 619.957 323.751 621.296 324.565C622.622 325.4 624.061 326.04 625.569 326.466C625.949 326.578 626.334 326.669 626.724 326.739H627.028C628.069 326.915 629.125 326.978 630.178 326.928C631.737 326.835 633.282 326.582 634.788 326.172C636.321 325.794 637.833 325.321 639.345 324.901L639.251 324.775C637.749 325.174 636.258 325.636 634.746 326.025C633.248 326.422 631.715 326.668 630.168 326.76C629.188 326.809 628.206 326.753 627.238 326.592C627.135 326.585 627.034 326.567 626.934 326.539C626.476 326.472 626.024 326.373 625.579 326.245C624.098 325.81 622.684 325.171 621.379 324.345C620.056 323.544 618.854 322.557 617.81 321.415C616.777 320.266 615.901 318.984 615.205 317.604C614.515 316.214 613.929 314.775 613.452 313.299C612.948 311.829 612.507 310.338 611.992 308.857C611.505 307.378 610.879 305.947 610.123 304.584C609.734 303.9 609.291 303.247 608.8 302.631C608.305 302.056 607.761 301.526 607.173 301.045ZM603.109 334.488C603.109 334.96 603.109 335.422 603.109 335.905C603.109 335.905 603.109 336 603.109 336.052C603.196 337.09 603.368 338.119 603.624 339.129C603.999 340.646 604.585 342.102 605.367 343.455C606.162 344.802 607.153 346.023 608.307 347.077C610.607 349.177 613.389 350.689 615.94 352.453C617.229 353.311 618.426 354.3 619.511 355.404C620.194 356.109 620.803 356.883 621.327 357.714C621.398 357.793 621.458 357.881 621.505 357.976C621.746 358.367 621.967 358.77 622.167 359.184C622.831 360.585 623.29 362.073 623.532 363.604C623.7 364.572 623.784 365.552 623.784 366.534H623.984C623.986 365.541 623.898 364.55 623.721 363.573C623.469 362.024 622.998 360.518 622.324 359.1C622.156 358.753 621.967 358.407 621.768 358.05L621.611 357.777C621.042 356.874 620.38 356.033 619.636 355.267C618.54 354.156 617.329 353.164 616.024 352.306C613.462 350.542 610.701 349.051 608.412 346.951C607.259 345.91 606.271 344.699 605.483 343.36C604.714 342.043 604.131 340.626 603.75 339.15C603.479 338.118 603.3 337.064 603.214 336C603.214 335.937 603.214 335.884 603.214 335.842C603.214 335.412 603.214 334.992 603.214 334.561C603.214 333.877 603.256 333.193 603.34 332.514H603.267C603.176 333.168 603.124 333.827 603.109 334.488ZM600.159 348.684C600.808 350.122 601.849 351.348 603.162 352.222C604.463 353.091 605.876 353.78 607.362 354.27C610.333 355.204 613.35 355.982 616.402 356.601C617.904 356.958 619.416 357.325 620.897 357.766L621.558 357.976C621.649 357.997 621.737 358.029 621.821 358.071C622.994 358.436 624.138 358.888 625.243 359.425C626.642 360.079 627.926 360.954 629.045 362.019C630.152 363.097 630.996 364.416 631.512 365.872C631.541 365.951 631.566 366.032 631.586 366.114H631.827L631.733 365.82C631.203 364.33 630.337 362.983 629.202 361.882C628.063 360.803 626.758 359.914 625.338 359.247C624.15 358.681 622.922 358.203 621.663 357.819L621.379 357.735L620.949 357.609C619.468 357.157 617.946 356.79 616.434 356.433C613.39 355.822 610.379 355.055 607.414 354.133C605.932 353.654 604.519 352.98 603.214 352.128C601.913 351.275 600.884 350.065 600.253 348.642C599.641 347.217 599.395 345.661 599.539 344.116C599.719 342.576 600.197 341.085 600.946 339.727C601.597 338.478 602.374 337.27 603.13 336.073L603.214 335.947C603.871 334.931 604.47 333.88 605.01 332.797H604.936C604.421 333.843 603.842 334.856 603.204 335.832C603.177 335.881 603.146 335.926 603.109 335.968C602.332 337.197 601.524 338.415 600.841 339.717C600.079 341.087 599.591 342.592 599.403 344.148C599.283 345.699 599.543 347.256 600.159 348.684Z" fill="white"/>
<path d="M639.859 340.977C636.8 339.544 633.642 338.334 630.41 337.355C627.224 336.419 623.974 335.717 620.687 335.255C618.807 334.961 616.928 334.751 615.038 334.541C615.038 334.541 614.975 334.625 615.038 334.635C618.344 335.145 621.619 335.846 624.845 336.735C628.058 337.575 631.253 338.471 634.431 339.423C636.226 339.959 638.001 340.589 639.786 341.187C639.891 341.135 639.933 341.009 639.859 340.977Z" fill="#263238"/>
<path d="M601.65 331.989C601.955 331.989 618.912 334.667 619.5 334.824C619.385 334.593 615.09 326.529 614.45 325.374L614.261 325.017C613.883 324.513 613.494 323.967 613.127 323.474C612.759 322.98 612.192 322.13 611.73 321.447L613.2 323.4L613.862 324.324C613.431 323.484 613.011 322.644 612.591 321.794C611.919 320.45 611.3 319.085 610.68 317.709C610.68 317.709 610.68 317.646 610.743 317.709C612.014 320.061 613.347 322.371 614.628 324.713C615.909 327.054 620.729 335.696 620.697 335.696C620.666 335.696 601.955 332.378 601.587 332.283C601.548 332.275 601.514 332.251 601.492 332.218C601.471 332.184 601.463 332.144 601.472 332.105C601.48 332.066 601.503 332.032 601.537 332.01C601.57 331.988 601.611 331.981 601.65 331.989Z" fill="#263238"/>
<path d="M603.981 352.8C605.031 348.999 606.081 345.188 607.299 341.418C607.992 339.318 608.664 337.145 609.399 335.003C609.399 334.929 609.567 335.003 609.546 335.003C608.622 338.867 607.687 342.731 606.585 346.553C605.482 350.375 604.485 354.155 603.288 357.935C602.637 360.084 601.937 362.215 601.188 364.329C601.188 364.329 601.093 364.329 601.104 364.329C601.839 360.455 602.899 356.633 603.981 352.8Z" fill="#263238"/>
<path d="M591.035 366.838C591.455 365.788 591.969 364.245 592.441 363.195C592.567 362.911 592.767 362.932 592.683 363.195C592.379 364.161 592.169 365.211 591.875 366.198C592.725 366.198 593.586 366.198 594.437 366.271L597.45 366.45C599.382 366.523 601.314 366.576 603.246 366.618C607.163 366.691 611.069 366.681 614.985 366.618C622.814 366.446 630.63 365.872 638.4 364.896C640.584 364.623 642.754 364.294 644.91 363.909C647.033 363.565 649.135 363.109 651.21 362.544C651.263 362.544 651.294 362.628 651.21 362.649C649.442 363.336 647.624 363.883 645.771 364.287C643.829 364.707 641.865 365.074 639.902 365.337C635.985 365.935 632.037 366.334 628.089 366.618C620.256 367.185 612.392 367.416 604.538 367.332C602.343 367.332 600.138 367.258 597.943 367.185L594.604 367.048C593.596 367.027 590.961 367.027 591.035 366.838Z" fill="#263238"/>
<path d="M576.229 373.475H504.21V376.698H576.229V373.475Z" fill="#C7C7C7"/>
<path d="M504.21 373.475V376.698H553.161L550.693 373.475H504.21Z" fill="#A6A6A6"/>
<path d="M547.586 376.698H477.404L471.555 329.028H541.748L547.586 376.698Z" fill="#C7C7C7"/>
<path d="M513.849 352.863C513.859 353.421 513.757 353.975 513.551 354.493C513.344 355.011 513.036 355.483 512.645 355.881C512.254 356.278 511.788 356.594 511.273 356.81C510.759 357.026 510.207 357.137 509.649 357.137C508.51 357.134 507.416 356.685 506.604 355.886C505.791 355.088 505.324 354.002 505.302 352.863C505.292 352.305 505.394 351.751 505.6 351.233C505.807 350.715 506.115 350.243 506.506 349.846C506.897 349.448 507.363 349.132 507.878 348.916C508.392 348.701 508.944 348.59 509.502 348.59C510.64 348.597 511.73 349.048 512.541 349.846C513.353 350.643 513.822 351.726 513.849 352.863Z" fill="white"/>
<path d="M595.938 306.369C598.794 306.369 604.391 300.678 606.438 296.058C606.575 295.743 605.85 292.593 605.147 288.708C604.727 286.356 604.307 283.731 604.097 281.306L589.197 286.272C590.319 289.231 591.074 292.317 591.444 295.46C591.484 295.809 591.484 296.161 591.444 296.51C591.439 296.562 591.439 296.615 591.444 296.667C591.276 298.557 591.476 306.432 595.938 306.369Z" fill="#F7A9A0"/>
<path d="M591.444 296.478C591.437 296.534 591.437 296.59 591.444 296.646C591.968 296.687 592.495 296.687 593.019 296.646C601.65 295.722 602.889 285.012 603.047 281.736L589.228 286.335C590.351 289.295 591.109 292.38 591.486 295.523C591.491 295.842 591.477 296.161 591.444 296.478Z" fill="#263238"/>
<path d="M602.112 262.332C604.926 267.235 605.619 283.111 602.637 287.364C598.321 293.527 589.533 296.037 583.852 290.451C578.35 285.043 577.815 264.337 581.301 260.295C586.435 254.341 597.954 255.087 602.112 262.332Z" fill="#F7A9A0"/>
<path d="M591.664 273.346C591.199 273.248 590.74 273.121 590.289 272.968C589.79 272.906 589.325 272.681 588.966 272.328C588.874 272.195 588.829 272.034 588.838 271.873C588.848 271.711 588.911 271.557 589.018 271.435C589.264 271.227 589.561 271.087 589.879 271.032C590.196 270.976 590.523 271.007 590.824 271.12C591.478 271.251 592.057 271.626 592.441 272.17C592.519 272.297 592.559 272.442 592.557 272.59C592.555 272.738 592.51 272.883 592.428 273.006C592.347 273.13 592.231 273.228 592.096 273.288C591.961 273.348 591.811 273.368 591.664 273.346Z" fill="#263238"/>
<path d="M580.881 274.25C581.337 274.121 581.786 273.967 582.225 273.788C582.72 273.692 583.169 273.438 583.506 273.063C583.586 272.924 583.618 272.762 583.597 272.603C583.576 272.443 583.504 272.295 583.391 272.181C583.133 271.989 582.83 271.868 582.511 271.831C582.192 271.794 581.868 271.842 581.574 271.971C580.936 272.143 580.385 272.548 580.03 273.105C579.955 273.236 579.919 273.387 579.928 273.538C579.937 273.69 579.99 273.835 580.08 273.957C580.17 274.078 580.294 274.171 580.437 274.223C580.579 274.275 580.733 274.284 580.881 274.25Z" fill="#263238"/>
<path d="M587.317 284.193C587.812 284.746 588.442 285.162 589.144 285.4C589.531 285.521 589.945 285.521 590.331 285.4C591.16 285.117 591.129 284.35 590.919 283.668C590.804 283.319 590.649 282.984 590.457 282.67C589.6 283.5 588.5 284.034 587.317 284.193Z" fill="#263238"/>
<path d="M589.145 285.4C589.531 285.521 589.945 285.521 590.331 285.4C591.16 285.117 591.129 284.35 590.919 283.668C590.472 283.718 590.055 283.915 589.734 284.229C589.412 284.543 589.205 284.955 589.145 285.4Z" fill="#FF9ABB"/>
<path d="M589.428 276.15C589.428 276.15 589.512 276.15 589.522 276.234C589.596 277.284 589.869 278.492 590.866 278.744V278.807C589.669 278.744 589.333 277.2 589.428 276.15Z" fill="#263238"/>
<path d="M590.258 274.921C591.937 274.606 592.441 278.008 590.877 278.292C589.312 278.575 588.84 275.184 590.258 274.921Z" fill="#263238"/>
<path d="M583.254 276.612C583.254 276.612 583.17 276.675 583.18 276.717C583.38 277.767 583.422 278.996 582.529 279.489V279.542C583.684 279.206 583.6 277.568 583.254 276.612Z" fill="#263238"/>
<path d="M582.141 275.656C580.429 275.793 580.818 279.205 582.403 279.079C583.989 278.953 583.579 275.551 582.141 275.656Z" fill="#263238"/>
<path d="M604.548 278.25C603.687 278.376 602.196 275.52 601.702 275.499C601.422 275.479 601.148 275.403 600.897 275.275C600.646 275.146 600.424 274.969 600.243 274.754C599.818 271.83 599.236 268.931 598.5 266.07C598.042 264.687 597.119 263.505 595.888 262.726C594.657 261.947 593.194 261.618 591.748 261.797C588.966 262.353 587.632 265.094 585.627 265.094C583.621 265.094 582.729 263.172 581.511 263.582C580.293 263.991 579.411 266.28 579.211 268.212C579.463 264.569 580.167 261.587 581.311 260.295C586.446 254.342 597.975 255.045 602.123 262.332C603.824 265.293 604.737 272.265 604.548 278.25Z" fill="#263238"/>
<path d="M601.65 275.499C601.65 275.499 604.086 269.829 606.585 270.595C609.084 271.362 607.971 279.079 605.535 280.602C605.236 280.82 604.897 280.975 604.537 281.058C604.177 281.142 603.803 281.151 603.439 281.086C603.075 281.022 602.728 280.884 602.419 280.682C602.11 280.479 601.845 280.216 601.639 279.909L601.65 275.499Z" fill="#F7A9A0"/>
<path d="M606.249 272.801V272.864C604.559 273.998 603.939 275.919 603.624 277.83C603.694 277.627 603.807 277.441 603.954 277.285C604.102 277.129 604.281 277.006 604.479 276.925C604.678 276.844 604.892 276.805 605.106 276.813C605.321 276.821 605.532 276.874 605.724 276.969V277.085C605.379 277.045 605.03 277.115 604.727 277.285C604.423 277.454 604.181 277.715 604.034 278.03C603.782 278.556 603.592 279.109 603.466 279.678C603.466 279.867 603.099 279.836 603.12 279.678V279.626C602.616 277.2 603.75 273.557 606.249 272.801Z" fill="#263238"/>
<path d="M382.305 430.836C383.145 433.104 424.305 484.291 427.13 485.257C428.18 485.625 436.002 480.06 445.242 473.067C447.237 471.565 449.285 469.99 451.364 468.384C464.846 457.968 478.905 446.596 478.905 446.596L451.5 412.272L424.715 435.004L418.782 439.95C418.782 439.95 394.254 427.35 391.062 426.678C387.87 426.006 381.465 428.557 382.305 430.836Z" fill="#F7A9A0"/>
<path d="M382.305 430.836C383.145 433.104 424.305 484.292 427.13 485.258C428.432 485.699 439.677 477.393 451.364 468.384L424.673 435.005L418.782 439.95C418.782 439.95 394.254 427.35 391.062 426.678C387.87 426.006 381.465 428.558 382.305 430.836Z" fill="white"/>
<path d="M382.305 430.836C383.145 433.104 424.305 484.291 427.13 485.257C428.18 485.625 436.002 480.06 445.242 473.067L418.782 439.95C418.782 439.95 394.254 427.35 391.062 426.678C387.87 426.006 381.465 428.558 382.305 430.836Z" fill="black"/>
<path d="M384.94 429.923C392.059 438.323 419.958 472.973 426.352 481.782C426.405 481.856 426.352 481.898 426.3 481.782C419.065 473.603 391.44 438.732 384.804 429.986C384.668 429.849 384.793 429.744 384.94 429.923Z" fill="#263238"/>
<path d="M395.556 428.526C396.347 429.462 396.936 430.551 397.285 431.726C397.634 432.901 397.735 434.135 397.583 435.351C397.33 437.541 396.243 439.549 394.548 440.958C394.496 440.958 394.422 440.895 394.464 440.853C395.928 439.194 396.815 437.105 396.991 434.9C397.167 432.694 396.623 430.491 395.44 428.621C395.398 428.547 395.493 428.463 395.556 428.526Z" fill="#263238"/>
<path d="M415.254 437.346C418.068 440.738 420.052 445.746 418.96 450.093C418.96 450.261 418.677 450.198 418.645 450.093C417.799 445.811 416.493 441.632 414.75 437.63C414.712 437.563 414.703 437.484 414.724 437.41C414.744 437.336 414.793 437.273 414.86 437.236C414.927 437.198 415.006 437.189 415.08 437.209C415.154 437.23 415.216 437.279 415.254 437.346Z" fill="#263238"/>
<path d="M412.083 435.53C414.897 438.921 416.892 443.877 415.8 448.277C415.8 448.445 415.517 448.382 415.485 448.277C414.636 443.993 413.334 439.811 411.6 435.803C411.564 435.739 411.554 435.663 411.574 435.592C411.594 435.521 411.641 435.461 411.705 435.425C411.769 435.388 411.845 435.379 411.916 435.399C411.987 435.418 412.047 435.466 412.083 435.53Z" fill="#263238"/>
<path d="M408.922 433.703C411.726 437.105 413.721 442.103 412.629 446.45C412.629 446.628 412.345 446.565 412.314 446.45C411.476 442.169 410.181 437.99 408.45 433.986C408.431 433.925 408.433 433.86 408.456 433.801C408.478 433.741 408.52 433.691 408.575 433.659C408.629 433.626 408.693 433.612 408.756 433.62C408.819 433.628 408.878 433.657 408.922 433.703Z" fill="#263238"/>
<path d="M405.751 431.886C408.565 435.288 410.55 440.286 409.458 444.633C409.458 444.801 409.175 444.738 409.154 444.633C408.32 440.352 407.028 436.174 405.3 432.169C405.288 432.112 405.293 432.053 405.316 431.999C405.338 431.946 405.377 431.9 405.426 431.869C405.476 431.838 405.533 431.823 405.592 431.826C405.65 431.829 405.706 431.85 405.751 431.886Z" fill="#263238"/>
<path d="M432.747 473.046C435.834 476.9 429.839 481.709 426.741 477.845C423.644 473.981 429.65 469.172 432.747 473.046Z" fill="white"/>
<path d="M416.619 430.584C415.716 434.364 416.483 438.396 416.756 442.207C416.771 442.29 416.806 442.368 416.856 442.435C416.907 442.502 416.973 442.557 417.048 442.594C417.123 442.632 417.206 442.651 417.29 442.652C417.374 442.652 417.457 442.633 417.532 442.596C417.543 442.611 417.557 442.624 417.574 442.632C417.59 442.641 417.608 442.645 417.627 442.645C417.646 442.645 417.664 442.641 417.68 442.632C417.697 442.624 417.711 442.611 417.721 442.596C420.678 439.812 422.851 436.3 424.022 432.411C424.662 430.132 424.305 426.804 421.46 426.226C418.751 425.712 417.144 428.4 416.619 430.584ZM419.339 428.137C423.35 425.47 423.192 431.151 422.657 432.81C422.295 433.89 421.856 434.943 421.344 435.96C420.271 438.027 419.093 440.039 417.816 441.987C417.816 440.118 417.617 438.259 417.522 436.38C417.417 434.112 417.123 429.607 419.339 428.137Z" fill="#263238"/>
<path d="M429.723 453.064C431.75 450.964 430.175 448.035 428.369 446.512C425.227 443.945 421.464 442.25 417.459 441.598C417.441 441.595 417.423 441.596 417.406 441.601C417.388 441.606 417.372 441.615 417.359 441.627C417.346 441.639 417.336 441.655 417.329 441.671C417.323 441.688 417.321 441.707 417.323 441.724C417.24 441.738 417.161 441.771 417.092 441.82C417.024 441.868 416.967 441.932 416.927 442.006C416.886 442.08 416.863 442.162 416.859 442.246C416.855 442.33 416.87 442.414 416.903 442.491C418.814 445.799 420.441 449.568 423.308 452.182C424.988 453.715 427.802 455.017 429.723 453.064ZM420.83 446.911C419.843 445.305 418.95 443.667 417.921 442.102C420.071 442.995 422.174 443.997 424.221 445.105C425.206 445.657 426.153 446.275 427.056 446.953C428.432 448.003 431.75 452.634 426.93 452.686C424.284 452.707 421.995 448.822 420.83 446.911Z" fill="#263238"/>
<path d="M426.1 429.828L454.65 468.363L551.04 401.478L560.333 395.02C560.333 395.02 562.968 396.795 566.926 398.989C572.428 402.034 580.493 405.877 587.633 406.927C599.592 408.702 619.574 408.513 629.633 395.02C638.127 383.67 633.517 368.855 633.517 368.855L620.372 363.206C620.372 363.206 589.281 337.302 569.142 336.525C560.584 336.179 548.142 342.667 536.592 349.44C525.042 356.212 426.1 429.828 426.1 429.828Z" fill="#37474F"/>
<path d="M560.353 395.021C560.353 395.021 562.989 396.795 566.947 398.99C573.951 390.59 588.777 375.375 589.228 374.84L560.353 395.021Z" fill="#263238"/>
<path d="M609 354.543C610.859 355.824 612.654 357.199 614.492 358.522C616.329 359.845 618.156 361.053 619.867 362.47C621.579 363.888 623.27 365.463 624.908 367.027C625.706 367.783 626.493 368.539 627.26 369.316C628.067 370.066 628.814 370.877 629.496 371.742C629.549 371.826 629.433 371.92 629.36 371.878C628.486 371.258 627.655 370.581 626.871 369.852L624.267 367.636C622.597 366.219 620.897 364.833 619.227 363.436C617.558 362.04 616.077 360.465 614.397 359.037C612.717 357.609 610.785 356.076 608.969 354.616L609 354.543Z" fill="#263238"/>
<path d="M432.81 428.4C434.669 430.405 436.38 432.6 438.112 434.7C439.845 436.8 441.567 438.952 443.279 441.084C446.702 445.368 450.156 449.631 453.526 453.957C455.374 456.33 457.201 458.724 458.923 461.191C458.997 461.307 458.829 461.433 458.734 461.338C455.049 457.285 451.679 452.938 448.235 448.686C444.791 444.433 441.389 440.107 438.029 435.771C436.191 433.398 434.301 431.035 432.611 428.557C432.6 428.463 432.726 428.4 432.81 428.4Z" fill="#263238"/>
<path d="M511.917 428.831C516.716 425.051 521.682 421.481 526.617 417.942C531.552 414.404 536.508 410.876 541.527 407.442L545.874 404.534C547.334 403.578 548.835 402.686 550.263 401.678C550.336 401.625 550.41 401.762 550.337 401.814C549.035 402.759 547.795 403.799 546.514 404.775C545.233 405.752 544.078 406.634 542.839 407.547C540.435 409.332 537.999 411.086 535.574 412.797C530.674 416.353 525.707 419.853 520.674 423.297C517.829 425.25 515.004 427.214 512.095 429.062C511.959 429.24 511.749 428.967 511.917 428.831Z" fill="#263238"/>
<path d="M481.089 389.067C485.52 385.392 490.276 382.095 494.918 378.693C499.559 375.291 504.294 371.794 509.008 368.382L523.047 358.239C527.583 354.952 532.098 351.624 536.886 348.715C539.511 347.13 542.199 345.66 544.971 344.337C547.647 342.962 550.436 341.82 553.308 340.924C553.326 340.923 553.344 340.927 553.359 340.936C553.374 340.945 553.386 340.959 553.393 340.975C553.4 340.991 553.402 341.009 553.398 341.027C553.394 341.044 553.384 341.06 553.371 341.071C551.009 342.384 548.531 343.497 546.137 344.767C543.743 346.038 541.443 347.35 539.154 348.736C534.398 351.624 529.914 354.9 525.399 358.186C516.033 364.927 506.678 371.689 497.238 378.336C491.988 382.053 486.79 385.98 481.299 389.392C481.131 389.466 480.9 389.203 481.089 389.067Z" fill="#263238"/>
<path d="M538.65 225.057C538.65 226.977 539.376 228.825 540.681 230.233C541.987 231.64 543.776 232.502 545.69 232.645H588.781C591.082 232.648 593.295 231.764 594.961 230.177C596.626 228.59 597.616 226.422 597.724 224.124C597.832 221.825 597.05 219.574 595.54 217.838C594.031 216.101 591.91 215.014 589.619 214.801C589.507 211.306 588.183 207.958 585.874 205.332C583.564 202.707 580.413 200.966 576.96 200.409C573.508 199.852 569.969 200.513 566.951 202.279C563.933 204.045 561.623 206.806 560.417 210.089C559.177 209.463 557.807 209.138 556.418 209.141C554.142 209.142 551.951 210.011 550.293 211.571C548.635 213.13 547.634 215.263 547.493 217.535C547.084 217.464 546.67 217.429 546.255 217.431C545.254 217.431 544.264 217.629 543.34 218.013C542.417 218.397 541.578 218.959 540.871 219.667C540.165 220.376 539.605 221.216 539.224 222.141C538.843 223.066 538.648 224.057 538.65 225.057Z" fill="black"/>
<path d="M575.616 223.244H564.642V232.667H575.616V223.244Z" fill="white"/>
<path d="M560.872 223.244H579.38L570.126 214.012L560.872 223.244Z" fill="white"/>
<g clip-path="url(#clip0_12_1415)">
<path d="M392.175 169.05C364.05 169.05 341.25 191.85 341.25 219.975C341.25 248.1 364.05 270.9 392.175 270.9C420.3 270.9 443.1 248.1 443.1 219.975C443.1 191.85 420.3 169.05 392.175 169.05ZM414.026 192.902L424.606 203.483L391.56 236.536L381.041 247.048L370.461 236.467L359.744 225.744L370.256 215.232L380.973 225.955L414.026 192.902Z" fill="#030B16"/>
</g>
<defs>
<clipPath id="clip0_12_1415">
<rect width="101.85" height="101.85" fill="white" transform="translate(341.25 169.05)"/>
</clipPath>
</defs>
</svg>
