<svg width="30" height="30" viewBox="0 0 30 30" fill="none" xmlns="http://www.w3.org/2000/svg">
<circle cx="15" cy="15" r="15" fill="white"/>
<path d="M23.0273 10.5391C22.7655 9.9329 22.3881 9.38359 21.916 8.92189C21.4436 8.45881 20.8866 8.09082 20.2754 7.8379C19.6416 7.57461 18.9617 7.43984 18.2754 7.44142C17.3125 7.44142 16.373 7.70509 15.5566 8.20314C15.3613 8.32228 15.1758 8.45314 15 8.59572C14.8242 8.45314 14.6387 8.32228 14.4434 8.20314C13.627 7.70509 12.6875 7.44142 11.7246 7.44142C11.0312 7.44142 10.3594 7.57423 9.72461 7.8379C9.11133 8.09181 8.55859 8.45704 8.08398 8.92189C7.61132 9.38306 7.23375 9.93251 6.97266 10.5391C6.70117 11.1699 6.5625 11.8399 6.5625 12.5293C6.5625 13.1797 6.69531 13.8574 6.95898 14.5469C7.17969 15.1231 7.49609 15.7207 7.90039 16.3242C8.54102 17.2793 9.42188 18.2754 10.5156 19.2852C12.3281 20.959 14.123 22.1152 14.1992 22.1621L14.6621 22.459C14.8672 22.5899 15.1309 22.5899 15.3359 22.459L15.7988 22.1621C15.875 22.1133 17.668 20.959 19.4824 19.2852C20.5762 18.2754 21.457 17.2793 22.0977 16.3242C22.502 15.7207 22.8203 15.1231 23.0391 14.5469C23.3027 13.8574 23.4355 13.1797 23.4355 12.5293C23.4375 11.8399 23.2988 11.1699 23.0273 10.5391Z" fill="#C8C2C2"/>
</svg>
