<svg width="17" height="15" viewBox="0 0 17 15" fill="none" xmlns="http://www.w3.org/2000/svg">
<path d="M8.03365 2.74805L7.31362 2.01105C5.62352 0.281049 2.5245 0.878049 1.4058 3.05305C0.880595 4.07605 0.762097 5.55305 1.72113 7.43805C2.64501 9.25305 4.56708 11.427 8.03365 13.795C11.5002 11.427 13.4213 9.25305 14.3462 7.43805C15.3052 5.55205 15.1877 4.07605 14.6615 3.05305C13.5428 0.878049 10.4438 0.280049 8.75367 2.01005L8.03365 2.74805ZM8.03365 15C-7.36404 4.86805 3.29273 -3.03995 7.85691 1.14305C7.91716 1.19805 7.97641 1.25505 8.03365 1.31405C8.09031 1.2551 8.14927 1.19839 8.21039 1.14405C12.7736 -3.04195 23.4313 4.86705 8.03365 15Z" fill="white"/>
</svg>
