<svg width="22" height="22" viewBox="0 0 22 22" fill="none" xmlns="http://www.w3.org/2000/svg">
<circle cx="11" cy="11" r="11" fill="#EEEEEE"/>
<g opacity="0.37">
<path fill-rule="evenodd" clip-rule="evenodd" d="M14.9999 10.9997C14.9999 11.1323 14.9472 11.2594 14.8535 11.3532C14.7597 11.447 14.6325 11.4997 14.4999 11.4997H8.70692L10.8539 13.6457C10.9004 13.6921 10.9373 13.7473 10.9624 13.8081C10.9876 13.8688 11.0005 13.9339 11.0005 13.9997C11.0005 14.0654 10.9876 14.1305 10.9624 14.1912C10.9373 14.252 10.9004 14.3072 10.8539 14.3537C10.8074 14.4001 10.7522 14.437 10.6915 14.4622C10.6308 14.4873 10.5657 14.5003 10.4999 14.5003C10.4342 14.5003 10.3691 14.4873 10.3083 14.4622C10.2476 14.437 10.1924 14.4001 10.1459 14.3537L7.14592 11.3537C7.09935 11.3072 7.06241 11.252 7.0372 11.1913C7.012 11.1305 6.99902 11.0654 6.99902 10.9997C6.99902 10.9339 7.012 10.8688 7.0372 10.808C7.06241 10.7473 7.09935 10.6921 7.14592 10.6457L10.1459 7.64566C10.2398 7.55177 10.3671 7.49902 10.4999 7.49902C10.6327 7.49902 10.76 7.55177 10.8539 7.64566C10.9478 7.73954 11.0005 7.86688 11.0005 7.99966C11.0005 8.13243 10.9478 8.25977 10.8539 8.35366L8.70692 10.4997H14.4999C14.6325 10.4997 14.7597 10.5523 14.8535 10.6461C14.9472 10.7399 14.9999 10.867 14.9999 10.9997Z" fill="black"/>
</g>
</svg>
