<svg width="22" height="22" viewBox="0 0 22 22" fill="none" xmlns="http://www.w3.org/2000/svg">
<circle cx="11" cy="11" r="11" fill="#EEEEEE"/>
<path fill-rule="evenodd" clip-rule="evenodd" d="M7 10.9997C7 10.867 7.05268 10.7399 7.14645 10.6461C7.24021 10.5523 7.36739 10.4997 7.5 10.4997H13.293L11.146 8.35366C11.0521 8.25977 10.9994 8.13243 10.9994 7.99966C10.9994 7.86688 11.0521 7.73954 11.146 7.64566C11.2399 7.55177 11.3672 7.49902 11.5 7.49902C11.6328 7.49902 11.7601 7.55177 11.854 7.64566L14.854 10.6457C14.9006 10.6921 14.9375 10.7473 14.9627 10.808C14.9879 10.8688 15.0009 10.9339 15.0009 10.9997C15.0009 11.0654 14.9879 11.1305 14.9627 11.1913C14.9375 11.252 14.9006 11.3072 14.854 11.3537L11.854 14.3537C11.7601 14.4475 11.6328 14.5003 11.5 14.5003C11.3672 14.5003 11.2399 14.4475 11.146 14.3537C11.0521 14.2598 10.9994 14.1324 10.9994 13.9997C10.9994 13.8669 11.0521 13.7395 11.146 13.6457L13.293 11.4997H7.5C7.36739 11.4997 7.24021 11.447 7.14645 11.3532C7.05268 11.2594 7 11.1323 7 10.9997Z" fill="black"/>
</svg>
