<svg width="18" height="18" viewBox="0 0 18 18" fill="none" xmlns="http://www.w3.org/2000/svg">
<path d="M18 9.00024V8.99574C18 6.33249 16.8405 3.94074 14.9993 2.29599L14.9903 2.28849C14.9675 2.26398 14.9421 2.24209 14.9145 2.22324L14.913 2.22249C13.2777 0.786641 11.1747 -0.00324721 8.9985 0.00099355C6.7245 0.00099355 4.6485 0.845493 3.066 2.23899L3.07575 2.23074C3.05668 2.24521 3.03909 2.26154 3.02325 2.27949C2.0719 3.12188 1.3104 4.15756 0.789196 5.31646C0.267994 6.47536 -0.00101017 7.73178 2.8505e-06 9.00249C2.8505e-06 11.665 1.158 14.0567 2.99775 15.7022L3.00675 15.7097C3.03058 15.7368 3.05723 15.7611 3.08625 15.7825L3.08775 15.7832C4.72263 17.217 6.82402 18.0057 8.9985 18.0017C11.1832 18.0051 13.2935 17.2091 14.9318 15.7637L14.922 15.772C15.8898 14.9305 16.6657 13.891 17.1969 12.7237C17.7282 11.5565 18.0026 10.2887 18.0015 9.00624V9.00099L18 9.00024ZM14.6535 14.854C14.2077 14.4934 13.7282 14.1764 13.2218 13.9075L13.173 13.8835C13.6328 12.5582 13.9095 11.0305 13.9358 9.44124V9.42924H17.1315C17.0237 11.4853 16.1388 13.4236 14.6558 14.8517L14.6535 14.854ZM9.429 13.7252C10.3913 13.777 11.2905 13.9885 12.12 14.3327L12.066 14.3132C11.4015 15.8282 10.4663 16.8692 9.429 17.098V13.7252ZM9.429 12.8672V9.42924H13.08C13.051 10.8529 12.8042 12.2638 12.348 13.6127L12.3773 13.5145C11.4461 13.1318 10.4557 12.913 9.45 12.868L9.42975 12.8672H9.429ZM9.429 8.57124V5.13324C10.4619 5.0861 11.4787 4.85999 12.4343 4.46499L12.375 4.48674C12.7913 5.70099 13.047 7.10049 13.08 8.55549V8.57124H9.429ZM9.429 4.27524V0.903993C10.4663 1.13274 11.4015 2.16924 12.066 3.68874C11.2905 4.01124 10.3913 4.22199 9.45075 4.27449L9.429 4.27524ZM11.5695 1.27524C12.4533 1.57002 13.2798 2.01449 14.013 2.58924L13.9958 2.57574C13.6635 2.83674 13.2908 3.08274 12.8978 3.29649L12.8558 3.31749C12.5382 2.56804 12.1016 1.87485 11.5628 1.26474L11.5695 1.27299V1.27524ZM8.5695 0.906243V4.27524C7.64437 4.22805 6.73418 4.02257 5.8785 3.66774L5.9325 3.68724C6.6 2.17224 7.53375 1.13199 8.571 0.903243L8.5695 0.906243ZM5.1435 3.31524C4.73695 3.09651 4.34957 2.84386 3.9855 2.55999L4.0035 2.57349C4.71535 2.01561 5.51604 1.58154 6.372 1.28949L6.429 1.27224C5.90431 1.86582 5.47679 2.53863 5.16225 3.26574L5.1435 3.31524ZM8.571 5.13249V8.57049H4.92C4.953 7.09974 5.20875 5.70024 5.65425 4.38774L5.625 4.48599C6.5558 4.86809 7.5456 5.08655 8.55075 5.13174L8.571 5.13249ZM8.571 9.42849V12.8665C7.53813 12.9136 6.52128 13.1397 5.56575 13.5347L5.625 13.513C5.20875 12.2995 4.953 10.8992 4.92 9.44424V9.42849H8.571ZM8.571 13.7245V17.0957C7.53375 16.867 6.5985 15.8305 5.934 14.311C6.7095 13.9885 7.60875 13.7785 8.54925 13.726L8.571 13.7245ZM6.4335 16.7245C5.54997 16.4306 4.72346 15.9871 3.99 15.4135L4.008 15.427C4.34025 15.166 4.713 14.92 5.106 14.7062L5.148 14.6852C5.46291 15.435 5.89955 16.1276 6.44025 16.735L6.4335 16.7275V16.7245ZM12.8565 14.6845C13.2915 14.9207 13.6643 15.166 14.0145 15.4397L13.9965 15.4262C13.2847 15.9841 12.484 16.4182 11.628 16.7102L11.571 16.7275C12.0957 16.1342 12.5232 15.4616 12.8378 14.7347L12.8565 14.686V14.6845ZM17.1315 8.57124H13.9358C13.9128 7.01945 13.645 5.48102 13.1423 4.01274L13.173 4.11624C13.7028 3.83729 14.2044 3.50775 14.6708 3.13224L14.6528 3.14574C16.1327 4.56851 17.018 6.49962 17.13 8.54949L17.1308 8.57049L17.1315 8.57124ZM3.3465 3.14649C3.7785 3.49749 4.26375 3.81924 4.77825 4.09299L4.827 4.11699C4.36725 5.44224 4.0905 6.96999 4.06425 8.55924V8.57124H0.867753C0.975522 6.51519 1.86049 4.5769 3.3435 3.14874L3.3465 3.14649ZM0.868503 9.42924H4.06425C4.08724 10.981 4.35504 12.5195 4.85775 13.9877L4.827 13.8842C4.26375 14.1835 3.77925 14.5052 3.32925 14.8682L3.34725 14.8547C1.86731 13.432 0.982026 11.5009 0.870003 9.45099L0.869253 9.42999L0.868503 9.42924Z" fill="#787D82"/>
</svg>
